<mxfile host="Electron" agent="Mozilla/5.0 (Windows NT 10.0; Win64; x64) AppleWebKit/537.36 (KHTML, like Gecko) draw.io/24.7.17 Chrome/128.0.6613.36 Electron/32.0.1 Safari/537.36" version="24.7.17">
  <diagram id="s3aCPrAx4HFNat9jy78g" name="Page-1">
    <mxGraphModel dx="3585" dy="2110" grid="1" gridSize="10" guides="1" tooltips="1" connect="1" arrows="1" fold="1" page="1" pageScale="1" pageWidth="2100" pageHeight="2000" math="0" shadow="0">
      <root>
        <mxCell id="0" />
        <mxCell id="1" parent="0" />
        <mxCell id="50FBFDGJmkygeUbuWhPx-1" value="&lt;font color=&quot;#ff0000&quot; style=&quot;font-size: 30px ; font-weight: bold&quot;&gt;SENTENCE WORD ORDER&lt;/font&gt;&lt;br&gt;&lt;br&gt;&lt;font color=&quot;#ff0000&quot; style=&quot;font-size: 25px ; font-weight: bold&quot;&gt;&amp;nbsp;&lt;/font&gt;&lt;font color=&quot;#ff9933&quot; style=&quot;font-size: 25px ; font-weight: bold&quot;&gt;W-H&lt;/font&gt;&lt;font color=&quot;#ff0000&quot; style=&quot;font-size: 25px ; font-weight: bold&quot;&gt; Question&amp;nbsp;&lt;/font&gt;&lt;span style=&quot;font-size: 25px ; font-weight: bold&quot;&gt;(Who/What/When) &lt;br&gt;&lt;br&gt;&lt;/span&gt;&lt;span style=&quot;font-size: 25px&quot;&gt;&lt;b&gt;&lt;font color=&quot;#ff9933&quot;&gt;Question&amp;nbsp;&lt;/font&gt;&lt;font color=&quot;#ff0000&quot;&gt;Auxiliary Verb&amp;nbsp;&lt;/font&gt;&lt;/b&gt;&lt;/span&gt;&lt;span style=&quot;font-size: 25px&quot;&gt;&lt;b&gt;&lt;font color=&quot;#6600cc&quot;&gt;(Do/Does/Did/Can/Would...)&lt;/font&gt;&lt;/b&gt;&lt;/span&gt;&lt;span style=&quot;font-size: 25px ; font-weight: bold&quot;&gt;&lt;br&gt;&lt;br&gt;&lt;/span&gt;&lt;font style=&quot;font-size: 25px ; font-weight: bold&quot; color=&quot;#ff9933&quot;&gt;WHO (Kim ?)&amp;nbsp;&lt;/font&gt;&lt;span style=&quot;color: rgb(255 , 153 , 51) ; font-size: 25px ; font-weight: 700&quot;&gt;=&lt;/span&gt;&lt;span style=&quot;font-size: 25px ; font-weight: bold&quot;&gt;&amp;nbsp;&lt;/span&gt;&lt;font color=&quot;#ff0000&quot; style=&quot;font-size: 25px ; font-weight: bold&quot;&gt;Subject &lt;/font&gt;&lt;span style=&quot;font-size: 25px ; font-weight: bold&quot;&gt;(You/We/He/She)&lt;br&gt;&lt;/span&gt;&lt;span style=&quot;font-size: 25px ; font-weight: bold&quot;&gt;&lt;br&gt;&lt;/span&gt;&lt;font color=&quot;#ff0000&quot;&gt;&lt;span style=&quot;font-size: 25px&quot;&gt;&lt;b&gt;Auxiliary Verb&amp;nbsp;&lt;/b&gt;&lt;/span&gt;&lt;/font&gt;&lt;span style=&quot;font-size: 25px&quot;&gt;&lt;b&gt;(do/does/did/can/would...)&lt;br&gt;&lt;/b&gt;&lt;/span&gt;&lt;br&gt;&lt;br&gt;&lt;font style=&quot;border-color: var(--border-color);&quot; color=&quot;#ff0000&quot;&gt;&lt;span style=&quot;border-color: var(--border-color); font-size: 25px;&quot;&gt;&lt;b style=&quot;border-color: var(--border-color);&quot;&gt;Adverbs of Frequency&amp;nbsp;&lt;/b&gt;&lt;/span&gt;&lt;/font&gt;&lt;b style=&quot;border-color: var(--border-color); font-size: 25px;&quot;&gt;(always,often,&amp;nbsp;&lt;/b&gt;&lt;span style=&quot;border-color: var(--border-color); font-size: 25px;&quot;&gt;&lt;b style=&quot;border-color: var(--border-color);&quot;&gt;usually&lt;/b&gt;&lt;/span&gt;&lt;b style=&quot;border-color: var(--border-color); font-size: 25px;&quot;&gt;, sometimes...)&lt;/b&gt;&lt;br&gt;&lt;span style=&quot;font-size: 25px ; font-weight: bold&quot;&gt;&lt;br&gt;&lt;/span&gt;&lt;font color=&quot;#ff9933&quot; style=&quot;font-size: 25px ; font-weight: bold&quot;&gt;DO (Ne Yaptı ?)&amp;nbsp;&lt;/font&gt;&lt;span style=&quot;color: rgb(255 , 153 , 51) ; font-size: 25px ; font-weight: 700&quot;&gt;=&lt;/span&gt;&lt;span style=&quot;font-size: 25px ; font-weight: bold&quot;&gt;&amp;nbsp;&lt;/span&gt;&lt;font color=&quot;#ff0000&quot; style=&quot;font-size: 25px ; font-weight: bold&quot;&gt;VERB &lt;/font&gt;&lt;span style=&quot;font-size: 25px ; font-weight: bold&quot;&gt;(do/think) &lt;br&gt;&lt;br&gt;&lt;/span&gt;&lt;font color=&quot;#ff9933&quot; style=&quot;font-size: 25px ; font-weight: bold&quot;&gt;WHAT (Neyi ?)&amp;nbsp;&lt;/font&gt;&lt;span style=&quot;color: rgb(255 , 153 , 51) ; font-size: 25px ; font-weight: 700&quot;&gt;=&lt;/span&gt;&lt;span style=&quot;font-size: 25px ; font-weight: bold&quot;&gt;&amp;nbsp;&lt;/span&gt;&lt;font color=&quot;#ff0000&quot; style=&quot;font-size: 25px ; font-weight: bold&quot;&gt;OBJECT&lt;/font&gt;&lt;span style=&quot;font-size: 25px ; font-weight: bold&quot;&gt;(ball,dinner)&lt;br&gt;&lt;br&gt;&lt;/span&gt;&lt;span style=&quot;color: rgb(255 , 153 , 51) ; font-size: 25px ; font-weight: 700&quot;&gt;HOW (Nasıl ?) =&lt;/span&gt;&lt;span style=&quot;font-size: 25px ; font-weight: bold&quot;&gt;&amp;nbsp;&lt;/span&gt;&lt;font color=&quot;#ff0000&quot; style=&quot;font-size: 25px ; font-weight: bold&quot;&gt;MANNER &lt;/font&gt;&lt;span style=&quot;font-size: 25px ; font-weight: bold&quot;&gt;(well,slowly) &lt;br&gt;&lt;br&gt;&lt;/span&gt;&lt;span style=&quot;color: rgb(255 , 153 , 51) ; font-size: 25px ; font-weight: 700&quot;&gt;WHERE (Nerede ?) =&amp;nbsp;&lt;/span&gt;&lt;font color=&quot;#ff0000&quot; style=&quot;font-size: 25px ; font-weight: bold&quot;&gt;PLACE &lt;/font&gt;&lt;b style=&quot;font-size: 25px&quot;&gt;(at home/at school)&lt;br&gt;&lt;br&gt;&lt;/b&gt;&lt;span style=&quot;color: rgb(255 , 153 , 51) ; font-size: 25px ; font-weight: 700&quot;&gt;WHEN (Ne zaman ?) =&amp;nbsp;&lt;/span&gt;&lt;b style=&quot;font-size: 25px&quot;&gt;&lt;font color=&quot;#ff0000&quot;&gt;TIME &lt;/font&gt;(at two o&#39;clock /&lt;/b&gt;&lt;span style=&quot;font-size: 25px&quot;&gt;&lt;b&gt;at half past three&lt;/b&gt;&lt;/span&gt;&lt;b style=&quot;font-size: 25px&quot;&gt;)&lt;/b&gt;" style="text;html=1;strokeColor=none;fillColor=none;align=center;verticalAlign=middle;whiteSpace=wrap;rounded=0;" parent="1" vertex="1">
          <mxGeometry x="143.8800000000001" y="50" width="759.38" height="630" as="geometry" />
        </mxCell>
        <mxCell id="Z4ROe8SGW56tW4vZj5vg-1" value="&lt;div style=&quot;text-align: left&quot;&gt;&lt;b style=&quot;font-size: 20px&quot;&gt;&lt;font color=&quot;#ff0000&quot;&gt;Prepositions&lt;/font&gt; (Edatlar)&lt;/b&gt;&lt;/div&gt;&lt;font&gt;&lt;div style=&quot;text-align: left&quot;&gt;&lt;br&gt;&lt;/div&gt;&lt;font style=&quot;font-size: 20px&quot;&gt;&lt;div style=&quot;text-align: left&quot;&gt;&lt;font color=&quot;#ff0000&quot;&gt;&lt;b&gt;at:&lt;/b&gt;&lt;/font&gt;&lt;span&gt;&amp;nbsp;-de, -da&amp;nbsp;&lt;/span&gt;&lt;/div&gt;&lt;font color=&quot;#ff0000&quot;&gt;&lt;div style=&quot;text-align: left&quot;&gt;&lt;font color=&quot;#ff0000&quot;&gt;&lt;b&gt;in:&lt;/b&gt;&lt;/font&gt;&lt;span style=&quot;color: rgb(0 , 0 , 0)&quot;&gt;&amp;nbsp;-olarak, -içinde, -de, -da&lt;/span&gt;&lt;/div&gt;&lt;/font&gt;&lt;b&gt;&lt;div style=&quot;text-align: left&quot;&gt;&lt;font style=&quot;font-weight: normal&quot;&gt;&lt;b&gt;&lt;font color=&quot;#ff0000&quot;&gt;on:&amp;nbsp;&lt;/font&gt;&lt;/b&gt;&lt;/font&gt;&lt;span style=&quot;font-weight: normal&quot;&gt;-üzerinde, ile, üstünde , de&lt;/span&gt;&lt;/div&gt;&lt;div style=&quot;text-align: left&quot;&gt;&lt;span style=&quot;font-weight: normal&quot;&gt;&lt;br&gt;&lt;/span&gt;&lt;/div&gt;&lt;/b&gt;&lt;/font&gt;&lt;font style=&quot;font-size: 20px&quot;&gt;&lt;div style=&quot;text-align: left&quot;&gt;&lt;font&gt;&lt;b&gt;&lt;font color=&quot;#ff0000&quot;&gt;over:&amp;nbsp;&lt;/font&gt;&lt;/b&gt;&lt;/font&gt;&lt;span&gt;fazla, üzerinde, üzerinden, boyunca&lt;/span&gt;&lt;/div&gt;&lt;/font&gt;&lt;font style=&quot;font-size: 20px&quot;&gt;&lt;b&gt;&lt;div style=&quot;text-align: left&quot;&gt;&lt;font style=&quot;font-weight: normal&quot;&gt;&lt;b&gt;&lt;font color=&quot;#ff0000&quot;&gt;under:&amp;nbsp;&lt;/font&gt;&lt;/b&gt;&lt;/font&gt;&lt;span style=&quot;font-weight: normal&quot;&gt;altında, bağlı&lt;/span&gt;&lt;/div&gt;&lt;/b&gt;&lt;/font&gt;&lt;font style=&quot;font-size: 20px&quot;&gt;&lt;div style=&quot;text-align: left&quot;&gt;&lt;br&gt;&lt;/div&gt;&lt;/font&gt;&lt;font style=&quot;font-size: 20px&quot;&gt;&lt;div style=&quot;text-align: left&quot;&gt;&lt;font&gt;&lt;b&gt;&lt;font color=&quot;#ff0000&quot;&gt;between:&amp;nbsp;&lt;/font&gt;&lt;/b&gt;&lt;/font&gt;&lt;span&gt;arasında, aralarında&lt;/span&gt;&lt;/div&gt;&lt;/font&gt;&lt;font style=&quot;font-size: 20px&quot;&gt;&lt;div style=&quot;text-align: left&quot;&gt;&lt;font&gt;&lt;b&gt;&lt;font color=&quot;#ff0000&quot;&gt;among:&amp;nbsp;&lt;/font&gt;&lt;/b&gt;&lt;/font&gt;&lt;span&gt;arasında, içinde, arasına&lt;/span&gt;&lt;/div&gt;&lt;/font&gt;&lt;font&gt;&lt;div style=&quot;font-size: 20px ; text-align: left&quot;&gt;&lt;br&gt;&lt;/div&gt;&lt;div style=&quot;font-size: 20px ; text-align: left&quot;&gt;&lt;font color=&quot;#ff0000&quot;&gt;&lt;b&gt;opposite&lt;/b&gt;&lt;/font&gt;: karşısında&lt;br&gt;&lt;/div&gt;&lt;div style=&quot;font-size: 20px ; text-align: left&quot;&gt;&lt;b&gt;&lt;font color=&quot;#ff0000&quot;&gt;around:&amp;nbsp;&lt;/font&gt;&lt;/b&gt;etrafında, çevresinde&lt;br&gt;&lt;/div&gt;&lt;div style=&quot;font-size: 20px ; text-align: left&quot;&gt;&lt;b&gt;&lt;font color=&quot;#ff0000&quot;&gt;through:&amp;nbsp;&lt;/font&gt;&lt;/b&gt;vasıtasıyla, yoluyla&lt;/div&gt;&lt;div style=&quot;font-size: 20px ; text-align: left&quot;&gt;&lt;b&gt;&lt;font color=&quot;#ff0000&quot;&gt;across:&amp;nbsp;&lt;/font&gt;&lt;/b&gt;karşısında, karşıdan karşıya&lt;br&gt;&lt;/div&gt;&lt;div style=&quot;font-size: 20px ; text-align: left&quot;&gt;&lt;span&gt;&lt;font color=&quot;#ff0000&quot;&gt;&lt;b&gt;&lt;br&gt;&lt;/b&gt;&lt;/font&gt;&lt;/span&gt;&lt;/div&gt;&lt;div style=&quot;font-size: 20px ; text-align: left&quot;&gt;&lt;span&gt;&lt;font color=&quot;#ff0000&quot;&gt;&lt;b&gt;in front of&lt;/b&gt;&lt;/font&gt;&lt;/span&gt;&lt;span&gt;: önünde&lt;/span&gt;&lt;font color=&quot;#ff0000&quot;&gt;&lt;b&gt;&lt;br&gt;&lt;/b&gt;&lt;/font&gt;&lt;/div&gt;&lt;div style=&quot;font-size: 20px ; text-align: left&quot;&gt;&lt;font color=&quot;#ff0000&quot;&gt;&lt;b&gt;behind&lt;/b&gt;&lt;/font&gt;: arkasında&lt;/div&gt;&lt;div style=&quot;text-align: left&quot;&gt;&lt;span style=&quot;font-size: 20px&quot;&gt;&lt;font color=&quot;#ff0000&quot;&gt;&lt;b&gt;on the left&lt;/b&gt;&lt;/font&gt;&lt;/span&gt;&lt;span style=&quot;font-size: 20px&quot;&gt;: solunda&lt;/span&gt;&lt;span style=&quot;font-size: 20px&quot;&gt;&lt;font color=&quot;#ff0000&quot;&gt;&lt;b&gt;&lt;br&gt;&lt;/b&gt;&lt;/font&gt;&lt;/span&gt;&lt;/div&gt;&lt;div style=&quot;text-align: left&quot;&gt;&lt;span style=&quot;font-size: 20px&quot;&gt;&lt;font color=&quot;#ff0000&quot;&gt;&lt;b&gt;on the right&lt;/b&gt;&lt;/font&gt;&lt;/span&gt;&lt;span style=&quot;font-size: 20px&quot;&gt;: sağında&lt;/span&gt;&lt;/div&gt;&lt;div style=&quot;text-align: left&quot;&gt;&lt;span style=&quot;font-size: 20px&quot;&gt;&lt;br&gt;&lt;/span&gt;&lt;/div&gt;&lt;div style=&quot;text-align: left&quot;&gt;&lt;font style=&quot;font-size: 20px&quot;&gt;&lt;b&gt;&lt;font color=&quot;#ff0000&quot;&gt;near:&amp;nbsp;&lt;/font&gt;&lt;/b&gt;&lt;/font&gt;&lt;span style=&quot;font-size: 20px&quot;&gt;yakın, yakınında, bitişik&lt;/span&gt;&lt;span style=&quot;font-size: 20px&quot;&gt;&lt;font color=&quot;#ff0000&quot;&gt;&lt;b&gt;&lt;br&gt;&lt;/b&gt;&lt;/font&gt;&lt;/span&gt;&lt;/div&gt;&lt;div style=&quot;text-align: left&quot;&gt;&lt;span style=&quot;font-size: 20px&quot;&gt;&lt;font color=&quot;#ff0000&quot;&gt;&lt;b&gt;next to&lt;/b&gt;&lt;/font&gt;: yanında&lt;/span&gt;&lt;span style=&quot;font-size: 20px&quot;&gt;&lt;br&gt;&lt;/span&gt;&lt;/div&gt;&lt;div style=&quot;text-align: left&quot;&gt;&lt;font style=&quot;font-size: 20px&quot;&gt;&lt;b&gt;&lt;font color=&quot;#ff0000&quot;&gt;above:&amp;nbsp;&lt;/font&gt;&lt;/b&gt;üzerinde, yukarısında, üstünde&lt;b&gt;&lt;font color=&quot;#ff0000&quot;&gt;&lt;br&gt;&lt;/font&gt;&lt;/b&gt;&lt;/font&gt;&lt;/div&gt;&lt;div style=&quot;text-align: left&quot;&gt;&lt;font style=&quot;font-size: 20px&quot;&gt;&lt;b&gt;&lt;font color=&quot;#ff0000&quot;&gt;below:&amp;nbsp;&lt;/font&gt;&lt;/b&gt;&lt;/font&gt;&lt;span style=&quot;font-size: 20px&quot;&gt;alttaki, aşağıdaki&lt;/span&gt;&lt;span style=&quot;font-size: 20px&quot;&gt;&lt;br&gt;&lt;/span&gt;&lt;/div&gt;&lt;div style=&quot;text-align: left&quot;&gt;&lt;span style=&quot;font-size: 20px&quot;&gt;&lt;br&gt;&lt;/span&gt;&lt;/div&gt;&lt;div style=&quot;text-align: left&quot;&gt;&lt;font style=&quot;font-size: 20px&quot;&gt;&lt;b&gt;&lt;font color=&quot;#ff0000&quot;&gt;into:&amp;nbsp;&lt;/font&gt;&lt;/b&gt;&lt;/font&gt;&lt;span style=&quot;font-size: 20px&quot;&gt;içine, şeklinde, biçimine&lt;/span&gt;&lt;span style=&quot;font-size: 20px&quot;&gt;&lt;br&gt;&lt;/span&gt;&lt;/div&gt;&lt;div style=&quot;text-align: left&quot;&gt;&lt;font style=&quot;font-size: 20px&quot;&gt;&lt;b&gt;&lt;font color=&quot;#ff0000&quot;&gt;out of: -&lt;/font&gt;&lt;/b&gt;&lt;/font&gt;&lt;span style=&quot;font-size: 20px&quot;&gt;den dışarıya, -den dolayı&lt;/span&gt;&lt;br&gt;&lt;/div&gt;&lt;div style=&quot;text-align: left&quot;&gt;&lt;br&gt;&lt;/div&gt;&lt;/font&gt;&lt;/font&gt;" style="text;html=1;strokeColor=none;fillColor=none;align=center;verticalAlign=middle;whiteSpace=wrap;rounded=0;" parent="1" vertex="1">
          <mxGeometry x="850" y="1946" width="480" height="730" as="geometry" />
        </mxCell>
        <mxCell id="quBmAy54HUBky6KF_Uh2-4" value="" style="aspect=fixed;html=1;points=[];align=center;image;fontSize=12;image=https://raw.githubusercontent.com/muratcakmaksoftware/english-formula-diagrams/master/images/prepositions/box.jpg;" parent="1" vertex="1">
          <mxGeometry x="1430.7600000000002" y="1946" width="589" height="331" as="geometry" />
        </mxCell>
        <mxCell id="quBmAy54HUBky6KF_Uh2-5" value="" style="aspect=fixed;html=1;points=[];align=center;image;fontSize=12;image=https://raw.githubusercontent.com/muratcakmaksoftware/english-formula-diagrams/master/images/prepositions/cat.jpg;" parent="1" vertex="1">
          <mxGeometry x="1430.7600000000002" y="2336" width="612" height="331" as="geometry" />
        </mxCell>
        <mxCell id="LmJEm3d786BHCTWVKZAp-98" value="" style="shape=table;html=1;whiteSpace=wrap;startSize=0;container=1;collapsible=0;childLayout=tableLayout;" parent="1" vertex="1">
          <mxGeometry x="1030" y="64" width="950" height="600" as="geometry" />
        </mxCell>
        <mxCell id="LmJEm3d786BHCTWVKZAp-99" value="" style="shape=partialRectangle;html=1;whiteSpace=wrap;collapsible=0;dropTarget=0;pointerEvents=0;fillColor=none;top=0;left=0;bottom=0;right=0;points=[[0,0.5],[1,0.5]];portConstraint=eastwest;" parent="LmJEm3d786BHCTWVKZAp-98" vertex="1">
          <mxGeometry width="950" height="87" as="geometry" />
        </mxCell>
        <mxCell id="LmJEm3d786BHCTWVKZAp-114" value="&lt;b style=&quot;font-size: 14px&quot;&gt;&lt;font color=&quot;#ff0000&quot; style=&quot;font-size: 14px&quot;&gt;Subject Pronouns&lt;/font&gt;&lt;br&gt;(Özne Zamirleri)&lt;/b&gt;" style="shape=partialRectangle;html=1;whiteSpace=wrap;connectable=0;fillColor=none;top=0;left=0;bottom=0;right=0;overflow=hidden;pointerEvents=1;" parent="LmJEm3d786BHCTWVKZAp-99" vertex="1">
          <mxGeometry width="190" height="87" as="geometry">
            <mxRectangle width="190" height="87" as="alternateBounds" />
          </mxGeometry>
        </mxCell>
        <mxCell id="LmJEm3d786BHCTWVKZAp-111" value="&lt;font style=&quot;font-size: 14px&quot;&gt;&lt;font color=&quot;#ff0000&quot; style=&quot;font-size: 14px&quot;&gt;&lt;b&gt;Object Pronouns&lt;/b&gt;&lt;br&gt;&lt;/font&gt;&lt;b&gt;(Nesne Zamirleri)&lt;/b&gt;&lt;/font&gt;" style="shape=partialRectangle;html=1;whiteSpace=wrap;connectable=0;fillColor=none;top=0;left=0;bottom=0;right=0;overflow=hidden;pointerEvents=1;" parent="LmJEm3d786BHCTWVKZAp-99" vertex="1">
          <mxGeometry x="190" width="190" height="87" as="geometry">
            <mxRectangle width="190" height="87" as="alternateBounds" />
          </mxGeometry>
        </mxCell>
        <mxCell id="LmJEm3d786BHCTWVKZAp-100" value="&lt;b style=&quot;font-size: 14px&quot;&gt;&lt;font color=&quot;#ff0000&quot; style=&quot;font-size: 14px&quot;&gt;Possessive Adjectives&lt;/font&gt;&lt;br&gt;(İyelik Sıfatları)&lt;/b&gt;" style="shape=partialRectangle;html=1;whiteSpace=wrap;connectable=0;fillColor=none;top=0;left=0;bottom=0;right=0;overflow=hidden;pointerEvents=1;" parent="LmJEm3d786BHCTWVKZAp-99" vertex="1">
          <mxGeometry x="380" width="190" height="87" as="geometry">
            <mxRectangle width="190" height="87" as="alternateBounds" />
          </mxGeometry>
        </mxCell>
        <mxCell id="LmJEm3d786BHCTWVKZAp-101" value="&lt;b style=&quot;font-size: 14px&quot;&gt;&lt;font color=&quot;#ff0000&quot; style=&quot;font-size: 14px&quot;&gt;Possessive Pronouns&lt;br&gt;&lt;/font&gt;(İyelik Zamirleri)&lt;/b&gt;" style="shape=partialRectangle;html=1;whiteSpace=wrap;connectable=0;fillColor=none;top=0;left=0;bottom=0;right=0;overflow=hidden;pointerEvents=1;" parent="LmJEm3d786BHCTWVKZAp-99" vertex="1">
          <mxGeometry x="570" width="190" height="87" as="geometry">
            <mxRectangle width="190" height="87" as="alternateBounds" />
          </mxGeometry>
        </mxCell>
        <mxCell id="LmJEm3d786BHCTWVKZAp-102" value="&lt;b style=&quot;font-size: 14px&quot;&gt;&lt;font color=&quot;#ff0000&quot; style=&quot;font-size: 14px&quot;&gt;Reflexive Pronouns&lt;br&gt;&lt;/font&gt;(Dönüşlülük Zamirleri)&lt;/b&gt;" style="shape=partialRectangle;html=1;whiteSpace=wrap;connectable=0;fillColor=none;top=0;left=0;bottom=0;right=0;overflow=hidden;pointerEvents=1;" parent="LmJEm3d786BHCTWVKZAp-99" vertex="1">
          <mxGeometry x="760" width="190" height="87" as="geometry">
            <mxRectangle width="190" height="87" as="alternateBounds" />
          </mxGeometry>
        </mxCell>
        <mxCell id="LmJEm3d786BHCTWVKZAp-103" value="" style="shape=partialRectangle;html=1;whiteSpace=wrap;collapsible=0;dropTarget=0;pointerEvents=0;fillColor=none;top=0;left=0;bottom=0;right=0;points=[[0,0.5],[1,0.5]];portConstraint=eastwest;" parent="LmJEm3d786BHCTWVKZAp-98" vertex="1">
          <mxGeometry y="87" width="950" height="77" as="geometry" />
        </mxCell>
        <mxCell id="LmJEm3d786BHCTWVKZAp-115" value="&lt;b style=&quot;font-size: 14px&quot;&gt;&lt;font color=&quot;#ff0000&quot; style=&quot;font-size: 14px&quot;&gt;I &lt;/font&gt;(ben)&lt;/b&gt;" style="shape=partialRectangle;html=1;whiteSpace=wrap;connectable=0;fillColor=none;top=0;left=0;bottom=0;right=0;overflow=hidden;pointerEvents=1;" parent="LmJEm3d786BHCTWVKZAp-103" vertex="1">
          <mxGeometry width="190" height="77" as="geometry">
            <mxRectangle width="190" height="77" as="alternateBounds" />
          </mxGeometry>
        </mxCell>
        <mxCell id="LmJEm3d786BHCTWVKZAp-112" value="&lt;b style=&quot;font-size: 14px&quot;&gt;&lt;font color=&quot;#ff0000&quot; style=&quot;font-size: 14px&quot;&gt;Me &lt;/font&gt;(beni/bana)&lt;/b&gt;" style="shape=partialRectangle;html=1;whiteSpace=wrap;connectable=0;fillColor=none;top=0;left=0;bottom=0;right=0;overflow=hidden;pointerEvents=1;" parent="LmJEm3d786BHCTWVKZAp-103" vertex="1">
          <mxGeometry x="190" width="190" height="77" as="geometry">
            <mxRectangle width="190" height="77" as="alternateBounds" />
          </mxGeometry>
        </mxCell>
        <mxCell id="LmJEm3d786BHCTWVKZAp-104" value="&lt;b style=&quot;font-size: 14px&quot;&gt;&lt;font color=&quot;#ff0000&quot; style=&quot;font-size: 14px&quot;&gt;My &lt;/font&gt;(benim)&lt;/b&gt;" style="shape=partialRectangle;html=1;whiteSpace=wrap;connectable=0;fillColor=none;top=0;left=0;bottom=0;right=0;overflow=hidden;pointerEvents=1;" parent="LmJEm3d786BHCTWVKZAp-103" vertex="1">
          <mxGeometry x="380" width="190" height="77" as="geometry">
            <mxRectangle width="190" height="77" as="alternateBounds" />
          </mxGeometry>
        </mxCell>
        <mxCell id="LmJEm3d786BHCTWVKZAp-105" value="&lt;b style=&quot;font-size: 14px&quot;&gt;&lt;font color=&quot;#ff0000&quot; style=&quot;font-size: 14px&quot;&gt;Mine &lt;/font&gt;(benimki)&lt;/b&gt;" style="shape=partialRectangle;html=1;whiteSpace=wrap;connectable=0;fillColor=none;top=0;left=0;bottom=0;right=0;overflow=hidden;pointerEvents=1;" parent="LmJEm3d786BHCTWVKZAp-103" vertex="1">
          <mxGeometry x="570" width="190" height="77" as="geometry">
            <mxRectangle width="190" height="77" as="alternateBounds" />
          </mxGeometry>
        </mxCell>
        <mxCell id="LmJEm3d786BHCTWVKZAp-106" value="&lt;b style=&quot;font-size: 14px&quot;&gt;&lt;font color=&quot;#ff0000&quot; style=&quot;font-size: 14px&quot;&gt;Myself &lt;/font&gt;(kendim)&lt;/b&gt;" style="shape=partialRectangle;html=1;whiteSpace=wrap;connectable=0;fillColor=none;top=0;left=0;bottom=0;right=0;overflow=hidden;pointerEvents=1;" parent="LmJEm3d786BHCTWVKZAp-103" vertex="1">
          <mxGeometry x="760" width="190" height="77" as="geometry">
            <mxRectangle width="190" height="77" as="alternateBounds" />
          </mxGeometry>
        </mxCell>
        <mxCell id="LmJEm3d786BHCTWVKZAp-107" value="" style="shape=partialRectangle;html=1;whiteSpace=wrap;collapsible=0;dropTarget=0;pointerEvents=0;fillColor=none;top=0;left=0;bottom=0;right=0;points=[[0,0.5],[1,0.5]];portConstraint=eastwest;" parent="LmJEm3d786BHCTWVKZAp-98" vertex="1">
          <mxGeometry y="164" width="950" height="72" as="geometry" />
        </mxCell>
        <mxCell id="LmJEm3d786BHCTWVKZAp-116" value="&lt;b style=&quot;font-size: 14px&quot;&gt;&lt;font color=&quot;#ff0000&quot;&gt;You &lt;/font&gt;(sen)&lt;br&gt;&lt;font color=&quot;#ff0000&quot;&gt;You &lt;/font&gt;(siz)&lt;/b&gt;" style="shape=partialRectangle;html=1;whiteSpace=wrap;connectable=0;fillColor=none;top=0;left=0;bottom=0;right=0;overflow=hidden;pointerEvents=1;" parent="LmJEm3d786BHCTWVKZAp-107" vertex="1">
          <mxGeometry width="190" height="72" as="geometry">
            <mxRectangle width="190" height="72" as="alternateBounds" />
          </mxGeometry>
        </mxCell>
        <mxCell id="LmJEm3d786BHCTWVKZAp-113" value="&lt;font style=&quot;font-size: 14px&quot;&gt;&lt;b&gt;&lt;font color=&quot;#ff0000&quot;&gt;You &lt;/font&gt;(seni/sana)&lt;br&gt;&lt;font color=&quot;#ff0000&quot;&gt;You &lt;/font&gt;(sizi/size)&lt;/b&gt;&lt;/font&gt;" style="shape=partialRectangle;html=1;whiteSpace=wrap;connectable=0;fillColor=none;top=0;left=0;bottom=0;right=0;overflow=hidden;pointerEvents=1;" parent="LmJEm3d786BHCTWVKZAp-107" vertex="1">
          <mxGeometry x="190" width="190" height="72" as="geometry">
            <mxRectangle width="190" height="72" as="alternateBounds" />
          </mxGeometry>
        </mxCell>
        <mxCell id="LmJEm3d786BHCTWVKZAp-108" value="&lt;font style=&quot;font-size: 14px&quot;&gt;&lt;b&gt;&lt;font color=&quot;#ff0000&quot;&gt;Your &lt;/font&gt;(senin)&lt;br&gt;&lt;font color=&quot;#ff0000&quot;&gt;Your &lt;/font&gt;(sizin)&lt;/b&gt;&lt;/font&gt;" style="shape=partialRectangle;html=1;whiteSpace=wrap;connectable=0;fillColor=none;top=0;left=0;bottom=0;right=0;overflow=hidden;pointerEvents=1;" parent="LmJEm3d786BHCTWVKZAp-107" vertex="1">
          <mxGeometry x="380" width="190" height="72" as="geometry">
            <mxRectangle width="190" height="72" as="alternateBounds" />
          </mxGeometry>
        </mxCell>
        <mxCell id="LmJEm3d786BHCTWVKZAp-109" value="&lt;b style=&quot;font-size: 14px&quot;&gt;&lt;font color=&quot;#ff0000&quot; style=&quot;font-size: 14px&quot;&gt;Yours &lt;/font&gt;(seninki)&lt;br&gt;&lt;font color=&quot;#ff0000&quot; style=&quot;font-size: 14px&quot;&gt;Yours &lt;/font&gt;(sizinki)&lt;/b&gt;" style="shape=partialRectangle;html=1;whiteSpace=wrap;connectable=0;fillColor=none;top=0;left=0;bottom=0;right=0;overflow=hidden;pointerEvents=1;" parent="LmJEm3d786BHCTWVKZAp-107" vertex="1">
          <mxGeometry x="570" width="190" height="72" as="geometry">
            <mxRectangle width="190" height="72" as="alternateBounds" />
          </mxGeometry>
        </mxCell>
        <mxCell id="LmJEm3d786BHCTWVKZAp-110" value="&lt;b style=&quot;font-size: 14px&quot;&gt;&lt;font color=&quot;#ff0000&quot; style=&quot;font-size: 14px&quot;&gt;Yourself &lt;/font&gt;(kendin)&lt;br&gt;&lt;font color=&quot;#ff0000&quot; style=&quot;font-size: 14px&quot;&gt;Yourselves &lt;/font&gt;(kendiniz)&lt;/b&gt;" style="shape=partialRectangle;html=1;whiteSpace=wrap;connectable=0;fillColor=none;top=0;left=0;bottom=0;right=0;overflow=hidden;pointerEvents=1;" parent="LmJEm3d786BHCTWVKZAp-107" vertex="1">
          <mxGeometry x="760" width="190" height="72" as="geometry">
            <mxRectangle width="190" height="72" as="alternateBounds" />
          </mxGeometry>
        </mxCell>
        <mxCell id="LmJEm3d786BHCTWVKZAp-117" style="shape=partialRectangle;html=1;whiteSpace=wrap;collapsible=0;dropTarget=0;pointerEvents=0;fillColor=none;top=0;left=0;bottom=0;right=0;points=[[0,0.5],[1,0.5]];portConstraint=eastwest;" parent="LmJEm3d786BHCTWVKZAp-98" vertex="1">
          <mxGeometry y="236" width="950" height="71" as="geometry" />
        </mxCell>
        <mxCell id="LmJEm3d786BHCTWVKZAp-118" value="&lt;b style=&quot;font-size: 14px&quot;&gt;&lt;font color=&quot;#ff0000&quot; style=&quot;font-size: 14px&quot;&gt;We&lt;/font&gt;&lt;font style=&quot;font-size: 14px&quot;&gt; &lt;/font&gt;&lt;font style=&quot;font-size: 14px&quot;&gt;(biz&lt;/font&gt;&lt;font style=&quot;font-size: 14px&quot;&gt;)&lt;/font&gt;&lt;/b&gt;" style="shape=partialRectangle;html=1;whiteSpace=wrap;connectable=0;fillColor=none;top=0;left=0;bottom=0;right=0;overflow=hidden;pointerEvents=1;" parent="LmJEm3d786BHCTWVKZAp-117" vertex="1">
          <mxGeometry width="190" height="71" as="geometry">
            <mxRectangle width="190" height="71" as="alternateBounds" />
          </mxGeometry>
        </mxCell>
        <mxCell id="LmJEm3d786BHCTWVKZAp-119" value="&lt;font style=&quot;font-size: 14px&quot;&gt;&lt;b&gt;&lt;font color=&quot;#ff0000&quot;&gt;Us &lt;/font&gt;(bizi/bize)&lt;/b&gt;&lt;/font&gt;" style="shape=partialRectangle;html=1;whiteSpace=wrap;connectable=0;fillColor=none;top=0;left=0;bottom=0;right=0;overflow=hidden;pointerEvents=1;" parent="LmJEm3d786BHCTWVKZAp-117" vertex="1">
          <mxGeometry x="190" width="190" height="71" as="geometry">
            <mxRectangle width="190" height="71" as="alternateBounds" />
          </mxGeometry>
        </mxCell>
        <mxCell id="LmJEm3d786BHCTWVKZAp-120" value="&lt;font style=&quot;font-size: 14px&quot;&gt;&lt;b&gt;&lt;font color=&quot;#ff0000&quot;&gt;Our &lt;/font&gt;(bizim)&lt;/b&gt;&lt;/font&gt;" style="shape=partialRectangle;html=1;whiteSpace=wrap;connectable=0;fillColor=none;top=0;left=0;bottom=0;right=0;overflow=hidden;pointerEvents=1;" parent="LmJEm3d786BHCTWVKZAp-117" vertex="1">
          <mxGeometry x="380" width="190" height="71" as="geometry">
            <mxRectangle width="190" height="71" as="alternateBounds" />
          </mxGeometry>
        </mxCell>
        <mxCell id="LmJEm3d786BHCTWVKZAp-121" value="&lt;b&gt;&lt;font style=&quot;font-size: 14px&quot;&gt;&lt;font color=&quot;#ff0000&quot;&gt;Ours &lt;/font&gt;(bizimki)&lt;/font&gt;&lt;/b&gt;" style="shape=partialRectangle;html=1;whiteSpace=wrap;connectable=0;fillColor=none;top=0;left=0;bottom=0;right=0;overflow=hidden;pointerEvents=1;" parent="LmJEm3d786BHCTWVKZAp-117" vertex="1">
          <mxGeometry x="570" width="190" height="71" as="geometry">
            <mxRectangle width="190" height="71" as="alternateBounds" />
          </mxGeometry>
        </mxCell>
        <mxCell id="LmJEm3d786BHCTWVKZAp-122" value="&lt;font style=&quot;font-size: 14px&quot;&gt;&lt;b&gt;&lt;font color=&quot;#ff0000&quot;&gt;Ourselves &lt;/font&gt;(kendimiz)&lt;/b&gt;&lt;/font&gt;" style="shape=partialRectangle;html=1;whiteSpace=wrap;connectable=0;fillColor=none;top=0;left=0;bottom=0;right=0;overflow=hidden;pointerEvents=1;" parent="LmJEm3d786BHCTWVKZAp-117" vertex="1">
          <mxGeometry x="760" width="190" height="71" as="geometry">
            <mxRectangle width="190" height="71" as="alternateBounds" />
          </mxGeometry>
        </mxCell>
        <mxCell id="LmJEm3d786BHCTWVKZAp-123" style="shape=partialRectangle;html=1;whiteSpace=wrap;collapsible=0;dropTarget=0;pointerEvents=0;fillColor=none;top=0;left=0;bottom=0;right=0;points=[[0,0.5],[1,0.5]];portConstraint=eastwest;" parent="LmJEm3d786BHCTWVKZAp-98" vertex="1">
          <mxGeometry y="307" width="950" height="74" as="geometry" />
        </mxCell>
        <mxCell id="LmJEm3d786BHCTWVKZAp-124" value="&lt;font style=&quot;font-size: 14px&quot;&gt;&lt;b&gt;&lt;font color=&quot;#ff0000&quot;&gt;They &lt;/font&gt;(onlar)&lt;/b&gt;&lt;/font&gt;" style="shape=partialRectangle;html=1;whiteSpace=wrap;connectable=0;fillColor=none;top=0;left=0;bottom=0;right=0;overflow=hidden;pointerEvents=1;" parent="LmJEm3d786BHCTWVKZAp-123" vertex="1">
          <mxGeometry width="190" height="74" as="geometry">
            <mxRectangle width="190" height="74" as="alternateBounds" />
          </mxGeometry>
        </mxCell>
        <mxCell id="LmJEm3d786BHCTWVKZAp-125" value="&lt;b&gt;&lt;font style=&quot;font-size: 14px&quot;&gt;&lt;font color=&quot;#ff0000&quot;&gt;Them &lt;/font&gt;(onları/onlara)&lt;/font&gt;&lt;/b&gt;" style="shape=partialRectangle;html=1;whiteSpace=wrap;connectable=0;fillColor=none;top=0;left=0;bottom=0;right=0;overflow=hidden;pointerEvents=1;" parent="LmJEm3d786BHCTWVKZAp-123" vertex="1">
          <mxGeometry x="190" width="190" height="74" as="geometry">
            <mxRectangle width="190" height="74" as="alternateBounds" />
          </mxGeometry>
        </mxCell>
        <mxCell id="LmJEm3d786BHCTWVKZAp-126" value="&lt;b&gt;&lt;font style=&quot;font-size: 14px&quot;&gt;&lt;font color=&quot;#ff0000&quot;&gt;Their &lt;/font&gt;(onların)&lt;/font&gt;&lt;/b&gt;" style="shape=partialRectangle;html=1;whiteSpace=wrap;connectable=0;fillColor=none;top=0;left=0;bottom=0;right=0;overflow=hidden;pointerEvents=1;" parent="LmJEm3d786BHCTWVKZAp-123" vertex="1">
          <mxGeometry x="380" width="190" height="74" as="geometry">
            <mxRectangle width="190" height="74" as="alternateBounds" />
          </mxGeometry>
        </mxCell>
        <mxCell id="LmJEm3d786BHCTWVKZAp-127" value="&lt;font style=&quot;font-size: 14px&quot;&gt;&lt;b&gt;&lt;font color=&quot;#ff0000&quot;&gt;Theirs &lt;/font&gt;(onlarınki)&lt;/b&gt;&lt;/font&gt;" style="shape=partialRectangle;html=1;whiteSpace=wrap;connectable=0;fillColor=none;top=0;left=0;bottom=0;right=0;overflow=hidden;pointerEvents=1;" parent="LmJEm3d786BHCTWVKZAp-123" vertex="1">
          <mxGeometry x="570" width="190" height="74" as="geometry">
            <mxRectangle width="190" height="74" as="alternateBounds" />
          </mxGeometry>
        </mxCell>
        <mxCell id="LmJEm3d786BHCTWVKZAp-128" value="&lt;font style=&quot;font-size: 14px&quot;&gt;&lt;b&gt;&lt;font color=&quot;#ff0000&quot;&gt;Themselves &lt;/font&gt;(kendileri)&lt;/b&gt;&lt;/font&gt;" style="shape=partialRectangle;html=1;whiteSpace=wrap;connectable=0;fillColor=none;top=0;left=0;bottom=0;right=0;overflow=hidden;pointerEvents=1;" parent="LmJEm3d786BHCTWVKZAp-123" vertex="1">
          <mxGeometry x="760" width="190" height="74" as="geometry">
            <mxRectangle width="190" height="74" as="alternateBounds" />
          </mxGeometry>
        </mxCell>
        <mxCell id="LmJEm3d786BHCTWVKZAp-129" style="shape=partialRectangle;html=1;whiteSpace=wrap;collapsible=0;dropTarget=0;pointerEvents=0;fillColor=none;top=0;left=0;bottom=0;right=0;points=[[0,0.5],[1,0.5]];portConstraint=eastwest;" parent="LmJEm3d786BHCTWVKZAp-98" vertex="1">
          <mxGeometry y="381" width="950" height="73" as="geometry" />
        </mxCell>
        <mxCell id="LmJEm3d786BHCTWVKZAp-130" value="&lt;font style=&quot;font-size: 14px&quot;&gt;&lt;b&gt;&lt;font color=&quot;#ff0000&quot;&gt;He &lt;/font&gt;(o) Erkek&lt;/b&gt;&lt;/font&gt;" style="shape=partialRectangle;html=1;whiteSpace=wrap;connectable=0;fillColor=none;top=0;left=0;bottom=0;right=0;overflow=hidden;pointerEvents=1;" parent="LmJEm3d786BHCTWVKZAp-129" vertex="1">
          <mxGeometry width="190" height="73" as="geometry">
            <mxRectangle width="190" height="73" as="alternateBounds" />
          </mxGeometry>
        </mxCell>
        <mxCell id="LmJEm3d786BHCTWVKZAp-131" value="&lt;b style=&quot;font-size: 14px&quot;&gt;&lt;font color=&quot;#ff0000&quot;&gt;Him&amp;nbsp;&lt;/font&gt;(onu/ona)&lt;/b&gt;" style="shape=partialRectangle;html=1;whiteSpace=wrap;connectable=0;fillColor=none;top=0;left=0;bottom=0;right=0;overflow=hidden;pointerEvents=1;" parent="LmJEm3d786BHCTWVKZAp-129" vertex="1">
          <mxGeometry x="190" width="190" height="73" as="geometry">
            <mxRectangle width="190" height="73" as="alternateBounds" />
          </mxGeometry>
        </mxCell>
        <mxCell id="LmJEm3d786BHCTWVKZAp-132" value="&lt;b style=&quot;font-size: 14px&quot;&gt;&lt;font color=&quot;#ff0000&quot;&gt;His&amp;nbsp;&lt;/font&gt;(onun)&lt;/b&gt;" style="shape=partialRectangle;html=1;whiteSpace=wrap;connectable=0;fillColor=none;top=0;left=0;bottom=0;right=0;overflow=hidden;pointerEvents=1;" parent="LmJEm3d786BHCTWVKZAp-129" vertex="1">
          <mxGeometry x="380" width="190" height="73" as="geometry">
            <mxRectangle width="190" height="73" as="alternateBounds" />
          </mxGeometry>
        </mxCell>
        <mxCell id="LmJEm3d786BHCTWVKZAp-133" value="&lt;b style=&quot;font-size: 14px&quot;&gt;&lt;font color=&quot;#ff0000&quot;&gt;His&amp;nbsp;&lt;/font&gt;(onunki)&lt;/b&gt;" style="shape=partialRectangle;html=1;whiteSpace=wrap;connectable=0;fillColor=none;top=0;left=0;bottom=0;right=0;overflow=hidden;pointerEvents=1;" parent="LmJEm3d786BHCTWVKZAp-129" vertex="1">
          <mxGeometry x="570" width="190" height="73" as="geometry">
            <mxRectangle width="190" height="73" as="alternateBounds" />
          </mxGeometry>
        </mxCell>
        <mxCell id="LmJEm3d786BHCTWVKZAp-134" value="&lt;b style=&quot;font-size: 14px&quot;&gt;&lt;font color=&quot;#ff0000&quot;&gt;Himself&amp;nbsp;&lt;/font&gt;(kendisi)&lt;/b&gt;" style="shape=partialRectangle;html=1;whiteSpace=wrap;connectable=0;fillColor=none;top=0;left=0;bottom=0;right=0;overflow=hidden;pointerEvents=1;" parent="LmJEm3d786BHCTWVKZAp-129" vertex="1">
          <mxGeometry x="760" width="190" height="73" as="geometry">
            <mxRectangle width="190" height="73" as="alternateBounds" />
          </mxGeometry>
        </mxCell>
        <mxCell id="LmJEm3d786BHCTWVKZAp-135" style="shape=partialRectangle;html=1;whiteSpace=wrap;collapsible=0;dropTarget=0;pointerEvents=0;fillColor=none;top=0;left=0;bottom=0;right=0;points=[[0,0.5],[1,0.5]];portConstraint=eastwest;" parent="LmJEm3d786BHCTWVKZAp-98" vertex="1">
          <mxGeometry y="454" width="950" height="73" as="geometry" />
        </mxCell>
        <mxCell id="LmJEm3d786BHCTWVKZAp-136" value="&lt;b style=&quot;font-size: 14px&quot;&gt;&lt;font color=&quot;#ff0000&quot;&gt;She&amp;nbsp;&lt;/font&gt;(o) Dişi&lt;/b&gt;" style="shape=partialRectangle;html=1;whiteSpace=wrap;connectable=0;fillColor=none;top=0;left=0;bottom=0;right=0;overflow=hidden;pointerEvents=1;" parent="LmJEm3d786BHCTWVKZAp-135" vertex="1">
          <mxGeometry width="190" height="73" as="geometry">
            <mxRectangle width="190" height="73" as="alternateBounds" />
          </mxGeometry>
        </mxCell>
        <mxCell id="LmJEm3d786BHCTWVKZAp-137" value="&lt;b style=&quot;font-size: 14px&quot;&gt;&lt;font color=&quot;#ff0000&quot;&gt;Her&amp;nbsp;&lt;/font&gt;(onu/ona)&lt;/b&gt;" style="shape=partialRectangle;html=1;whiteSpace=wrap;connectable=0;fillColor=none;top=0;left=0;bottom=0;right=0;overflow=hidden;pointerEvents=1;" parent="LmJEm3d786BHCTWVKZAp-135" vertex="1">
          <mxGeometry x="190" width="190" height="73" as="geometry">
            <mxRectangle width="190" height="73" as="alternateBounds" />
          </mxGeometry>
        </mxCell>
        <mxCell id="LmJEm3d786BHCTWVKZAp-138" value="&lt;b style=&quot;font-size: 14px&quot;&gt;&lt;font color=&quot;#ff0000&quot;&gt;Her&amp;nbsp;&lt;/font&gt;(onun)&lt;/b&gt;" style="shape=partialRectangle;html=1;whiteSpace=wrap;connectable=0;fillColor=none;top=0;left=0;bottom=0;right=0;overflow=hidden;pointerEvents=1;" parent="LmJEm3d786BHCTWVKZAp-135" vertex="1">
          <mxGeometry x="380" width="190" height="73" as="geometry">
            <mxRectangle width="190" height="73" as="alternateBounds" />
          </mxGeometry>
        </mxCell>
        <mxCell id="LmJEm3d786BHCTWVKZAp-139" value="&lt;b style=&quot;font-size: 14px&quot;&gt;&lt;font color=&quot;#ff0000&quot;&gt;Hers&amp;nbsp;&lt;/font&gt;(onunki)&lt;/b&gt;" style="shape=partialRectangle;html=1;whiteSpace=wrap;connectable=0;fillColor=none;top=0;left=0;bottom=0;right=0;overflow=hidden;pointerEvents=1;" parent="LmJEm3d786BHCTWVKZAp-135" vertex="1">
          <mxGeometry x="570" width="190" height="73" as="geometry">
            <mxRectangle width="190" height="73" as="alternateBounds" />
          </mxGeometry>
        </mxCell>
        <mxCell id="LmJEm3d786BHCTWVKZAp-140" value="&lt;b style=&quot;font-size: 14px&quot;&gt;&lt;font color=&quot;#ff0000&quot;&gt;Herself&amp;nbsp;&lt;/font&gt;(kendisi)&lt;/b&gt;" style="shape=partialRectangle;html=1;whiteSpace=wrap;connectable=0;fillColor=none;top=0;left=0;bottom=0;right=0;overflow=hidden;pointerEvents=1;" parent="LmJEm3d786BHCTWVKZAp-135" vertex="1">
          <mxGeometry x="760" width="190" height="73" as="geometry">
            <mxRectangle width="190" height="73" as="alternateBounds" />
          </mxGeometry>
        </mxCell>
        <mxCell id="LmJEm3d786BHCTWVKZAp-141" style="shape=partialRectangle;html=1;whiteSpace=wrap;collapsible=0;dropTarget=0;pointerEvents=0;fillColor=none;top=0;left=0;bottom=0;right=0;points=[[0,0.5],[1,0.5]];portConstraint=eastwest;" parent="LmJEm3d786BHCTWVKZAp-98" vertex="1">
          <mxGeometry y="527" width="950" height="73" as="geometry" />
        </mxCell>
        <mxCell id="LmJEm3d786BHCTWVKZAp-142" value="&lt;b style=&quot;font-size: 14px&quot;&gt;&lt;font color=&quot;#ff0000&quot;&gt;It&amp;nbsp;&lt;/font&gt;(o) &lt;/b&gt;&lt;span style=&quot;font-size: 14px&quot;&gt;&lt;b&gt;Cansız/Hayvan&lt;/b&gt;&lt;/span&gt;" style="shape=partialRectangle;html=1;whiteSpace=wrap;connectable=0;fillColor=none;top=0;left=0;bottom=0;right=0;overflow=hidden;pointerEvents=1;" parent="LmJEm3d786BHCTWVKZAp-141" vertex="1">
          <mxGeometry width="190" height="73" as="geometry">
            <mxRectangle width="190" height="73" as="alternateBounds" />
          </mxGeometry>
        </mxCell>
        <mxCell id="LmJEm3d786BHCTWVKZAp-143" value="&lt;b style=&quot;font-size: 14px&quot;&gt;&lt;font color=&quot;#ff0000&quot;&gt;It&amp;nbsp;&lt;/font&gt;(onu/ona)&lt;/b&gt;" style="shape=partialRectangle;html=1;whiteSpace=wrap;connectable=0;fillColor=none;top=0;left=0;bottom=0;right=0;overflow=hidden;pointerEvents=1;" parent="LmJEm3d786BHCTWVKZAp-141" vertex="1">
          <mxGeometry x="190" width="190" height="73" as="geometry">
            <mxRectangle width="190" height="73" as="alternateBounds" />
          </mxGeometry>
        </mxCell>
        <mxCell id="LmJEm3d786BHCTWVKZAp-144" value="&lt;b style=&quot;font-size: 14px&quot;&gt;&lt;font color=&quot;#ff0000&quot;&gt;Its&amp;nbsp;&lt;/font&gt;(onun)&lt;/b&gt;" style="shape=partialRectangle;html=1;whiteSpace=wrap;connectable=0;fillColor=none;top=0;left=0;bottom=0;right=0;overflow=hidden;pointerEvents=1;" parent="LmJEm3d786BHCTWVKZAp-141" vertex="1">
          <mxGeometry x="380" width="190" height="73" as="geometry">
            <mxRectangle width="190" height="73" as="alternateBounds" />
          </mxGeometry>
        </mxCell>
        <mxCell id="LmJEm3d786BHCTWVKZAp-145" value="&lt;b style=&quot;font-size: 14px&quot;&gt;&lt;font color=&quot;#ff0000&quot;&gt;Its&amp;nbsp;&lt;/font&gt;(onunki)&lt;/b&gt;" style="shape=partialRectangle;html=1;whiteSpace=wrap;connectable=0;fillColor=none;top=0;left=0;bottom=0;right=0;overflow=hidden;pointerEvents=1;" parent="LmJEm3d786BHCTWVKZAp-141" vertex="1">
          <mxGeometry x="570" width="190" height="73" as="geometry">
            <mxRectangle width="190" height="73" as="alternateBounds" />
          </mxGeometry>
        </mxCell>
        <mxCell id="LmJEm3d786BHCTWVKZAp-146" value="&lt;b style=&quot;font-size: 14px&quot;&gt;&lt;font color=&quot;#ff0000&quot;&gt;Itself&amp;nbsp;&lt;/font&gt;(kendisi)&lt;/b&gt;" style="shape=partialRectangle;html=1;whiteSpace=wrap;connectable=0;fillColor=none;top=0;left=0;bottom=0;right=0;overflow=hidden;pointerEvents=1;" parent="LmJEm3d786BHCTWVKZAp-141" vertex="1">
          <mxGeometry x="760" width="190" height="73" as="geometry">
            <mxRectangle width="190" height="73" as="alternateBounds" />
          </mxGeometry>
        </mxCell>
        <mxCell id="5v8WS3TBPtksHyDd65MQ-1" value="&lt;div style=&quot;text-align: left&quot;&gt;&lt;span style=&quot;font-size: 20px&quot;&gt;&lt;b&gt;&lt;font color=&quot;#ff0000&quot;&gt;a / an / the&amp;nbsp;&lt;/font&gt;(Belirli ve belirtsizlik&lt;/b&gt;&lt;/span&gt;&lt;b style=&quot;font-size: 20px&quot;&gt;)&lt;font color=&quot;#ff0000&quot;&gt;&amp;nbsp;&lt;/font&gt;&lt;/b&gt;&lt;/div&gt;&lt;div style=&quot;text-align: left&quot;&gt;&lt;b style=&quot;font-size: 20px&quot;&gt;&lt;font color=&quot;#ff0000&quot;&gt;&lt;br&gt;&lt;/font&gt;&lt;/b&gt;&lt;/div&gt;&lt;div style=&quot;text-align: left&quot;&gt;&lt;span style=&quot;font-size: 20px&quot;&gt;&lt;b&gt;&lt;font color=&quot;#ff0000&quot;&gt;İngilizcede nesne çoğul halde yazılmamışsa başında daima o nesneyi niteleyecek bir kelime olmalıdır.&lt;/font&gt;&lt;/b&gt;&lt;/span&gt;&lt;/div&gt;&lt;div style=&quot;text-align: left&quot;&gt;&lt;span style=&quot;font-size: 20px&quot;&gt;&lt;b&gt;Bunlar&lt;/b&gt;: &lt;b&gt;The/A/An/This/That/My/Your gibi&lt;/b&gt;&lt;/span&gt;&lt;/div&gt;&lt;div style=&quot;text-align: left&quot;&gt;&lt;span style=&quot;font-size: 20px&quot;&gt;&lt;b&gt;&lt;font color=&quot;#ff0000&quot;&gt;&lt;br&gt;&lt;/font&gt;&lt;/b&gt;&lt;/span&gt;&lt;/div&gt;&lt;font&gt;&lt;div style=&quot;text-align: left&quot;&gt;&lt;div style=&quot;font-size: 20px&quot;&gt;&lt;b style=&quot;color: rgb(255 , 0 , 0)&quot;&gt;the : &lt;/b&gt;Genellikle konuşan ve dinleyen kişinin bildiği şeylerde bahsederken kullanılır. Ek olarak özelleştirme yapmakta kullanılabilir.&lt;/div&gt;&lt;div style=&quot;font-size: 20px&quot;&gt;&lt;br&gt;&lt;/div&gt;&lt;div style=&quot;font-size: 20px&quot;&gt;&lt;b style=&quot;color: rgb(255 , 0 , 0)&quot;&gt;a /&amp;nbsp;&lt;/b&gt;&lt;b style=&quot;color: rgb(255 , 0 , 0)&quot;&gt;an : &lt;/b&gt;&lt;b&gt;Türkçe karşılığı &lt;font color=&quot;#ff0000&quot;&gt;bir &lt;/font&gt;dir ancak genellemede yaparkende kullanılır. Sadece sayılabılen nesnelerde kullanılır.&lt;/b&gt;&lt;/div&gt;&lt;div style=&quot;font-size: 20px&quot;&gt;&lt;b&gt;&lt;br&gt;&lt;/b&gt;&lt;/div&gt;&lt;div style=&quot;font-size: 20px&quot;&gt;&lt;b&gt;&lt;font color=&quot;#ff0000&quot;&gt;İngilizce okunuşuna &lt;/font&gt;göre isimin ilk harfi sessiz harfle başlıyorsa &lt;font color=&quot;#ff0000&quot;&gt;&#39;a&#39;&lt;/font&gt; sesli harfle başlıyorsada&amp;nbsp;&lt;font color=&quot;#ff0000&quot;&gt;&#39;an&#39;&lt;/font&gt; getirilir.&amp;nbsp;&amp;nbsp;&lt;/b&gt;&lt;/div&gt;&lt;div style=&quot;font-size: 20px&quot;&gt;&lt;b&gt;&lt;br&gt;&lt;/b&gt;&lt;/div&gt;&lt;div style=&quot;font-size: 20px&quot;&gt;&lt;b&gt;Sesli ve sessiz harf ayrımı nasıl yapılır ?&amp;nbsp;&amp;nbsp;&lt;/b&gt;&lt;/div&gt;&lt;div style=&quot;font-size: 20px&quot;&gt;&lt;b&gt;Harf sayısına göre&amp;nbsp;&lt;font color=&quot;#ff0000&quot;&gt;H&lt;/font&gt;&#39;yi &lt;font color=&quot;#ff0000&quot;&gt;HE &lt;/font&gt;diye okuruz iki harf varsa sessizdir,&amp;nbsp;&lt;font color=&quot;#ff0000&quot;&gt;A&lt;/font&gt;&#39;yı &lt;font color=&quot;#ff0000&quot;&gt;A &lt;/font&gt;diye okuruz tek harf varsa seslidir.&lt;/b&gt;&lt;br&gt;&lt;/div&gt;&lt;div style=&quot;font-size: 20px&quot;&gt;&lt;b&gt;&lt;br&gt;&lt;/b&gt;&lt;/div&gt;&lt;div style=&quot;font-size: 20px&quot;&gt;&lt;b&gt;&lt;font color=&quot;#ff0000&quot;&gt;A &lt;/font&gt;banana is yellow (Muz sarıdır) = &lt;font color=&quot;#ff0000&quot;&gt;bananas are yellow&amp;nbsp;&lt;/font&gt;&lt;/b&gt;&lt;b&gt;(Muz sarıdır) genelleme dir.&lt;/b&gt;&lt;/div&gt;&lt;div style=&quot;font-size: 20px&quot;&gt;&lt;b&gt;&lt;font color=&quot;#ff0000&quot;&gt;The &lt;/font&gt;banana is yellow&amp;nbsp;&lt;/b&gt;&lt;b&gt;(Muz sarıdır) - Bildiği muz sarı&lt;/b&gt;&lt;/div&gt;&lt;div style=&quot;font-size: 20px&quot;&gt;&lt;b&gt;a red (bir kırmızı)&lt;/b&gt;&lt;/div&gt;&lt;div style=&quot;font-size: 20px&quot;&gt;&lt;b&gt;&lt;br&gt;&lt;/b&gt;&lt;/div&gt;&lt;div style=&quot;font-size: 20px&quot;&gt;&lt;b&gt;&lt;strike&gt;&lt;font color=&quot;#ff0000&quot;&gt;an &lt;/font&gt;university&lt;/strike&gt;&amp;nbsp;yuniversity şeklinde okunduğu için başında&lt;font color=&quot;#ff0000&quot;&gt;&amp;nbsp;&#39;Y&#39;&amp;nbsp;&lt;/font&gt;sessizdir.&lt;/b&gt;&lt;/div&gt;&lt;div style=&quot;font-size: 20px&quot;&gt;&lt;b&gt;&lt;font color=&quot;#ff0000&quot;&gt;a &lt;/font&gt;university&lt;/b&gt;&lt;/div&gt;&lt;div style=&quot;font-size: 20px&quot;&gt;&lt;b&gt;&lt;font color=&quot;#ff0000&quot;&gt;a &lt;/font&gt;red&lt;/b&gt;&lt;br&gt;&lt;/div&gt;&lt;div style=&quot;font-size: 20px&quot;&gt;&lt;b&gt;&lt;br&gt;&lt;/b&gt;&lt;/div&gt;&lt;/div&gt;&lt;font&gt;&lt;div style=&quot;text-align: left&quot;&gt;&lt;span style=&quot;font-size: 20px&quot;&gt;&lt;font color=&quot;#ff0000&quot; style=&quot;text-align: center&quot;&gt;&lt;/font&gt;&lt;/span&gt;&lt;/div&gt;&lt;/font&gt;&lt;/font&gt;" style="text;html=1;strokeColor=none;fillColor=none;align=center;verticalAlign=middle;whiteSpace=wrap;rounded=0;" parent="1" vertex="1">
          <mxGeometry x="516.0000000000005" y="1152" width="840" height="660" as="geometry" />
        </mxCell>
        <mxCell id="IIUfoSgyW5VefkFEVSve-1" value="&lt;b style=&quot;color: rgb(255 , 0 , 0) ; font-size: 20px&quot;&gt;QUESTIONS WORDS&lt;/b&gt;&lt;br&gt;&lt;br&gt;&lt;div&gt;&lt;span style=&quot;font-size: 20px&quot;&gt;&lt;b&gt;Who &lt;font color=&quot;#ff0000&quot;&gt;= Kim&lt;/font&gt;&lt;/b&gt;&lt;/span&gt;&lt;/div&gt;&lt;div&gt;&lt;span style=&quot;font-size: 20px&quot;&gt;&lt;b&gt;What&lt;font color=&quot;#ff0000&quot;&gt; = Ne&lt;/font&gt;&lt;/b&gt;&lt;/span&gt;&lt;/div&gt;&lt;div&gt;&lt;span style=&quot;font-size: 20px&quot;&gt;&lt;b&gt;Where&lt;font color=&quot;#ff0000&quot;&gt; = Nerede, nereye&lt;/font&gt;&lt;/b&gt;&lt;/span&gt;&lt;/div&gt;&lt;div&gt;&lt;span style=&quot;font-size: 20px&quot;&gt;&lt;b&gt;Why &lt;font color=&quot;#ff0000&quot;&gt;= Niçin / Neden&lt;/font&gt;&lt;/b&gt;&lt;/span&gt;&lt;/div&gt;&lt;div&gt;&lt;span style=&quot;font-size: 20px&quot;&gt;&lt;b&gt;Whose &lt;font color=&quot;#ff0000&quot;&gt;= Kimin&lt;/font&gt;&lt;/b&gt;&lt;/span&gt;&lt;/div&gt;&lt;div&gt;&lt;span style=&quot;font-size: 20px&quot;&gt;&lt;b&gt;When&lt;font color=&quot;#ff0000&quot;&gt; = Ne zaman&lt;/font&gt;&lt;/b&gt;&lt;/span&gt;&lt;/div&gt;&lt;div&gt;&lt;span style=&quot;font-size: 20px&quot;&gt;&lt;b&gt;Which &lt;font color=&quot;#ff0000&quot;&gt;= Hangi&lt;/font&gt;&lt;/b&gt;&lt;/span&gt;&lt;/div&gt;&lt;div&gt;&lt;span style=&quot;font-size: 20px&quot;&gt;&lt;b&gt;How&lt;font color=&quot;#ff0000&quot;&gt; = Nasıl&lt;/font&gt;&lt;/b&gt;&lt;/span&gt;&lt;/div&gt;&lt;div style=&quot;color: rgb(255 , 0 , 0)&quot;&gt;&lt;span style=&quot;font-size: 20px&quot;&gt;&lt;b&gt;&lt;br&gt;&lt;/b&gt;&lt;/span&gt;&lt;/div&gt;&lt;div style=&quot;color: rgb(255 , 0 , 0)&quot;&gt;&lt;span style=&quot;font-size: 20px&quot;&gt;&lt;b&gt;&lt;br&gt;&lt;/b&gt;&lt;/span&gt;&lt;/div&gt;&lt;div&gt;&lt;span style=&quot;font-size: 20px&quot;&gt;&lt;b&gt;How + sıfat&lt;font color=&quot;#ff0000&quot;&gt; = (ne kadar)&lt;/font&gt;&lt;/b&gt;&lt;/span&gt;&lt;/div&gt;&lt;div&gt;&lt;span style=&quot;font-size: 20px&quot;&gt;&lt;b&gt;How long&lt;font color=&quot;#ff0000&quot;&gt; = ne kadar (zaman olarak ne kadar sürdüğü)&lt;/font&gt;&lt;/b&gt;&lt;/span&gt;&lt;/div&gt;&lt;div&gt;&lt;span style=&quot;font-size: 20px&quot;&gt;&lt;b&gt;How far&lt;font color=&quot;#ff0000&quot;&gt; = ne kadar uzaklık&lt;/font&gt;&lt;/b&gt;&lt;/span&gt;&lt;/div&gt;&lt;div&gt;&lt;span style=&quot;font-size: 20px&quot;&gt;&lt;b&gt;How often&lt;font color=&quot;#ff0000&quot;&gt; = ne kadar sıklıkla&lt;/font&gt;&lt;/b&gt;&lt;/span&gt;&lt;/div&gt;&lt;div&gt;&lt;span style=&quot;font-size: 20px&quot;&gt;&lt;b&gt;What time&lt;font color=&quot;#ff0000&quot;&gt; = Ne zaman / Saat kaçta&lt;/font&gt;&lt;/b&gt;&lt;/span&gt;&lt;/div&gt;" style="text;html=1;strokeColor=none;fillColor=none;align=left;verticalAlign=middle;whiteSpace=wrap;rounded=0;" parent="1" vertex="1">
          <mxGeometry x="120" y="1144" width="370" height="462.5" as="geometry" />
        </mxCell>
        <mxCell id="ndG-ttwBUPJkE8GrEMb8-3" value="&lt;font color=&quot;#ff0000&quot; style=&quot;font-size: 20px ; font-weight: bold&quot;&gt;Countable &lt;/font&gt;&lt;b style=&quot;font-size: 20px&quot;&gt;(Sayılabilen)&lt;/b&gt;&lt;font color=&quot;#ff0000&quot; style=&quot;font-size: 20px ; font-weight: bold&quot;&gt; / Uncountable &lt;/font&gt;&lt;b style=&quot;font-size: 20px&quot;&gt;(Sayılamayan)&lt;/b&gt;&lt;br&gt;&lt;b style=&quot;font-size: 20px&quot;&gt;Sayılamayanları bilirsek sayılabilenleri anlamış oluruz.&lt;/b&gt;&lt;br&gt;&lt;br&gt;&lt;span style=&quot;color: rgb(255 , 0 , 0) ; font-size: 20px ; font-weight: 700&quot;&gt;Uncountable &lt;/span&gt;&lt;span style=&quot;font-size: 20px ; font-weight: 700&quot;&gt;(S&lt;/span&gt;&lt;b style=&quot;font-size: 20px&quot;&gt;ayılamayanlar)&lt;br&gt;&lt;/b&gt;&lt;br&gt;&lt;b style=&quot;font-size: 20px&quot;&gt;1) Grup adlarında &lt;/b&gt;&lt;font color=&quot;#ff0000&quot; style=&quot;font-size: 20px ; font-weight: bold&quot;&gt;: fruit&lt;/font&gt;&lt;b style=&quot;font-size: 20px&quot;&gt;(meyve), &lt;/b&gt;&lt;font color=&quot;#ff0000&quot; style=&quot;font-size: 20px ; font-weight: bold&quot;&gt;luggage&lt;/font&gt;&lt;b style=&quot;font-size: 20px&quot;&gt;(valiz),&lt;/b&gt;&lt;br&gt;&lt;b style=&quot;font-size: 20px&quot;&gt;&amp;nbsp;&amp;nbsp;&lt;/b&gt;&lt;font color=&quot;#ff0000&quot; style=&quot;font-size: 20px ; font-weight: bold&quot;&gt;furniture&lt;/font&gt;&lt;b style=&quot;font-size: 20px&quot;&gt;(mobilya), &lt;/b&gt;&lt;font color=&quot;#ff0000&quot; style=&quot;font-size: 20px ; font-weight: bold&quot;&gt;traffic&lt;/font&gt;&lt;b style=&quot;font-size: 20px&quot;&gt;, &lt;/b&gt;&lt;font color=&quot;#ff0000&quot; style=&quot;font-size: 20px ; font-weight: bold&quot;&gt;vegetable&lt;/font&gt;&lt;b style=&quot;font-size: 20px&quot;&gt;(sebze), &lt;/b&gt;&lt;font color=&quot;#ff0000&quot; style=&quot;font-size: 20px ; font-weight: bold&quot;&gt;food&lt;/font&gt;&lt;br&gt;&lt;br&gt;&lt;b style=&quot;font-size: 20px&quot;&gt;2) Sıvılar : milk, water, jam, honey&lt;/b&gt;&lt;br&gt;&lt;br&gt;&lt;b style=&quot;font-size: 20px&quot;&gt;3) Küçük taneli şeyler: &lt;/b&gt;&lt;font color=&quot;#ff0000&quot; style=&quot;font-size: 20px ; font-weight: bold&quot;&gt;rice, salt, sugar, dust&lt;/font&gt;&lt;b style=&quot;font-size: 20px&quot;&gt;(toz)&lt;/b&gt;&lt;font color=&quot;#ff0000&quot; style=&quot;font-size: 20px ; font-weight: bold&quot;&gt;,&lt;/font&gt; &lt;font color=&quot;#ff0000&quot; style=&quot;font-size: 20px ; font-weight: bold&quot;&gt;hair&lt;br&gt;&lt;/font&gt;&lt;br&gt;&lt;b style=&quot;font-size: 20px&quot;&gt;4) Unlu mamüller: Bread, cake, pizza&lt;/b&gt;&lt;br&gt;&lt;br&gt;&lt;b style=&quot;font-size: 20px&quot;&gt;5) Süt ürünleri: &lt;/b&gt;&lt;font color=&quot;#ff0000&quot; style=&quot;font-size: 20px ; font-weight: bold&quot;&gt;butter, cheese, chocolate, ice-cream&lt;/font&gt;&lt;br&gt;&lt;br&gt;&lt;b style=&quot;font-size: 20px&quot;&gt;6) Soyut Şeyler: love&lt;/b&gt;&lt;br&gt;&lt;br&gt;&lt;b style=&quot;font-size: 20px&quot;&gt;7) Kavramlar: &lt;font color=&quot;#ff0000&quot;&gt;faith&lt;/font&gt; (inanç)&lt;/b&gt;&lt;br&gt;&lt;br&gt;&lt;b style=&quot;font-size: 20px&quot;&gt;8) Sporlar : &lt;font color=&quot;#ff0000&quot;&gt;football&lt;/font&gt;&lt;/b&gt;&lt;br&gt;&lt;br&gt;&lt;b style=&quot;font-size: 20px&quot;&gt;9) Gazlar : &lt;/b&gt;&lt;span style=&quot;font-size: 20px&quot;&gt;&lt;b&gt;&lt;font color=&quot;#ff0000&quot;&gt;oxiceny&lt;br&gt;&lt;/font&gt;&lt;br&gt;&lt;/b&gt;&lt;/span&gt;&lt;span style=&quot;color: rgb(255 , 0 , 0) ; font-size: 20px ; font-weight: 700&quot;&gt;Countable&amp;nbsp;&lt;/span&gt;&lt;span style=&quot;font-size: 20px ; font-weight: 700&quot;&gt;(Sayılabilenler&lt;/span&gt;&lt;b style=&quot;font-size: 20px&quot;&gt;)&lt;br&gt;A/AN &lt;br&gt;(belirsiz sayıda olanlarda &lt;font color=&quot;#ff0000&quot;&gt;olumlu &lt;/font&gt;cümlelerde &lt;font color=&quot;#ff0000&quot;&gt;some&lt;/font&gt;)&lt;br&gt;&lt;/b&gt;&lt;b style=&quot;font-size: 20px&quot;&gt;(belirsiz sayıda olanlarda &lt;font color=&quot;#ff0000&quot;&gt;olumsuz&lt;/font&gt; cümlelerde&amp;nbsp;&lt;font color=&quot;#ff0000&quot;&gt;any&lt;/font&gt;)&lt;br&gt;&lt;/b&gt;&lt;b style=&quot;font-size: 20px&quot;&gt;She has &lt;font color=&quot;#ff0000&quot;&gt;an &lt;/font&gt;apple.&lt;br&gt;She has &lt;font color=&quot;#ff0000&quot;&gt;four &lt;/font&gt;apples&lt;br&gt;She has &lt;font color=&quot;#ff0000&quot;&gt;some &lt;/font&gt;apples.&lt;br&gt;She doesn&#39;t have &lt;font color=&quot;#ff0000&quot;&gt;any &lt;/font&gt;apples.&lt;br&gt;&lt;/b&gt;" style="text;html=1;strokeColor=none;fillColor=none;align=left;verticalAlign=middle;whiteSpace=wrap;rounded=0;" parent="1" vertex="1">
          <mxGeometry x="1390" y="1152" width="590" height="700" as="geometry" />
        </mxCell>
        <mxCell id="ndG-ttwBUPJkE8GrEMb8-5" value="&lt;b style=&quot;font-size: 20px&quot;&gt;&lt;font color=&quot;#ff0000&quot;&gt;PLURAL NOUNS &lt;/font&gt;(Çoğul İsimler)&lt;br&gt;&lt;font color=&quot;#ff0000&quot;&gt;-ch, -sh, -s, -ss, -z ve -x&amp;nbsp;&lt;/font&gt;ile bitiyorsa:&amp;nbsp;&lt;font color=&quot;#ff0000&quot;&gt;-es&amp;nbsp;&lt;/font&gt;gelir&lt;br&gt;watch = watch&lt;font color=&quot;#ff0000&quot;&gt;es,&amp;nbsp;&lt;/font&gt;box =&lt;font color=&quot;#ff0000&quot;&gt;&amp;nbsp;&lt;/font&gt;box&lt;font color=&quot;#ff0000&quot;&gt;es&lt;/font&gt;&lt;br&gt;&lt;br&gt;&lt;font color=&quot;#ff0000&quot;&gt;sessiz harf + y&lt;/font&gt;&amp;nbsp;ile bitiyorsa : -y düşer, yerine&amp;nbsp;&lt;font color=&quot;#ff0000&quot;&gt;-ies&lt;/font&gt;&amp;nbsp;gelir&lt;br&gt;baby = bab&lt;font color=&quot;#ff0000&quot;&gt;ies&lt;/font&gt;, cherry = cherr&lt;font color=&quot;#ff0000&quot;&gt;ies&lt;br&gt;&lt;/font&gt;&lt;br&gt;-f veya -fe ile bitiyorsa :&amp;nbsp;&lt;font color=&quot;#ff0000&quot;&gt;-ves&lt;/font&gt;&amp;nbsp;gelir&lt;br&gt;knife =&amp;nbsp;&lt;font color=&quot;#ff0000&quot;&gt;knives,&amp;nbsp;&amp;nbsp;&lt;/font&gt;thief&lt;font color=&quot;#ff0000&quot;&gt;&amp;nbsp;= thieves&lt;br&gt;&lt;/font&gt;&lt;br&gt;sessiz harf + o ile bitiyorsa :&lt;font color=&quot;#ff0000&quot;&gt;&amp;nbsp;-es&lt;/font&gt;&amp;nbsp;gelir.&lt;br&gt;tomato = tomato&lt;font color=&quot;#ff0000&quot;&gt;es&lt;/font&gt;&lt;br&gt;potato = potato&lt;font color=&quot;#ff0000&quot;&gt;es&lt;/font&gt;&lt;/b&gt;&lt;span style=&quot;font-size: 20px&quot;&gt;&lt;b&gt;&lt;br&gt;&lt;/b&gt;&lt;/span&gt;" style="text;html=1;strokeColor=none;fillColor=none;align=left;verticalAlign=middle;whiteSpace=wrap;rounded=0;" parent="1" vertex="1">
          <mxGeometry x="129.42999999999984" y="1916" width="520" height="420" as="geometry" />
        </mxCell>
        <mxCell id="ndG-ttwBUPJkE8GrEMb8-6" value="" style="endArrow=none;html=1;strokeWidth=3;" parent="1" edge="1">
          <mxGeometry width="50" height="50" relative="1" as="geometry">
            <mxPoint x="97.36000000000013" y="1898" as="sourcePoint" />
            <mxPoint x="2050.49" y="1898" as="targetPoint" />
          </mxGeometry>
        </mxCell>
        <mxCell id="r6LS_nFiSrozbuKqO12e-3" value="" style="rounded=0;whiteSpace=wrap;html=1;fillColor=none;strokeWidth=2;" parent="1" vertex="1">
          <mxGeometry x="120" y="724" width="1980" height="180" as="geometry" />
        </mxCell>
        <mxCell id="rTVLDvPh4nRGKibG9UyX-6" value="&lt;font style=&quot;font-size: 28px; font-weight: bold;&quot;&gt;(+/-)&lt;/font&gt;&lt;font color=&quot;#ff66b3&quot; style=&quot;font-size: 28px; font-weight: bold;&quot;&gt; &lt;/font&gt;&lt;font style=&quot;font-size: 28px; font-weight: bold;&quot; color=&quot;#ff0000&quot;&gt;Subject + &lt;/font&gt;&lt;font style=&quot;font-size: 28px; font-weight: bold;&quot; color=&quot;#6600cc&quot;&gt;Auxiliary Verb&lt;/font&gt;&lt;b style=&quot;color: rgb(255, 0, 0); font-size: 28px;&quot;&gt; +&amp;nbsp;&lt;/b&gt;&lt;font style=&quot;font-size: 28px;&quot; color=&quot;#009900&quot;&gt;&lt;span style=&quot;font-size: 28px;&quot;&gt;&lt;b style=&quot;font-size: 28px;&quot;&gt;Adverbs&amp;nbsp;&lt;/b&gt;&lt;/span&gt;&lt;b style=&quot;font-size: 28px;&quot;&gt;of Frequency&amp;nbsp;&lt;/b&gt;&lt;/font&gt;&lt;b style=&quot;color: rgb(255, 0, 0); font-size: 28px;&quot;&gt;+ &lt;/b&gt;&lt;b style=&quot;font-size: 28px;&quot;&gt;&lt;font color=&quot;#cc00cc&quot; style=&quot;font-size: 28px;&quot;&gt;Verb &lt;/font&gt;&lt;/b&gt;&lt;b style=&quot;color: rgb(255, 0, 0); font-size: 28px;&quot;&gt;+ &lt;/b&gt;&lt;b style=&quot;font-size: 28px;&quot;&gt;&lt;font color=&quot;#666666&quot; style=&quot;font-size: 28px;&quot;&gt;OBJECT &lt;/font&gt;&lt;/b&gt;&lt;b style=&quot;color: rgb(255, 0, 0); font-size: 28px;&quot;&gt;+ &lt;/b&gt;&lt;b style=&quot;font-size: 28px;&quot;&gt;&lt;font color=&quot;#7ea6e0&quot; style=&quot;font-size: 28px;&quot;&gt;MANNER &lt;/font&gt;&lt;/b&gt;&lt;b style=&quot;color: rgb(255, 0, 0); font-size: 28px;&quot;&gt;+ &lt;/b&gt;&lt;b style=&quot;font-size: 28px;&quot;&gt;&lt;font color=&quot;#009999&quot; style=&quot;font-size: 28px;&quot;&gt;PLACE &lt;/font&gt;&lt;/b&gt;&lt;b style=&quot;color: rgb(255, 0, 0); font-size: 28px;&quot;&gt;+ &lt;/b&gt;&lt;b style=&quot;font-size: 28px;&quot;&gt;&lt;font color=&quot;#b5739d&quot; style=&quot;font-size: 28px;&quot;&gt;TIME&lt;/font&gt;&lt;/b&gt;" style="text;html=1;strokeColor=none;fillColor=none;align=center;verticalAlign=middle;whiteSpace=wrap;rounded=0;fontSize=28;" parent="1" vertex="1">
          <mxGeometry x="220" y="744" width="1430" height="65" as="geometry" />
        </mxCell>
        <mxCell id="rTVLDvPh4nRGKibG9UyX-11" value="&lt;font style=&quot;font-size: 28px; font-weight: bold;&quot;&gt;(?)&amp;nbsp;&lt;font style=&quot;border-color: var(--border-color); font-size: 28px;&quot; color=&quot;#ff66b3&quot;&gt;W-H&amp;nbsp;&lt;/font&gt;&lt;font style=&quot;border-color: var(--border-color); font-size: 28px;&quot; color=&quot;#ff0000&quot;&gt;+&lt;/font&gt;&amp;nbsp;(&lt;/font&gt;&lt;span style=&quot;color: rgb(102, 0, 204); font-size: 28px; font-weight: 700;&quot;&gt;Auxiliary Verb ||&amp;nbsp;&lt;/span&gt;&lt;font style=&quot;font-size: 28px; font-weight: bold;&quot; color=&quot;#ff0000&quot;&gt;Subject )&amp;nbsp;&lt;/font&gt;&lt;b style=&quot;color: rgb(255, 0, 0); font-size: 28px;&quot;&gt;+&amp;nbsp;&lt;/b&gt;&lt;font style=&quot;font-size: 28px;&quot; color=&quot;#009900&quot;&gt;&lt;span style=&quot;font-size: 28px;&quot;&gt;&lt;b style=&quot;font-size: 28px;&quot;&gt;Adverbs&amp;nbsp;&lt;/b&gt;&lt;/span&gt;&lt;b style=&quot;font-size: 28px;&quot;&gt;of Frequency&amp;nbsp;&lt;/b&gt;&lt;/font&gt;&lt;b style=&quot;color: rgb(255, 0, 0); font-size: 28px;&quot;&gt;+ &lt;/b&gt;&lt;b style=&quot;font-size: 28px;&quot;&gt;&lt;font color=&quot;#cc00cc&quot; style=&quot;font-size: 28px;&quot;&gt;Verb &lt;/font&gt;&lt;/b&gt;&lt;b style=&quot;color: rgb(255, 0, 0); font-size: 28px;&quot;&gt;+ &lt;/b&gt;&lt;b style=&quot;font-size: 28px;&quot;&gt;&lt;font color=&quot;#666666&quot; style=&quot;font-size: 28px;&quot;&gt;OBJECT &lt;/font&gt;&lt;/b&gt;&lt;b style=&quot;color: rgb(255, 0, 0); font-size: 28px;&quot;&gt;+ &lt;/b&gt;&lt;b style=&quot;font-size: 28px;&quot;&gt;&lt;font color=&quot;#7ea6e0&quot; style=&quot;font-size: 28px;&quot;&gt;MANNER &lt;/font&gt;&lt;/b&gt;&lt;b style=&quot;color: rgb(255, 0, 0); font-size: 28px;&quot;&gt;+ &lt;/b&gt;&lt;b style=&quot;font-size: 28px;&quot;&gt;&lt;font color=&quot;#009999&quot; style=&quot;font-size: 28px;&quot;&gt;PLACE &lt;/font&gt;&lt;/b&gt;&lt;b style=&quot;color: rgb(255, 0, 0); font-size: 28px;&quot;&gt;+ &lt;/b&gt;&lt;b style=&quot;font-size: 28px;&quot;&gt;&lt;font color=&quot;#b5739d&quot; style=&quot;font-size: 28px;&quot;&gt;TIME&lt;/font&gt;&lt;/b&gt;" style="text;html=1;strokeColor=none;fillColor=none;align=center;verticalAlign=middle;whiteSpace=wrap;rounded=0;fontSize=28;" parent="1" vertex="1">
          <mxGeometry x="220" y="809" width="1530" height="65" as="geometry" />
        </mxCell>
        <mxCell id="r6LS_nFiSrozbuKqO12e-4" value="" style="rounded=0;whiteSpace=wrap;html=1;fillColor=none;strokeWidth=2;" parent="1" vertex="1">
          <mxGeometry x="120" y="934" width="1980" height="180" as="geometry" />
        </mxCell>
        <mxCell id="rTVLDvPh4nRGKibG9UyX-8" value="&lt;font style=&quot;font-size: 28px; font-weight: bold;&quot; color=&quot;#ff0000&quot;&gt;Subject + &lt;/font&gt;&lt;font style=&quot;font-size: 28px; font-weight: bold;&quot; color=&quot;#6600cc&quot;&gt;Auxiliary Verb (will/had/have)&lt;/font&gt;&lt;b style=&quot;color: rgb(255, 0, 0); font-size: 28px;&quot;&gt; +&amp;nbsp;&lt;/b&gt;&lt;font style=&quot;font-size: 28px;&quot; color=&quot;#009900&quot;&gt;&lt;span style=&quot;font-size: 28px;&quot;&gt;&lt;b style=&quot;font-size: 28px;&quot;&gt;Adverbs&amp;nbsp;&lt;/b&gt;&lt;/span&gt;&lt;b style=&quot;font-size: 28px;&quot;&gt;of Frequency&amp;nbsp;&lt;/b&gt;&lt;/font&gt;&lt;b style=&quot;color: rgb(255, 0, 0); font-size: 28px;&quot;&gt;+&amp;nbsp;&lt;/b&gt;&lt;span style=&quot;color: rgb(102, 0, 204); font-size: 28px; font-weight: 700;&quot;&gt;Auxiliary Verb (be/been)&amp;nbsp;&lt;/span&gt;&lt;b style=&quot;border-color: var(--border-color); color: rgb(255, 0, 0); font-size: 28px;&quot;&gt;+&lt;/b&gt;&lt;b style=&quot;color: rgb(255, 0, 0); font-size: 28px;&quot;&gt;&amp;nbsp;&lt;/b&gt;&lt;b style=&quot;font-size: 28px;&quot;&gt;&lt;font color=&quot;#cc00cc&quot; style=&quot;font-size: 28px;&quot;&gt;Verb &lt;/font&gt;&lt;/b&gt;&lt;b style=&quot;color: rgb(255, 0, 0); font-size: 28px;&quot;&gt;+ &lt;/b&gt;&lt;b style=&quot;font-size: 28px;&quot;&gt;&lt;font color=&quot;#666666&quot; style=&quot;font-size: 28px;&quot;&gt;OBJECT &lt;/font&gt;&lt;/b&gt;&lt;b style=&quot;color: rgb(255, 0, 0); font-size: 28px;&quot;&gt;+ &lt;/b&gt;&lt;b style=&quot;font-size: 28px;&quot;&gt;&lt;font color=&quot;#7ea6e0&quot; style=&quot;font-size: 28px;&quot;&gt;MANNER &lt;/font&gt;&lt;/b&gt;&lt;b style=&quot;color: rgb(255, 0, 0); font-size: 28px;&quot;&gt;+ &lt;/b&gt;&lt;b style=&quot;font-size: 28px;&quot;&gt;&lt;font color=&quot;#009999&quot; style=&quot;font-size: 28px;&quot;&gt;PLACE &lt;/font&gt;&lt;/b&gt;&lt;b style=&quot;color: rgb(255, 0, 0); font-size: 28px;&quot;&gt;+ &lt;/b&gt;&lt;b style=&quot;font-size: 28px;&quot;&gt;&lt;font color=&quot;#b5739d&quot; style=&quot;font-size: 28px;&quot;&gt;TIME&lt;/font&gt;&lt;/b&gt;" style="text;html=1;strokeColor=none;fillColor=none;align=center;verticalAlign=middle;whiteSpace=wrap;rounded=0;fontSize=28;" parent="1" vertex="1">
          <mxGeometry x="139.8800000000001" y="949" width="1970.24" height="65" as="geometry" />
        </mxCell>
        <mxCell id="BDyW6aRVwWtfTpWpdAoj-1" value="&lt;font style=&quot;border-color: var(--border-color); font-size: 28px; font-weight: 700;&quot; color=&quot;#ff66b3&quot;&gt;W-H&amp;nbsp;&lt;/font&gt;&lt;font style=&quot;border-color: var(--border-color); font-size: 28px; font-weight: 700;&quot; color=&quot;#ff0000&quot;&gt;+&amp;nbsp;&lt;span style=&quot;color: rgb(102, 0, 204); font-size: 28px;&quot;&gt;Auxiliary Verb (will/had/have)&amp;nbsp;&lt;/span&gt;&lt;span style=&quot;border-color: var(--border-color); font-size: 28px;&quot;&gt;+&amp;nbsp;&lt;/span&gt;&lt;font style=&quot;border-color: var(--border-color); font-size: 28px;&quot; color=&quot;#ff0000&quot;&gt;Subject +&lt;/font&gt;&lt;/font&gt;&lt;b style=&quot;color: rgb(255, 0, 0); font-size: 28px;&quot;&gt;&amp;nbsp;&lt;/b&gt;&lt;font style=&quot;font-size: 28px;&quot; color=&quot;#009900&quot;&gt;&lt;span style=&quot;font-size: 28px;&quot;&gt;&lt;b style=&quot;font-size: 28px;&quot;&gt;Adverbs&amp;nbsp;&lt;/b&gt;&lt;/span&gt;&lt;b style=&quot;font-size: 28px;&quot;&gt;of Frequency&amp;nbsp;&lt;/b&gt;&lt;/font&gt;&lt;b style=&quot;color: rgb(255, 0, 0); font-size: 28px;&quot;&gt;+&amp;nbsp;&lt;/b&gt;&lt;span style=&quot;color: rgb(102, 0, 204); font-size: 28px; font-weight: 700;&quot;&gt;Auxiliary Verb (be/been)&amp;nbsp;&lt;/span&gt;&lt;b style=&quot;border-color: var(--border-color); color: rgb(255, 0, 0); font-size: 28px;&quot;&gt;+&lt;/b&gt;&lt;b style=&quot;color: rgb(255, 0, 0); font-size: 28px;&quot;&gt;&amp;nbsp;&lt;/b&gt;&lt;b style=&quot;font-size: 28px;&quot;&gt;&lt;font color=&quot;#cc00cc&quot; style=&quot;font-size: 28px;&quot;&gt;Verb &lt;/font&gt;&lt;/b&gt;&lt;b style=&quot;color: rgb(255, 0, 0); font-size: 28px;&quot;&gt;+ &lt;/b&gt;&lt;b style=&quot;font-size: 28px;&quot;&gt;&lt;font color=&quot;#666666&quot; style=&quot;font-size: 28px;&quot;&gt;OBJECT &lt;/font&gt;&lt;/b&gt;&lt;b style=&quot;color: rgb(255, 0, 0); font-size: 28px;&quot;&gt;+ &lt;/b&gt;&lt;b style=&quot;font-size: 28px;&quot;&gt;&lt;font color=&quot;#7ea6e0&quot; style=&quot;font-size: 28px;&quot;&gt;MANNER &lt;/font&gt;&lt;/b&gt;&lt;b style=&quot;color: rgb(255, 0, 0); font-size: 28px;&quot;&gt;+ &lt;/b&gt;&lt;b style=&quot;font-size: 28px;&quot;&gt;&lt;font color=&quot;#009999&quot; style=&quot;font-size: 28px;&quot;&gt;PLACE &lt;/font&gt;&lt;/b&gt;&lt;b style=&quot;color: rgb(255, 0, 0); font-size: 28px;&quot;&gt;+ &lt;/b&gt;&lt;b style=&quot;font-size: 28px;&quot;&gt;&lt;font color=&quot;#b5739d&quot; style=&quot;font-size: 28px;&quot;&gt;TIME&lt;/font&gt;&lt;/b&gt;" style="text;html=1;strokeColor=none;fillColor=none;align=center;verticalAlign=middle;whiteSpace=wrap;rounded=0;fontSize=28;" parent="1" vertex="1">
          <mxGeometry x="100" y="1022.75" width="2074.38" height="65" as="geometry" />
        </mxCell>
        <mxCell id="Gf_xU1wrTM8mgEE04bAe-11" value="&lt;b style=&quot;font-size: 20px&quot;&gt;&lt;font color=&quot;#ff0000&quot;&gt;Posessive &quot;s&quot; &amp;amp; &quot;of&quot; aitlik yapıları&lt;/font&gt;&lt;br&gt;&lt;/b&gt;&lt;b style=&quot;font-size: 20px&quot;&gt;Buradaki &#39;s&#39; takısı genellikle insan ve hayvanlara özgüdür bazen objelerede kullanabilmektedir.&lt;br&gt;&lt;font color=&quot;#ff0000&quot;&gt;&#39;s &lt;/font&gt;= nın / nün&lt;br&gt;&lt;/b&gt;&lt;span style=&quot;font-size: 20px&quot;&gt;&lt;b&gt;This is Ashley&lt;font color=&quot;#ff0000&quot;&gt;&#39;s&lt;/font&gt; house. (Bu ashley&#39;nin evi)&lt;br&gt;Sonu &lt;font color=&quot;#ff0000&quot;&gt;&#39;s&#39;&lt;/font&gt; ile biten bir kelime ise &lt;font color=&quot;#ff0000&quot;&gt;&#39; koyulur.&lt;/font&gt;&lt;br&gt;These are the girls&lt;font color=&quot;#ff0000&quot;&gt;&#39; &lt;/font&gt;bags. (Bunlar kızla&lt;font color=&quot;#ff0000&quot;&gt;rın&lt;/font&gt; çantaları)&lt;br&gt;&lt;br&gt;Cisimlerde ise&amp;nbsp;&lt;/b&gt;&lt;/span&gt;&lt;b style=&quot;border-color: var(--border-color); font-size: 20px;&quot;&gt;&quot;of&quot;&amp;nbsp;kullanılır.&lt;br&gt;&lt;/b&gt;&lt;span style=&quot;font-size: 20px&quot;&gt;&lt;b&gt;These are &lt;font color=&quot;#ff0000&quot;&gt;the names&lt;/font&gt; of &lt;font color=&quot;#ff0000&quot;&gt;the &lt;/font&gt;books&lt;br&gt;(Kitapların isimleri buradalar)&lt;br&gt;She is a friend &lt;font color=&quot;#ff0000&quot;&gt;of &lt;/font&gt;my sister&lt;font color=&quot;#ff0000&quot;&gt;&#39;s&amp;nbsp;&lt;br&gt;&lt;/font&gt;&lt;/b&gt;&lt;/span&gt;&lt;b style=&quot;border-color: var(--border-color); font-size: 20px;&quot;&gt;(O, kız kardeşimin arkadaşı)&lt;/b&gt;&lt;span style=&quot;font-size: 20px&quot;&gt;&lt;b&gt;&lt;br&gt;&lt;br&gt;&lt;/b&gt;&lt;/span&gt;" style="text;html=1;strokeColor=none;fillColor=none;align=left;verticalAlign=middle;whiteSpace=wrap;rounded=0;" parent="1" vertex="1">
          <mxGeometry x="129.42999999999984" y="2326" width="520" height="350" as="geometry" />
        </mxCell>
        <mxCell id="6NB27Jp0EbthDrMz32Os-4" value="" style="endArrow=none;html=1;strokeWidth=3;" parent="1" edge="1">
          <mxGeometry width="50" height="50" relative="1" as="geometry">
            <mxPoint x="96.66000000000076" y="2694" as="sourcePoint" />
            <mxPoint x="2049.79" y="2694" as="targetPoint" />
          </mxGeometry>
        </mxCell>
        <mxCell id="6NB27Jp0EbthDrMz32Os-20" value="" style="group" parent="1" vertex="1" connectable="0">
          <mxGeometry x="30" y="2718" width="1385.0699999999997" height="1732" as="geometry" />
        </mxCell>
        <mxCell id="50FBFDGJmkygeUbuWhPx-3" value="&lt;font color=&quot;#ff0000&quot;&gt;&lt;span style=&quot;font-size: 20px&quot;&gt;&lt;b&gt;Telling the time&lt;br&gt;&lt;/b&gt;&lt;/span&gt;&lt;br&gt;&lt;/font&gt;&lt;font&gt;&lt;b style=&quot;font-size: 20px&quot;&gt;it is +&lt;font color=&quot;#ff0000&quot; style=&quot;font-size: 20px&quot;&gt; minute &lt;/font&gt;+ &lt;font color=&quot;#ff0000&quot; style=&quot;font-size: 20px&quot;&gt;to/past&amp;nbsp;&lt;/font&gt;+ &lt;font color=&quot;#ff0000&quot; style=&quot;font-size: 20px&quot;&gt;hour&lt;/font&gt;&lt;/b&gt;&lt;b style=&quot;font-size: 20px&quot;&gt;&lt;font color=&quot;#ff0000&quot; style=&quot;font-size: 20px&quot;&gt;&lt;br&gt;&lt;/font&gt;&lt;font color=&quot;#ff0000&quot; style=&quot;font-size: 20px&quot;&gt;to &lt;/font&gt;= var (06:00 - 12:00)&lt;br&gt;&lt;/b&gt;&lt;b style=&quot;font-size: 20px&quot;&gt;&lt;font color=&quot;#ff0000&quot; style=&quot;font-size: 20px&quot;&gt;past&amp;nbsp;&lt;/font&gt;= geçiyor (12:00 - 06:00)&lt;br&gt;&lt;br&gt;&lt;/b&gt;&lt;b style=&quot;font-size: 20px&quot;&gt;&lt;font color=&quot;#ff0000&quot; style=&quot;font-size: 20px&quot;&gt;half &lt;/font&gt;= yarım /&amp;nbsp;&lt;font color=&quot;#ff0000&quot; style=&quot;font-size: 20px&quot;&gt;quarter &lt;/font&gt;= çeyrek&amp;nbsp;&lt;/b&gt;&lt;b style=&quot;font-size: 20px&quot;&gt;&lt;br&gt;&lt;font color=&quot;#ff0000&quot; style=&quot;font-size: 20px&quot;&gt;24:00&lt;/font&gt; = midnight (Gece Yarısı) /&amp;nbsp;&lt;font color=&quot;#ff0000&quot; style=&quot;font-size: 20px&quot;&gt;12:00&lt;/font&gt; = midday (Öğlen)&lt;br&gt;&lt;br&gt;it is four &lt;font color=&quot;#ff0000&quot; style=&quot;font-size: 20px&quot;&gt;o&#39;clock &lt;/font&gt;(&lt;font color=&quot;#ff0000&quot; style=&quot;font-size: 20px&quot;&gt;Saat 4&lt;/font&gt;) =&amp;nbsp;&lt;/b&gt;&lt;b style=&quot;font-size: 20px&quot;&gt;Sadece Tam saatlerde kullanılır&lt;/b&gt;&lt;b style=&quot;font-size: 20px&quot;&gt;&lt;br&gt;it is&lt;font color=&quot;#ff0000&quot; style=&quot;font-size: 20px&quot;&gt; half past &lt;/font&gt;ten &lt;font color=&quot;#ff0000&quot; style=&quot;font-size: 20px&quot;&gt;(10 buçuk) &lt;/font&gt;= Tüm buçuklarda bu şekildedir.&lt;br&gt;&lt;br&gt;&lt;/b&gt;&lt;b style=&quot;font-size: 20px&quot;&gt;It is quarter&amp;nbsp;&lt;font color=&quot;#ff0000&quot; style=&quot;font-size: 20px&quot;&gt;to&amp;nbsp;&lt;/font&gt;nine&lt;font color=&quot;#ff0000&quot; style=&quot;font-size: 20px&quot;&gt;&amp;nbsp;(9&#39;a çeyrek var)&lt;/font&gt;&lt;br&gt;It is quarter&amp;nbsp;&lt;font color=&quot;#ff0000&quot; style=&quot;font-size: 20px&quot;&gt;past&amp;nbsp;&lt;/font&gt;three&amp;nbsp;&lt;font color=&quot;#ff0000&quot; style=&quot;font-size: 20px&quot;&gt;(3&#39;e çeyrek geçiyor)&lt;/font&gt;&lt;/b&gt;&lt;b style=&quot;font-size: 20px&quot;&gt;&lt;br&gt;&lt;br&gt;Dakikalı söylemek için 5 in katlarıyla söylerken&lt;br&gt;it is ten &lt;font color=&quot;#ff0000&quot; style=&quot;font-size: 20px&quot;&gt;to &lt;/font&gt;seven &lt;font color=&quot;#ff0000&quot; style=&quot;font-size: 20px&quot;&gt;(7&#39;e 10 var)&lt;/font&gt;&lt;br&gt;&lt;/b&gt;&lt;b style=&quot;font-size: 20px&quot;&gt;it is fifteen&amp;nbsp;&lt;font color=&quot;#ff0000&quot; style=&quot;font-size: 20px&quot;&gt;past&amp;nbsp;&lt;/font&gt;two &lt;font color=&quot;#ff0000&quot; style=&quot;font-size: 20px&quot;&gt;(2&#39;yi 15 geçiyor)&lt;br&gt;&lt;/font&gt;&lt;br&gt;Dakikalı söylerken 5 in katları değilse &lt;font color=&quot;#ff0000&quot; style=&quot;font-size: 20px&quot;&gt;minutes kullanılır.&lt;/font&gt;&lt;br&gt;&lt;/b&gt;&lt;b style=&quot;font-size: 20px&quot;&gt;&lt;strike&gt;it is twelve&amp;nbsp;&lt;/strike&gt;&lt;font color=&quot;#ff0000&quot; style=&quot;font-size: 20px&quot;&gt;&lt;strike&gt;past&amp;nbsp;&lt;/strike&gt;&lt;/font&gt;&lt;strike&gt;two&amp;nbsp;&lt;/strike&gt;&lt;font color=&quot;#ff0000&quot; style=&quot;font-size: 20px&quot;&gt;&lt;strike&gt;(2&#39;yi 12 geçiyor)&lt;br&gt;&lt;/strike&gt;&lt;/font&gt;&lt;/b&gt;&lt;b style=&quot;font-size: 20px&quot;&gt;it is twelve &lt;font color=&quot;#ff0000&quot; style=&quot;font-size: 20px&quot;&gt;minutes &lt;/font&gt;past two&lt;br&gt;&lt;/b&gt;&lt;b style=&quot;font-size: 20px&quot;&gt;&lt;br&gt;What time is it ? &lt;font color=&quot;#ff0000&quot; style=&quot;font-size: 20px&quot;&gt;(saat kaç)&lt;/font&gt;&lt;br&gt;What is the time ?&amp;nbsp;&lt;/b&gt;&lt;b style=&quot;font-size: 20px&quot;&gt;&lt;font color=&quot;#ff0000&quot; style=&quot;font-size: 20px&quot;&gt;(saat kaç)&lt;/font&gt;&lt;br&gt;&lt;/b&gt;&lt;b style=&quot;font-size: 20px&quot;&gt;Excuse me, Could you tell me the time please ?&lt;br&gt;&lt;/b&gt;&lt;font&gt;&lt;font color=&quot;#ff0000&quot; style=&quot;font-size: 20px ; font-weight: bold&quot;&gt;(Affedersiniz, saati söyleyebilir misiniz lütfen ?)&lt;/font&gt;&lt;br&gt;&lt;font style=&quot;font-size: 20px&quot;&gt;&lt;b&gt;-----------------------------------------------------------------------------------------------&lt;/b&gt;&lt;/font&gt;&lt;br&gt;&lt;b style=&quot;font-size: 20px&quot;&gt;Düz bir şekilde saati söylemek&lt;br&gt;&lt;/b&gt;&lt;b style=&quot;color: rgb(255 , 0 , 0) ; font-size: 20px&quot;&gt;oh&amp;nbsp; = zero = sıfır anlamındadır&lt;/b&gt;&lt;span style=&quot;font-size: 20px&quot;&gt;&lt;b&gt;&lt;br&gt;&lt;/b&gt;&lt;/span&gt;&lt;br&gt;&lt;span style=&quot;font-size: 20px&quot;&gt;&lt;b&gt;it is four oh five&amp;nbsp;&lt;font color=&quot;#ff0000&quot;&gt;(dördü sıfır beş geçiyor)&lt;br&gt;&lt;/font&gt;&lt;/b&gt;&lt;/span&gt;&lt;b style=&quot;font-size: 20px&quot;&gt;it is six fifty&lt;font color=&quot;#ff0000&quot;&gt;(Saat altı elli)&lt;br&gt;&lt;/font&gt;&lt;/b&gt;&lt;br&gt;&lt;b style=&quot;color: rgb(255 , 0 , 0) ; font-size: 20px&quot;&gt;A.M =&amp;nbsp;&lt;/b&gt;&lt;b style=&quot;font-size: 20px&quot;&gt;&lt;font color=&quot;#ff0000&quot;&gt;ante meridiem&amp;nbsp;&lt;/font&gt;(&lt;/b&gt;&lt;span style=&quot;font-size: 20px&quot;&gt;&lt;b&gt;öğleden önce)&lt;br&gt;&lt;/b&gt;&lt;/span&gt;&lt;b style=&quot;color: rgb(255 , 0 , 0) ; font-size: 20px&quot;&gt;P.M =&amp;nbsp;&lt;/b&gt;&lt;font color=&quot;#ff0000&quot;&gt;&lt;span style=&quot;font-size: 20px&quot;&gt;&lt;b&gt;post meridiem&amp;nbsp;&lt;/b&gt;&lt;/span&gt;&lt;/font&gt;&lt;b style=&quot;font-size: 20px&quot;&gt;(&lt;/b&gt;&lt;span style=&quot;font-size: 20px&quot;&gt;&lt;b&gt;öğleden sonra)&lt;/b&gt;&lt;/span&gt;&lt;br&gt;&lt;br&gt;&lt;font&gt;&lt;b style=&quot;font-size: 20px&quot;&gt;Gece 12:00 &lt;/b&gt;&lt;font color=&quot;#ff0000&quot; style=&quot;font-size: 20px ; font-weight: bold&quot;&gt;-&amp;gt;&lt;/font&gt;&lt;b style=&quot;font-size: 20px&quot;&gt; Öğlen 12:00&lt;/b&gt;&lt;font color=&quot;#ff0000&quot; style=&quot;font-size: 20px ; font-weight: bold&quot;&gt; A.M&lt;/font&gt;&lt;b style=&quot;font-size: 20px&quot;&gt; | Öğlen 12:00 &lt;/b&gt;&lt;font color=&quot;#ff0000&quot; style=&quot;font-size: 20px ; font-weight: bold&quot;&gt;-&amp;gt;&lt;/font&gt;&lt;b style=&quot;font-size: 20px&quot;&gt; Gece 12:00 PM&lt;br&gt;&lt;/b&gt;&lt;br&gt;&lt;b style=&quot;font-size: 20px&quot;&gt;it is six A.M&amp;nbsp;&lt;font color=&quot;#ff0000&quot;&gt;(Öğlenden önce altı geçiyor)&lt;/font&gt;&lt;/b&gt;&lt;br&gt;&lt;span style=&quot;font-size: 20px&quot;&gt;&lt;b&gt;it is two twenty P.M &lt;font color=&quot;#ff0000&quot;&gt;(Öğlenden sonra iki 20 geçiyor)&lt;/font&gt;&lt;/b&gt;&lt;/span&gt;&lt;/font&gt;&lt;br&gt;&lt;/font&gt;&lt;/font&gt;" style="text;html=1;strokeColor=none;fillColor=none;align=center;verticalAlign=middle;whiteSpace=wrap;rounded=0;" parent="6NB27Jp0EbthDrMz32Os-20" vertex="1">
          <mxGeometry width="697.51" height="960" as="geometry" />
        </mxCell>
        <mxCell id="bnPpZ0Iu1les6ZT86aBP-1" value="" style="aspect=fixed;html=1;points=[];align=center;image;fontSize=12;image=https://raw.githubusercontent.com/muratcakmaksoftware/english-formula-diagrams/master/images/clocks/Saatler.gif;" parent="6NB27Jp0EbthDrMz32Os-20" vertex="1">
          <mxGeometry x="699" y="15" width="576" height="392" as="geometry" />
        </mxCell>
        <mxCell id="bnPpZ0Iu1les6ZT86aBP-3" value="" style="aspect=fixed;html=1;points=[];align=center;image;fontSize=12;image=https://raw.githubusercontent.com/muratcakmaksoftware/english-formula-diagrams/master/images/clocks/am-pm.png;" parent="6NB27Jp0EbthDrMz32Os-20" vertex="1">
          <mxGeometry x="685.0699999999997" y="430" width="700" height="280" as="geometry" />
        </mxCell>
        <mxCell id="bnPpZ0Iu1les6ZT86aBP-4" value="" style="aspect=fixed;html=1;points=[];align=center;image;fontSize=12;image=https://raw.githubusercontent.com/muratcakmaksoftware/english-formula-diagrams/master/images/clocks/24hour-clock.jpg;" parent="6NB27Jp0EbthDrMz32Os-20" vertex="1">
          <mxGeometry x="725.5700000000002" y="725" width="589" height="283" as="geometry" />
        </mxCell>
        <mxCell id="eqQ4riDk9iUmXU1k4VFo-1" value="&lt;div style=&quot;text-align: left&quot;&gt;&lt;span style=&quot;font-size: 20px&quot;&gt;&lt;b&gt;&lt;font color=&quot;#ff0000&quot;&gt;Seasons &lt;/font&gt;(Mevsimler)&lt;font color=&quot;#ff0000&quot;&gt;&amp;nbsp;&lt;/font&gt;&lt;/b&gt;&lt;/span&gt;&lt;/div&gt;&lt;div style=&quot;text-align: left&quot;&gt;&lt;span style=&quot;font-size: 20px&quot;&gt;&lt;b&gt;&lt;font color=&quot;#ff0000&quot;&gt;&lt;br&gt;&lt;/font&gt;&lt;/b&gt;&lt;/span&gt;&lt;/div&gt;&lt;font&gt;&lt;font style=&quot;font-size: 20px&quot;&gt;&lt;div style=&quot;text-align: left&quot;&gt;&lt;div&gt;&lt;font color=&quot;#ff0000&quot;&gt;&lt;b&gt;Spring:&lt;/b&gt;&lt;/font&gt;&amp;nbsp;İlkbahar&lt;/div&gt;&lt;div&gt;&lt;font color=&quot;#ff0000&quot;&gt;&lt;b&gt;Summer:&lt;/b&gt;&lt;/font&gt;&amp;nbsp;Yaz&lt;br&gt;&lt;/div&gt;&lt;div&gt;&lt;font color=&quot;#ff0000&quot;&gt;&lt;b&gt;Autumn/Fall:&lt;/b&gt;&lt;/font&gt;&amp;nbsp;Son bahar&lt;br&gt;&lt;/div&gt;&lt;div&gt;&lt;font color=&quot;#ff0000&quot;&gt;&lt;b&gt;Winter:&lt;/b&gt;&lt;/font&gt;&amp;nbsp;Kış&lt;br&gt;&lt;/div&gt;&lt;div&gt;&lt;br&gt;&lt;/div&gt;&lt;font color=&quot;#ff0000&quot; style=&quot;text-align: center&quot;&gt;&lt;/font&gt;&lt;/div&gt;&lt;/font&gt;&lt;/font&gt;" style="text;html=1;strokeColor=none;fillColor=none;align=center;verticalAlign=middle;whiteSpace=wrap;rounded=0;" parent="6NB27Jp0EbthDrMz32Os-20" vertex="1">
          <mxGeometry x="74.98999999999978" y="1095" width="300" height="200" as="geometry" />
        </mxCell>
        <mxCell id="eqQ4riDk9iUmXU1k4VFo-2" value="" style="aspect=fixed;html=1;points=[];align=center;image;fontSize=12;image=https://raw.githubusercontent.com/muratcakmaksoftware/english-formula-diagrams/master/images/seasons%20and%20months/sam.png;" parent="6NB27Jp0EbthDrMz32Os-20" vertex="1">
          <mxGeometry x="696.2299999999996" y="1075" width="612" height="657" as="geometry" />
        </mxCell>
        <mxCell id="eqQ4riDk9iUmXU1k4VFo-4" value="&lt;div style=&quot;text-align: left&quot;&gt;&lt;span style=&quot;font-size: 20px&quot;&gt;&lt;b&gt;&lt;font color=&quot;#ff0000&quot;&gt;Days&amp;nbsp;&lt;/font&gt;(Günler)&lt;font color=&quot;#ff0000&quot;&gt;&amp;nbsp;&lt;/font&gt;&lt;/b&gt;&lt;/span&gt;&lt;/div&gt;&lt;div style=&quot;text-align: left&quot;&gt;&lt;span style=&quot;font-size: 20px&quot;&gt;&lt;b&gt;&lt;font color=&quot;#ff0000&quot;&gt;&lt;br&gt;&lt;/font&gt;&lt;/b&gt;&lt;/span&gt;&lt;/div&gt;&lt;font&gt;&lt;div style=&quot;text-align: left&quot;&gt;&lt;div style=&quot;font-size: 20px&quot;&gt;&lt;font color=&quot;#ff0000&quot;&gt;&lt;b&gt;Sunday:&lt;/b&gt;&lt;/font&gt;&amp;nbsp;Pazar&lt;/div&gt;&lt;/div&gt;&lt;font&gt;&lt;div style=&quot;text-align: left&quot;&gt;&lt;div style=&quot;font-size: 20px&quot;&gt;&lt;font color=&quot;#ff0000&quot;&gt;&lt;b&gt;Monday:&lt;/b&gt;&lt;/font&gt;&amp;nbsp;Pazartesi&lt;br&gt;&lt;/div&gt;&lt;div style=&quot;font-size: 20px&quot;&gt;&lt;font color=&quot;#ff0000&quot;&gt;&lt;b&gt;Tueasday:&lt;/b&gt;&lt;/font&gt;&amp;nbsp;Salı&lt;br&gt;&lt;/div&gt;&lt;div&gt;&lt;span style=&quot;font-size: 20px&quot;&gt;&lt;font color=&quot;#ff0000&quot;&gt;&lt;b&gt;Wednesday&lt;/b&gt;&lt;/font&gt;&lt;/span&gt;&lt;font color=&quot;#ff0000&quot; style=&quot;font-size: 20px&quot;&gt;&lt;b&gt;:&lt;/b&gt;&lt;/font&gt;&lt;span style=&quot;font-size: 20px&quot;&gt;&amp;nbsp;Çarşamba&lt;/span&gt;&lt;br&gt;&lt;/div&gt;&lt;div&gt;&lt;span style=&quot;font-size: 20px&quot;&gt;&lt;font color=&quot;#ff0000&quot;&gt;&lt;b&gt;Thursday&lt;/b&gt;&lt;/font&gt;&lt;/span&gt;&lt;font color=&quot;#ff0000&quot; style=&quot;font-size: 20px&quot;&gt;&lt;b&gt;:&lt;/b&gt;&lt;/font&gt;&lt;span style=&quot;font-size: 20px&quot;&gt;&amp;nbsp;Perşembe&lt;/span&gt;&lt;span style=&quot;font-size: 20px&quot;&gt;&lt;br&gt;&lt;/span&gt;&lt;/div&gt;&lt;div&gt;&lt;span style=&quot;font-size: 20px&quot;&gt;&lt;font color=&quot;#ff0000&quot;&gt;&lt;b&gt;Friday&lt;/b&gt;&lt;/font&gt;&lt;/span&gt;&lt;font color=&quot;#ff0000&quot; style=&quot;font-size: 20px&quot;&gt;&lt;b&gt;:&lt;/b&gt;&lt;/font&gt;&lt;span style=&quot;font-size: 20px&quot;&gt;&amp;nbsp;Cuma&lt;/span&gt;&lt;span style=&quot;font-size: 20px&quot;&gt;&lt;br&gt;&lt;/span&gt;&lt;/div&gt;&lt;div&gt;&lt;span style=&quot;font-size: 20px&quot;&gt;&lt;font color=&quot;#ff0000&quot;&gt;&lt;b&gt;Saturday&lt;/b&gt;&lt;/font&gt;&lt;/span&gt;&lt;font color=&quot;#ff0000&quot; style=&quot;font-size: 20px&quot;&gt;&lt;b&gt;:&lt;/b&gt;&lt;/font&gt;&lt;span style=&quot;font-size: 20px&quot;&gt;&amp;nbsp;Cumartesi&lt;/span&gt;&lt;br&gt;&lt;/div&gt;&lt;span style=&quot;font-size: 20px&quot;&gt;&lt;font color=&quot;#ff0000&quot; style=&quot;text-align: center&quot;&gt;&lt;/font&gt;&lt;/span&gt;&lt;/div&gt;&lt;/font&gt;&lt;/font&gt;" style="text;html=1;strokeColor=none;fillColor=none;align=center;verticalAlign=middle;whiteSpace=wrap;rounded=0;" parent="6NB27Jp0EbthDrMz32Os-20" vertex="1">
          <mxGeometry x="74.98999999999978" y="1280" width="300" height="240" as="geometry" />
        </mxCell>
        <mxCell id="eqQ4riDk9iUmXU1k4VFo-5" value="&lt;div style=&quot;text-align: left&quot;&gt;&lt;div style=&quot;font-size: 20px&quot;&gt;&lt;b&gt;&lt;font color=&quot;#ff0000&quot;&gt;Months&amp;nbsp;&lt;/font&gt;(Aylar)&lt;/b&gt;&lt;/div&gt;&lt;div style=&quot;font-size: 20px&quot;&gt;&lt;b&gt;&lt;br&gt;&lt;/b&gt;&lt;/div&gt;&lt;div style=&quot;font-size: 20px&quot;&gt;&lt;font color=&quot;#ff0000&quot;&gt;&lt;b&gt;1) January:&lt;/b&gt;&lt;/font&gt;&amp;nbsp;Ocak&lt;br&gt;&lt;/div&gt;&lt;div style=&quot;font-size: 20px&quot;&gt;&lt;font color=&quot;#ff0000&quot;&gt;&lt;b&gt;2) February:&lt;/b&gt;&lt;/font&gt;&amp;nbsp;Şubat&lt;br&gt;&lt;/div&gt;&lt;div style=&quot;font-size: 20px&quot;&gt;&lt;font color=&quot;#ff0000&quot;&gt;&lt;b&gt;3) March:&lt;/b&gt;&lt;/font&gt;&amp;nbsp;Mart&lt;/div&gt;&lt;div style=&quot;font-size: 20px&quot;&gt;&lt;font color=&quot;#ff0000&quot;&gt;&lt;b&gt;4) April:&lt;/b&gt;&lt;/font&gt;&amp;nbsp;Nisan&lt;br&gt;&lt;/div&gt;&lt;div style=&quot;font-size: 20px&quot;&gt;&lt;font color=&quot;#ff0000&quot;&gt;&lt;b&gt;5) May:&lt;/b&gt;&lt;/font&gt;&amp;nbsp;Mayıs&lt;br&gt;&lt;/div&gt;&lt;div style=&quot;font-size: 20px&quot;&gt;&lt;font color=&quot;#ff0000&quot;&gt;&lt;b&gt;6) June:&lt;/b&gt;&lt;/font&gt;&amp;nbsp;Haziran&lt;br&gt;&lt;/div&gt;&lt;div style=&quot;font-size: 20px&quot;&gt;&lt;font color=&quot;#ff0000&quot;&gt;&lt;b&gt;7) July:&lt;/b&gt;&lt;/font&gt;&amp;nbsp;Temmuz&lt;br&gt;&lt;/div&gt;&lt;div style=&quot;font-size: 20px&quot;&gt;&lt;font color=&quot;#ff0000&quot;&gt;&lt;b&gt;8) August:&lt;/b&gt;&lt;/font&gt;&amp;nbsp;Ağustos&lt;br&gt;&lt;/div&gt;&lt;div style=&quot;font-size: 20px&quot;&gt;&lt;font color=&quot;#ff0000&quot;&gt;&lt;b&gt;9) September:&lt;/b&gt;&lt;/font&gt;&amp;nbsp;Eylül&lt;/div&gt;&lt;div style=&quot;font-size: 20px&quot;&gt;&lt;font color=&quot;#ff0000&quot;&gt;&lt;b&gt;10) October:&lt;/b&gt;&lt;/font&gt;&amp;nbsp;Ekim&lt;br&gt;&lt;/div&gt;&lt;div style=&quot;font-size: 20px&quot;&gt;&lt;font color=&quot;#ff0000&quot;&gt;&lt;b&gt;11) November:&lt;/b&gt;&lt;/font&gt;&amp;nbsp;Kasım&lt;br&gt;&lt;/div&gt;&lt;div style=&quot;font-size: 20px&quot;&gt;&lt;font color=&quot;#ff0000&quot;&gt;&lt;b&gt;12) December:&lt;/b&gt;&lt;/font&gt;&amp;nbsp;Aralık&lt;/div&gt;&lt;/div&gt;&lt;font&gt;&lt;font&gt;&lt;div style=&quot;text-align: left&quot;&gt;&lt;span style=&quot;font-size: 20px&quot;&gt;&lt;font color=&quot;#ff0000&quot; style=&quot;text-align: center&quot;&gt;&lt;/font&gt;&lt;/span&gt;&lt;/div&gt;&lt;/font&gt;&lt;/font&gt;" style="text;html=1;strokeColor=none;fillColor=none;align=center;verticalAlign=middle;whiteSpace=wrap;rounded=0;" parent="6NB27Jp0EbthDrMz32Os-20" vertex="1">
          <mxGeometry x="334.9899999999998" y="1085" width="300" height="380" as="geometry" />
        </mxCell>
        <mxCell id="eqQ4riDk9iUmXU1k4VFo-6" value="&lt;div style=&quot;text-align: left;&quot;&gt;&lt;span style=&quot;font-size: 20px&quot;&gt;&lt;b&gt;&lt;font color=&quot;#ff0000&quot;&gt;What day is today ? &lt;/font&gt;(Bugün günlerden ne ?)&lt;/b&gt;&lt;/span&gt;&lt;/div&gt;&lt;b style=&quot;font-size: 20px&quot;&gt;&lt;div style=&quot;text-align: left;&quot;&gt;&lt;b style=&quot;background-color: initial;&quot;&gt;&lt;font color=&quot;#ff0000&quot;&gt;What day is tomorrow ?&amp;nbsp;&lt;/font&gt;(Yarın günlerden ne ?)&lt;/b&gt;&lt;/div&gt;&lt;/b&gt;&lt;b style=&quot;font-size: 20px&quot;&gt;&lt;div style=&quot;text-align: left;&quot;&gt;&lt;b style=&quot;background-color: initial;&quot;&gt;&lt;font color=&quot;#ff0000&quot;&gt;Which season is it now ?&amp;nbsp;&amp;nbsp;&lt;/font&gt;(Şu an hangi mevsimdeyiz ?)&lt;/b&gt;&lt;/div&gt;&lt;/b&gt;&lt;font&gt;&lt;font&gt;&lt;div style=&quot;text-align: left&quot;&gt;&lt;span style=&quot;font-size: 20px&quot;&gt;&lt;font color=&quot;#ff0000&quot; style=&quot;text-align: center&quot;&gt;&lt;/font&gt;&lt;/span&gt;&lt;/div&gt;&lt;/font&gt;&lt;/font&gt;" style="text;html=1;strokeColor=none;fillColor=none;align=center;verticalAlign=middle;whiteSpace=wrap;rounded=0;" parent="6NB27Jp0EbthDrMz32Os-20" vertex="1">
          <mxGeometry x="104.98999999999978" y="1541" width="530" height="120" as="geometry" />
        </mxCell>
        <mxCell id="dVDe4LjacksWvaDv83Py-2" value="&lt;div style=&quot;text-align: left&quot;&gt;&lt;font color=&quot;#ff0000&quot;&gt;&lt;span style=&quot;font-size: 20px;&quot;&gt;&lt;b&gt;Conjunctions&lt;/b&gt;&lt;/span&gt;&lt;/font&gt;&lt;/div&gt;&lt;div style=&quot;text-align: left&quot;&gt;&lt;font color=&quot;#ff0000&quot;&gt;&lt;span style=&quot;font-size: 20px;&quot;&gt;&lt;b&gt;&lt;br&gt;&lt;/b&gt;&lt;/span&gt;&lt;/font&gt;&lt;/div&gt;&lt;div style=&quot;text-align: left&quot;&gt;&lt;span style=&quot;font-size: 20px;&quot;&gt;&lt;b style=&quot;&quot;&gt;&lt;font color=&quot;#ff0000&quot;&gt;When &lt;/font&gt;(-geldiğinde -gittiğinde -gelince -gidince -ince Ne zaman)&lt;br&gt;when i entered the class. (ben sınıfa girdiğimde.)&lt;/b&gt;&lt;/span&gt;&lt;/div&gt;&lt;div style=&quot;text-align: left&quot;&gt;&lt;span style=&quot;font-size: 20px;&quot;&gt;&lt;b style=&quot;&quot;&gt;I am going to buy a car &lt;font color=&quot;#ff0000&quot;&gt;when &lt;/font&gt;I collect enough money.&lt;br&gt;(Yeterli para topla&lt;font color=&quot;#ff0000&quot;&gt;dığımda&lt;/font&gt; bir araba alacağım.)&lt;br&gt;&lt;br&gt;&lt;/b&gt;&lt;/span&gt;&lt;/div&gt;&lt;div style=&quot;text-align: left&quot;&gt;&lt;span style=&quot;font-size: 20px;&quot;&gt;&lt;b&gt;&lt;font color=&quot;#ff0000&quot;&gt;While &lt;/font&gt;(-iken Devam eden)&lt;/b&gt;&lt;/span&gt;&lt;/div&gt;&lt;div style=&quot;text-align: left&quot;&gt;&lt;span style=&quot;font-size: 20px;&quot;&gt;&lt;b&gt;&lt;font color=&quot;#ff0000&quot;&gt;while &lt;/font&gt;we were watching the movie. (Biz filmi izlerken)&lt;/b&gt;&lt;/span&gt;&lt;/div&gt;&lt;div style=&quot;text-align: left&quot;&gt;&lt;span style=&quot;font-size: 20px;&quot;&gt;&lt;b&gt;&lt;br&gt;&lt;/b&gt;&lt;/span&gt;&lt;/div&gt;&lt;div style=&quot;text-align: left&quot;&gt;&lt;span style=&quot;font-size: 20px;&quot;&gt;&lt;b&gt;&lt;font color=&quot;#ff0000&quot;&gt;As &lt;/font&gt;(-iken Devam eden -&amp;gt; while ile aynıdır)&amp;nbsp;&lt;br&gt;&lt;font color=&quot;#ff0000&quot;&gt;As &lt;/font&gt;I was doing the ironing (ben ütü yaparken)&lt;br&gt;He had a hearth attack &lt;font color=&quot;#ff0000&quot;&gt;as &lt;/font&gt;he was running&lt;/b&gt;&lt;/span&gt;&lt;/div&gt;&lt;div style=&quot;text-align: left&quot;&gt;&lt;span style=&quot;font-size: 20px;&quot;&gt;&lt;b&gt;(Koşar&lt;font color=&quot;#ff0000&quot;&gt;ken &lt;/font&gt;kalp krizi geçirdi)&lt;br&gt;&lt;br&gt;&lt;/b&gt;&lt;/span&gt;&lt;/div&gt;&lt;div style=&quot;text-align: left&quot;&gt;&lt;span style=&quot;font-size: 20px;&quot;&gt;&lt;b style=&quot;&quot;&gt;&lt;font color=&quot;#ff0000&quot;&gt;Just As&lt;/font&gt; (Devam eden tam o ısrada vurgulama)&lt;/b&gt;&lt;/span&gt;&lt;/div&gt;&lt;div style=&quot;text-align: left&quot;&gt;&lt;span style=&quot;font-size: 20px;&quot;&gt;&lt;b style=&quot;&quot;&gt;&lt;font color=&quot;#ff0000&quot;&gt;Just as&lt;/font&gt; I was doing closing the front door. &lt;br&gt;(&lt;font color=&quot;#ff0000&quot;&gt;Tam dış&lt;/font&gt; kapıyı &lt;font color=&quot;#ff0000&quot;&gt;kapatırken&lt;/font&gt;)&lt;br&gt;&lt;/b&gt;&lt;/span&gt;&lt;/div&gt;&lt;div style=&quot;text-align: left&quot;&gt;&lt;span style=&quot;font-size: 20px;&quot;&gt;&lt;b style=&quot;&quot;&gt;&lt;font color=&quot;#ff0000&quot;&gt;Just as&lt;/font&gt; I saw him&lt;br&gt;(&lt;font color=&quot;#ff0000&quot;&gt;Tam &lt;/font&gt;onu &lt;font color=&quot;#ff0000&quot;&gt;gördüğümde&lt;/font&gt;)&lt;/b&gt;&lt;/span&gt;&lt;/div&gt;&lt;div style=&quot;text-align: left&quot;&gt;&lt;span style=&quot;font-size: 20px;&quot;&gt;&lt;b style=&quot;&quot;&gt;&lt;br&gt;&lt;/b&gt;&lt;/span&gt;&lt;/div&gt;&lt;div style=&quot;text-align: left&quot;&gt;&lt;span style=&quot;font-size: 20px;&quot;&gt;&lt;b&gt;&lt;font color=&quot;#ff0000&quot;&gt;After &lt;/font&gt;(sonra)&lt;br&gt;&lt;font color=&quot;#ff0000&quot;&gt;After &lt;/font&gt;he married, he had a son.&lt;br&gt;(Evlenmeden &lt;font color=&quot;#ff0000&quot;&gt;önce &lt;/font&gt;bir oğlu vardı)&lt;br&gt;&lt;br&gt;&lt;/b&gt;&lt;/span&gt;&lt;/div&gt;&lt;div style=&quot;text-align: left&quot;&gt;&lt;span style=&quot;font-size: 20px;&quot;&gt;&lt;b&gt;&lt;font color=&quot;#ff0000&quot;&gt;Before &lt;/font&gt;(önce) After gibi aynı mantıkdır.&lt;br&gt;He had a son &lt;font color=&quot;#ff0000&quot;&gt;before &lt;/font&gt;he married.&lt;br&gt;(Evlenmeden &lt;font color=&quot;#ff0000&quot;&gt;önce &lt;/font&gt;bir oğlu vardı)&lt;/b&gt;&lt;/span&gt;&lt;/div&gt;&lt;div style=&quot;text-align: left&quot;&gt;&lt;span style=&quot;font-size: 20px;&quot;&gt;&lt;b&gt;&lt;br&gt;&lt;/b&gt;&lt;/span&gt;&lt;/div&gt;&lt;div style=&quot;text-align: left&quot;&gt;&lt;span style=&quot;font-size: 20px;&quot;&gt;&lt;b&gt;&lt;font color=&quot;#ff0000&quot;&gt;as soon as &lt;/font&gt;(fille ek olarak &quot;yapar yapmaz&quot;, &quot;olur olmaz&quot; gibi anlam katıyor)&lt;br&gt;&lt;font color=&quot;#ff0000&quot;&gt;As soon as&lt;/font&gt; it started raining (Yağmur &lt;font color=&quot;#ff0000&quot;&gt;başlar başalamaz&lt;/font&gt;)&lt;/b&gt;&lt;/span&gt;&lt;/div&gt;&lt;div style=&quot;text-align: left&quot;&gt;&lt;span style=&quot;font-size: 20px;&quot;&gt;&lt;b&gt;&lt;font color=&quot;#ff0000&quot;&gt;&lt;br&gt;&lt;/font&gt;&lt;/b&gt;&lt;/span&gt;&lt;/div&gt;&lt;div style=&quot;text-align: left&quot;&gt;&lt;span style=&quot;font-size: 20px;&quot;&gt;&lt;b&gt;&lt;font color=&quot;#ff0000&quot;&gt;until &lt;/font&gt;(gelene kadar, gidene kadar -e kadar)&lt;br&gt;I will not talk to you again &lt;font color=&quot;#ff0000&quot;&gt;until&lt;/font&gt; I die.&lt;/b&gt;&lt;/span&gt;&lt;/div&gt;&lt;div style=&quot;text-align: left&quot;&gt;&lt;span style=&quot;font-size: 20px;&quot;&gt;&lt;b&gt;(Seninle ölene &lt;font color=&quot;#ff0000&quot;&gt;kadar&lt;/font&gt; bir daha konuşmayacağım.)&lt;br&gt;&lt;br&gt;&lt;/b&gt;&lt;/span&gt;&lt;/div&gt;&lt;div style=&quot;text-align: left&quot;&gt;&lt;span style=&quot;font-size: 20px;&quot;&gt;&lt;b&gt;&lt;font color=&quot;#ff0000&quot;&gt;by the time &lt;/font&gt;(when ve while gibi çalışır -iken ve -ince -inde)&lt;br&gt;I will be home &lt;font color=&quot;#ff0000&quot;&gt;by the time&lt;/font&gt; you set the table.&lt;/b&gt;&lt;/span&gt;&lt;/div&gt;&lt;div style=&quot;text-align: left&quot;&gt;&lt;span style=&quot;font-size: 20px;&quot;&gt;&lt;b&gt;Sen sofrayı kurun&lt;font color=&quot;#ff0000&quot;&gt;caya kadar&lt;/font&gt; ben evde olacağım.&lt;/b&gt;&lt;/span&gt;&lt;/div&gt;&lt;div style=&quot;text-align: left&quot;&gt;&lt;span style=&quot;font-size: 20px;&quot;&gt;&lt;b&gt;&lt;font color=&quot;#ff0000&quot;&gt;By the time&lt;/font&gt; he reached sixteen, he was already 1,80 cm tall.&lt;/b&gt;&lt;/span&gt;&lt;/div&gt;&lt;div style=&quot;text-align: left&quot;&gt;&lt;span style=&quot;font-size: 20px;&quot;&gt;&lt;b&gt;On altısına geldiğinde çoktan 1.80 cm boyunda olmuştu.&lt;/b&gt;&lt;/span&gt;&lt;/div&gt;&lt;br&gt;&lt;font&gt;&lt;font&gt;&lt;div style=&quot;text-align: left&quot;&gt;&lt;span style=&quot;font-size: 20px&quot;&gt;&lt;font color=&quot;#ff0000&quot; style=&quot;text-align: center&quot;&gt;&lt;/font&gt;&lt;/span&gt;&lt;/div&gt;&lt;/font&gt;&lt;/font&gt;" style="text;html=1;strokeColor=none;fillColor=none;align=center;verticalAlign=middle;whiteSpace=wrap;rounded=0;" parent="1" vertex="1">
          <mxGeometry x="2206.4399999999996" y="500" width="720" height="1010" as="geometry" />
        </mxCell>
        <mxCell id="rMrdpJRgpf_qSevfCrq4-1" value="" style="endArrow=none;html=1;strokeWidth=3;" parent="1" edge="1">
          <mxGeometry width="50" height="50" relative="1" as="geometry">
            <mxPoint x="2179.9999999999986" y="1557" as="sourcePoint" />
            <mxPoint x="4133.13" y="1557" as="targetPoint" />
          </mxGeometry>
        </mxCell>
        <mxCell id="rMrdpJRgpf_qSevfCrq4-3" value="&lt;div style=&quot;text-align: left;&quot;&gt;&lt;font color=&quot;#ff0000&quot;&gt;&lt;span style=&quot;font-size: 20px;&quot;&gt;&lt;b&gt;Indefinite Pronouns (Bilgisiz Zamirler)&lt;/b&gt;&lt;/span&gt;&lt;/font&gt;&lt;/div&gt;&lt;div style=&quot;text-align: left;&quot;&gt;&lt;b style=&quot;font-size: 20px; background-color: initial;&quot;&gt;&lt;br&gt;&lt;/b&gt;&lt;/div&gt;&lt;div style=&quot;text-align: left;&quot;&gt;&lt;b style=&quot;font-size: 20px; background-color: initial;&quot;&gt;Something&amp;nbsp;&lt;span style=&quot;white-space: pre;&quot;&gt;&#x9;&lt;span style=&quot;white-space: pre;&quot;&gt;&#x9;&#x9;&lt;/span&gt;&lt;/span&gt;&lt;font color=&quot;#ff0000&quot;&gt;bir şey&lt;/font&gt;&lt;/b&gt;&lt;br&gt;&lt;/div&gt;&lt;div style=&quot;&quot;&gt;&lt;div style=&quot;border-color: var(--border-color);&quot;&gt;&lt;div style=&quot;text-align: left;&quot;&gt;&lt;span style=&quot;font-size: 20px;&quot;&gt;&lt;b&gt;anything&lt;span style=&quot;white-space: pre;&quot;&gt;&#x9;&lt;/span&gt;&lt;span style=&quot;white-space: pre;&quot;&gt;&#x9;&lt;/span&gt;&lt;span style=&quot;white-space: pre;&quot;&gt;&#x9;&lt;span style=&quot;white-space: pre;&quot;&gt;&#x9;&lt;/span&gt;&lt;/span&gt;&lt;font color=&quot;#ff0000&quot;&gt;bir şey / herhangi bir şey&lt;/font&gt;&lt;/b&gt;&lt;/span&gt;&lt;/div&gt;&lt;div style=&quot;text-align: left;&quot;&gt;&lt;span style=&quot;font-size: 20px;&quot;&gt;&lt;b&gt;everything&lt;span style=&quot;white-space: pre;&quot;&gt;&#x9;&lt;/span&gt;&lt;span style=&quot;white-space: pre;&quot;&gt;&#x9;&lt;span style=&quot;white-space: pre;&quot;&gt;&#x9;&lt;/span&gt;&lt;/span&gt;&lt;font color=&quot;#ff0000&quot;&gt;her şey&lt;/font&gt;&lt;/b&gt;&lt;/span&gt;&lt;/div&gt;&lt;div style=&quot;text-align: left;&quot;&gt;&lt;span style=&quot;font-size: 20px;&quot;&gt;&lt;b&gt;nothing&lt;span style=&quot;white-space: pre;&quot;&gt;&#x9;&lt;/span&gt;&lt;span style=&quot;white-space: pre;&quot;&gt;&#x9;&lt;/span&gt;&lt;span style=&quot;white-space: pre;&quot;&gt;&#x9;&lt;span style=&quot;white-space: pre;&quot;&gt;&#x9;&lt;/span&gt;&lt;/span&gt;&lt;font color=&quot;#ff0000&quot;&gt;hiçbir şey&lt;/font&gt;&lt;/b&gt;&lt;/span&gt;&lt;/div&gt;&lt;div style=&quot;text-align: left;&quot;&gt;&lt;span style=&quot;font-size: 20px;&quot;&gt;&lt;b&gt;somebody / someone &lt;span style=&quot;white-space: pre;&quot;&gt;&#x9;&lt;/span&gt;&lt;font color=&quot;#ff0000&quot;&gt;birisi&lt;/font&gt;&lt;/b&gt;&lt;/span&gt;&lt;/div&gt;&lt;div style=&quot;text-align: left;&quot;&gt;&lt;span style=&quot;font-size: 20px;&quot;&gt;&lt;b&gt;anybody / anyone &lt;span style=&quot;white-space: pre;&quot;&gt;&#x9;&lt;/span&gt;&lt;span style=&quot;white-space: pre;&quot;&gt;&#x9;&lt;/span&gt;&lt;font color=&quot;#ff0000&quot;&gt;birisi / herhangi biri&lt;/font&gt;&lt;/b&gt;&lt;/span&gt;&lt;/div&gt;&lt;div style=&quot;text-align: left;&quot;&gt;&lt;span style=&quot;font-size: 20px;&quot;&gt;&lt;b&gt;everybody / everyone&lt;span style=&quot;white-space: pre;&quot;&gt;&#x9;&lt;/span&gt;&lt;font color=&quot;#ff0000&quot;&gt;herkes&lt;/font&gt;&lt;/b&gt;&lt;/span&gt;&lt;/div&gt;&lt;div style=&quot;text-align: left;&quot;&gt;&lt;span style=&quot;font-size: 20px;&quot;&gt;&lt;b&gt;nobody / no one&lt;span style=&quot;white-space: pre;&quot;&gt;&#x9;&lt;/span&gt;&lt;span style=&quot;white-space: pre;&quot;&gt;&#x9;&lt;/span&gt;&lt;font color=&quot;#ff0000&quot;&gt;hiç kimse&lt;/font&gt;&lt;/b&gt;&lt;/span&gt;&lt;/div&gt;&lt;div style=&quot;text-align: left;&quot;&gt;&lt;span style=&quot;font-size: 20px;&quot;&gt;&lt;b&gt;somewhere&lt;span style=&quot;white-space: pre;&quot;&gt;&#x9;&lt;/span&gt;&lt;span style=&quot;white-space: pre;&quot;&gt;&#x9;&lt;/span&gt;&lt;span style=&quot;white-space: pre;&quot;&gt;&#x9;&lt;/span&gt;&lt;font color=&quot;#ff0000&quot;&gt;bir yer&lt;/font&gt;&lt;/b&gt;&lt;/span&gt;&lt;/div&gt;&lt;div style=&quot;text-align: left;&quot;&gt;&lt;span style=&quot;font-size: 20px;&quot;&gt;&lt;b&gt;anywhere&lt;span style=&quot;white-space: pre;&quot;&gt;&#x9;&lt;/span&gt;&lt;span style=&quot;white-space: pre;&quot;&gt;&#x9;&lt;/span&gt;&lt;span style=&quot;white-space: pre;&quot;&gt;&#x9;&lt;/span&gt;&lt;font color=&quot;#ff0000&quot;&gt;bir yer / herhangi bir yer&lt;/font&gt;&lt;/b&gt;&lt;/span&gt;&lt;/div&gt;&lt;div style=&quot;text-align: left;&quot;&gt;&lt;span style=&quot;font-size: 20px;&quot;&gt;&lt;b&gt;everywhere&lt;span style=&quot;white-space: pre;&quot;&gt;&#x9;&lt;/span&gt;&lt;span style=&quot;white-space: pre;&quot;&gt;&#x9;&lt;/span&gt;&lt;span style=&quot;white-space: pre;&quot;&gt;&#x9;&lt;/span&gt;&lt;font color=&quot;#ff0000&quot;&gt;her yer&lt;/font&gt;&lt;/b&gt;&lt;/span&gt;&lt;/div&gt;&lt;div style=&quot;text-align: left;&quot;&gt;&lt;span style=&quot;font-size: 20px;&quot;&gt;&lt;b&gt;nowhere&lt;span style=&quot;white-space: pre;&quot;&gt;&#x9;&lt;/span&gt;&lt;span style=&quot;white-space: pre;&quot;&gt;&#x9;&lt;/span&gt;&lt;span style=&quot;white-space: pre;&quot;&gt;&#x9;&lt;/span&gt;&lt;span style=&quot;white-space: pre;&quot;&gt;&#x9;&lt;/span&gt;&lt;font color=&quot;#ff0000&quot;&gt;hiçbir yer&lt;/font&gt;&lt;/b&gt;&lt;/span&gt;&lt;/div&gt;&lt;/div&gt;&lt;/div&gt;&lt;font&gt;&lt;font&gt;&lt;div style=&quot;text-align: left&quot;&gt;&lt;span style=&quot;font-size: 20px&quot;&gt;&lt;font color=&quot;#ff0000&quot; style=&quot;text-align: center&quot;&gt;&lt;/font&gt;&lt;/span&gt;&lt;/div&gt;&lt;/font&gt;&lt;/font&gt;" style="text;html=1;strokeColor=none;fillColor=none;align=center;verticalAlign=middle;whiteSpace=wrap;rounded=0;" parent="1" vertex="1">
          <mxGeometry x="2194.249999999999" y="2540" width="532.19" height="360" as="geometry" />
        </mxCell>
        <mxCell id="rMrdpJRgpf_qSevfCrq4-5" value="&lt;div style=&quot;text-align: left;&quot;&gt;&lt;font color=&quot;#ff0000&quot;&gt;&lt;span style=&quot;font-size: 20px;&quot;&gt;&lt;b&gt;One / Ones (Olan - Olanlar)&lt;/b&gt;&lt;/span&gt;&lt;/font&gt;&lt;/div&gt;&lt;div style=&quot;text-align: left;&quot;&gt;&lt;span style=&quot;font-size: 20px;&quot;&gt;&lt;b style=&quot;&quot;&gt;Aynı kelimeyi söylemeden eşanlamlı olarak one/ones kullanılabilir. Böylelikle&amp;nbsp;&lt;/b&gt;&lt;/span&gt;&lt;b style=&quot;border-color: var(--border-color); font-size: 20px;&quot;&gt;aynı kelimeyi tekrar söylemeden belirtebiliyoruz.&amp;nbsp;&lt;/b&gt;&lt;span style=&quot;font-size: 20px;&quot;&gt;&lt;b&gt;&lt;br&gt;&lt;/b&gt;&lt;/span&gt;&lt;/div&gt;&lt;div style=&quot;text-align: left;&quot;&gt;&lt;span style=&quot;font-size: 20px;&quot;&gt;&lt;b style=&quot;&quot;&gt;One tekillerde ones çoğullarda kullanılır.&lt;/b&gt;&lt;/span&gt;&lt;/div&gt;&lt;div style=&quot;text-align: left;&quot;&gt;&lt;span style=&quot;font-size: 20px;&quot;&gt;&lt;b style=&quot;&quot;&gt;&lt;br&gt;&lt;/b&gt;&lt;/span&gt;&lt;/div&gt;&lt;div style=&quot;text-align: left;&quot;&gt;&lt;span style=&quot;font-size: 20px;&quot;&gt;&lt;b&gt;Our advanced &lt;font color=&quot;#ff0000&quot;&gt;books &lt;/font&gt;are here, and the beginner &lt;font color=&quot;#ff0000&quot;&gt;ones &lt;/font&gt;are over there.&lt;/b&gt;&lt;/span&gt;&lt;/div&gt;&lt;div style=&quot;text-align: left;&quot;&gt;&lt;span style=&quot;font-size: 20px;&quot;&gt;&lt;b style=&quot;&quot;&gt;İleri düzey kitaplarımız burada, başlangıç seviye kitaplarımız burada&lt;/b&gt;&lt;/span&gt;&lt;/div&gt;&lt;font&gt;&lt;font&gt;&lt;div style=&quot;text-align: left&quot;&gt;&lt;span style=&quot;font-size: 20px&quot;&gt;&lt;font color=&quot;#ff0000&quot; style=&quot;text-align: center&quot;&gt;&lt;/font&gt;&lt;/span&gt;&lt;/div&gt;&lt;/font&gt;&lt;/font&gt;" style="text;html=1;strokeColor=none;fillColor=none;align=center;verticalAlign=middle;whiteSpace=wrap;rounded=0;" parent="1" vertex="1">
          <mxGeometry x="2925.4399999999996" y="2528" width="520" height="280" as="geometry" />
        </mxCell>
        <mxCell id="6NB27Jp0EbthDrMz32Os-1" value="&lt;div style=&quot;text-align: left;&quot;&gt;&lt;font color=&quot;#ff0000&quot;&gt;&lt;span style=&quot;font-size: 20px;&quot;&gt;&lt;b&gt;Comparative Adjectives (Üstünlük Sıfatları)&lt;/b&gt;&lt;/span&gt;&lt;/font&gt;&lt;/div&gt;&lt;div style=&quot;text-align: left;&quot;&gt;&lt;span style=&quot;font-size: 20px;&quot;&gt;&lt;b style=&quot;&quot;&gt;Eylem ve sıfatlara &quot;daha&quot; anlamını katmak için kullanılır.&lt;/b&gt;&lt;/span&gt;&lt;/div&gt;&lt;div style=&quot;text-align: left;&quot;&gt;&lt;span style=&quot;font-size: 20px;&quot;&gt;&lt;b style=&quot;&quot;&gt;Bunlar: -er, more, less&lt;/b&gt;&lt;/span&gt;&lt;/div&gt;&lt;div style=&quot;text-align: left;&quot;&gt;&lt;span style=&quot;font-size: 20px;&quot;&gt;&lt;b style=&quot;&quot;&gt;&lt;br&gt;&lt;/b&gt;&lt;/span&gt;&lt;/div&gt;&lt;div style=&quot;text-align: left;&quot;&gt;&lt;span style=&quot;font-size: 20px;&quot;&gt;&lt;b&gt;&lt;font color=&quot;#6600cc&quot;&gt;-ER TAKISI&lt;/font&gt;&lt;/b&gt;&lt;/span&gt;&lt;/div&gt;&lt;div style=&quot;text-align: left;&quot;&gt;&lt;span style=&quot;font-size: 20px;&quot;&gt;&lt;b style=&quot;&quot;&gt;&lt;font color=&quot;#ff0000&quot;&gt;-er&lt;/font&gt; tek heceli &lt;font color=&quot;#ff0000&quot;&gt;okunuşu &lt;/font&gt;olan kelimede kullanılır. (teach -&amp;gt; teach&lt;font color=&quot;#ff0000&quot;&gt;er&lt;/font&gt;)&lt;br&gt;&lt;font color=&quot;#ff0000&quot;&gt;sonu e&lt;/font&gt; ile bitmiş ise &lt;font color=&quot;#ff0000&quot;&gt;er &lt;/font&gt;tamamlanır. (larg&lt;font color=&quot;#ff0000&quot;&gt;e&lt;/font&gt; -&amp;gt; large&lt;font color=&quot;#ff0000&quot;&gt;r&lt;/font&gt;)&lt;br&gt;&lt;font color=&quot;#ff0000&quot;&gt;sonu y&lt;/font&gt; ile bitiyorsa&amp;nbsp;&lt;font color=&quot;#ff0000&quot;&gt;y düşer i &lt;/font&gt;gelir &lt;font color=&quot;#ff0000&quot;&gt;-ier&lt;/font&gt; olur. (ugly -&amp;gt; ugl&lt;font color=&quot;#ff0000&quot;&gt;ier&lt;/font&gt;)&lt;br&gt;&lt;font color=&quot;#ff0000&quot;&gt;son üç harfi sessiz + sesli + sessiz &lt;/font&gt;ile bitiyorsa&lt;br&gt;en sondaki harf iki kere yazılır ve &lt;font color=&quot;#ff0000&quot;&gt;-er&lt;/font&gt; eklenir. (big -&amp;gt; big&lt;font color=&quot;#ff0000&quot;&gt;ger&lt;/font&gt;, hot -&amp;gt; hot&lt;font color=&quot;#ff0000&quot;&gt;ter&lt;/font&gt;)&lt;/b&gt;&lt;/span&gt;&lt;/div&gt;&lt;div style=&quot;text-align: left;&quot;&gt;&lt;br&gt;&lt;/div&gt;&lt;div style=&quot;text-align: left;&quot;&gt;&lt;span style=&quot;font-size: 20px;&quot;&gt;&lt;b style=&quot;&quot;&gt;&lt;font color=&quot;#6600cc&quot;&gt;MORE&lt;/font&gt;&lt;/b&gt;&lt;/span&gt;&lt;/div&gt;&lt;div style=&quot;text-align: left;&quot;&gt;&lt;span style=&quot;font-size: 20px;&quot;&gt;&lt;b style=&quot;&quot;&gt;&lt;font color=&quot;#ff0000&quot;&gt;more &lt;/font&gt;en az&amp;nbsp;iki hece üstünde kullanılır sebebi kelime uzun olduğu içindir.&amp;nbsp;&amp;nbsp;&lt;br&gt;Örnek: (expensive -&amp;gt; &lt;font color=&quot;#ff0000&quot;&gt;more &lt;/font&gt;expensive)&lt;br&gt;&lt;br&gt;&lt;/b&gt;&lt;/span&gt;&lt;/div&gt;&lt;div style=&quot;text-align: left;&quot;&gt;&lt;span style=&quot;font-size: 20px;&quot;&gt;&lt;b style=&quot;&quot;&gt;Sıfat tek heceli olsa bile &lt;font color=&quot;#ff0000&quot;&gt;-ed &lt;/font&gt;veya&lt;font color=&quot;#ff0000&quot;&gt; -ing&lt;/font&gt; ile bitiyorsa &lt;font color=&quot;#ff0000&quot;&gt;more &lt;/font&gt;kullanılır&lt;br&gt;(tired -&amp;gt; &lt;font color=&quot;#ff0000&quot;&gt;more&lt;/font&gt; tir&lt;font color=&quot;#ff0000&quot;&gt;ed&lt;/font&gt;, boring -&amp;gt; &lt;font color=&quot;#ff0000&quot;&gt;more &lt;/font&gt;bor&lt;font color=&quot;#ff0000&quot;&gt;ing&lt;/font&gt;)&lt;/b&gt;&lt;/span&gt;&lt;/div&gt;&lt;div style=&quot;text-align: left;&quot;&gt;&lt;span style=&quot;font-size: 20px;&quot;&gt;&lt;b style=&quot;&quot;&gt;&lt;br&gt;&lt;/b&gt;&lt;/span&gt;&lt;/div&gt;&lt;div style=&quot;text-align: left;&quot;&gt;&lt;span style=&quot;font-size: 20px;&quot;&gt;&lt;b style=&quot;&quot;&gt;&lt;font color=&quot;#6600cc&quot;&gt;Quantifiers (Bazı Nicelik Zarfları)&lt;/font&gt;&lt;br&gt;Bazen daha çok gibi söylememiz gerekebiliyor&lt;br&gt;much (çok)&lt;br&gt;a lot (çok)&lt;br&gt;a little (biraz / bir miktar)&lt;br&gt;a bit (birazcık)&lt;br&gt;slightly (birazcık)&lt;/b&gt;&lt;/span&gt;&lt;/div&gt;&lt;div style=&quot;text-align: left;&quot;&gt;&lt;span style=&quot;font-size: 20px;&quot;&gt;&lt;b style=&quot;&quot;&gt;&lt;br&gt;&lt;/b&gt;&lt;/span&gt;&lt;/div&gt;&lt;div style=&quot;text-align: left;&quot;&gt;&lt;span style=&quot;font-size: 20px;&quot;&gt;&lt;b&gt;I&#39;m &lt;font color=&quot;#ff0000&quot;&gt;a little more&lt;/font&gt; successful than him. &lt;br&gt;(Ben ondan biraz daha başarılıyım)&lt;br&gt;&lt;/b&gt;&lt;/span&gt;&lt;/div&gt;&lt;div style=&quot;text-align: left;&quot;&gt;&lt;span style=&quot;font-size: 20px;&quot;&gt;&lt;b style=&quot;&quot;&gt;&lt;br&gt;&lt;/b&gt;&lt;/span&gt;&lt;/div&gt;&lt;div style=&quot;text-align: left;&quot;&gt;&lt;span style=&quot;font-size: 20px;&quot;&gt;&lt;b style=&quot;&quot;&gt;&lt;font color=&quot;#ff0000&quot;&gt;İstisnalar &lt;/font&gt;(Hem -er olarak hemde more olarak kullanılabilmektedir)&lt;/b&gt;&lt;/span&gt;&lt;/div&gt;&lt;div style=&quot;text-align: left;&quot;&gt;&lt;span style=&quot;font-size: 20px;&quot;&gt;&lt;b&gt;common -&amp;gt; common&lt;font color=&quot;#ff0000&quot;&gt;er &lt;/font&gt;/ &lt;font color=&quot;#ff0000&quot;&gt;more&lt;/font&gt; common&lt;br&gt;polite -&amp;gt; polit&lt;font color=&quot;#ff0000&quot;&gt;er&lt;/font&gt; / &lt;font color=&quot;#ff0000&quot;&gt;more &lt;/font&gt;polite&lt;br&gt;&lt;br&gt;&lt;/b&gt;&lt;/span&gt;&lt;/div&gt;&lt;font&gt;&lt;font&gt;&lt;div style=&quot;text-align: left&quot;&gt;&lt;span style=&quot;font-size: 20px&quot;&gt;&lt;font color=&quot;#ff0000&quot; style=&quot;text-align: center&quot;&gt;&lt;/font&gt;&lt;/span&gt;&lt;/div&gt;&lt;/font&gt;&lt;/font&gt;" style="text;html=1;strokeColor=none;fillColor=none;align=center;verticalAlign=middle;whiteSpace=wrap;rounded=0;" parent="1" vertex="1">
          <mxGeometry x="2191.6599999999994" y="1640" width="749.56" height="790" as="geometry" />
        </mxCell>
        <mxCell id="6NB27Jp0EbthDrMz32Os-2" value="&lt;div style=&quot;text-align: left;&quot;&gt;&lt;font color=&quot;#ff0000&quot;&gt;&lt;span style=&quot;font-size: 20px;&quot;&gt;&lt;b&gt;Superlative Adjectives (En Üstünlük Sıfatları)&lt;/b&gt;&lt;/span&gt;&lt;/font&gt;&lt;/div&gt;&lt;div style=&quot;text-align: left;&quot;&gt;&lt;span style=&quot;font-size: 20px;&quot;&gt;&lt;b style=&quot;&quot;&gt;Sıfatlara &quot;en&quot; anlamına katmak için kullanılır.&lt;/b&gt;&lt;/span&gt;&lt;/div&gt;&lt;div style=&quot;text-align: left;&quot;&gt;&lt;span style=&quot;font-size: 20px;&quot;&gt;&lt;b style=&quot;&quot;&gt;Bunlar: -est, most, least&lt;/b&gt;&lt;/span&gt;&lt;/div&gt;&lt;div style=&quot;text-align: left;&quot;&gt;&lt;span style=&quot;font-size: 20px;&quot;&gt;&lt;b style=&quot;&quot;&gt;&lt;br&gt;&lt;/b&gt;&lt;/span&gt;&lt;/div&gt;&lt;div style=&quot;text-align: left;&quot;&gt;&lt;div style=&quot;border-color: var(--border-color);&quot;&gt;&lt;span style=&quot;border-color: var(--border-color); font-size: 20px;&quot;&gt;&lt;b style=&quot;border-color: var(--border-color);&quot;&gt;&lt;font style=&quot;border-color: var(--border-color);&quot; color=&quot;#6600cc&quot;&gt;-EST TAKISI&lt;/font&gt;&lt;/b&gt;&lt;/span&gt;&lt;/div&gt;&lt;div style=&quot;border-color: var(--border-color);&quot;&gt;&lt;span style=&quot;border-color: var(--border-color); font-size: 20px;&quot;&gt;&lt;b style=&quot;border-color: var(--border-color);&quot;&gt;&lt;font style=&quot;border-color: var(--border-color);&quot; color=&quot;#ff0000&quot;&gt;-est&lt;/font&gt;&amp;nbsp;tek heceli&amp;nbsp;&lt;font style=&quot;border-color: var(--border-color);&quot; color=&quot;#ff0000&quot;&gt;okunuşu&amp;nbsp;&lt;/font&gt;olan kelimede kullanılır ve the getirilir. (weak-&amp;gt; &lt;font color=&quot;#ff0000&quot;&gt;the &lt;/font&gt;weak&lt;font style=&quot;border-color: var(--border-color);&quot; color=&quot;#ff0000&quot;&gt;est&lt;/font&gt;)&lt;br&gt;&lt;b style=&quot;border-color: var(--border-color);&quot;&gt;&lt;font style=&quot;border-color: var(--border-color);&quot; color=&quot;#ff0000&quot;&gt;sonu e&lt;/font&gt;&amp;nbsp;ile bitmiş ise &lt;font color=&quot;#ff0000&quot;&gt;est &lt;/font&gt;tamamlanır. (larg&lt;font style=&quot;border-color: var(--border-color);&quot; color=&quot;#ff0000&quot;&gt;e&lt;/font&gt;&amp;nbsp;-&amp;gt; &lt;font color=&quot;#ff0000&quot;&gt;the &lt;/font&gt;large&lt;font color=&quot;#ff0000&quot;&gt;st&lt;/font&gt;)&lt;/b&gt;&lt;br&gt;&lt;/b&gt;&lt;/span&gt;&lt;/div&gt;&lt;div style=&quot;border-color: var(--border-color);&quot;&gt;&lt;span style=&quot;border-color: var(--border-color); font-size: 20px;&quot;&gt;&lt;b style=&quot;border-color: var(--border-color);&quot;&gt;&lt;b style=&quot;border-color: var(--border-color);&quot;&gt;&lt;font style=&quot;border-color: var(--border-color);&quot; color=&quot;#ff0000&quot;&gt;sonu y&lt;/font&gt;&amp;nbsp;ile bitiyorsa&amp;nbsp;&lt;font style=&quot;border-color: var(--border-color);&quot; color=&quot;#ff0000&quot;&gt;y düşer i&amp;nbsp;&lt;/font&gt;gelir&amp;nbsp;&lt;font style=&quot;border-color: var(--border-color);&quot; color=&quot;#ff0000&quot;&gt;-iest&lt;/font&gt;&amp;nbsp;olur. (ugly -&amp;gt; ugl&lt;font style=&quot;border-color: var(--border-color);&quot; color=&quot;#ff0000&quot;&gt;iest&lt;/font&gt;)&lt;br style=&quot;border-color: var(--border-color);&quot;&gt;&lt;/b&gt;&lt;/b&gt;&lt;/span&gt;&lt;/div&gt;&lt;/div&gt;&lt;div style=&quot;text-align: left;&quot;&gt;&lt;b style=&quot;border-color: var(--border-color); font-size: 20px;&quot;&gt;&lt;font style=&quot;border-color: var(--border-color);&quot; color=&quot;#ff0000&quot;&gt;son üç harfi sessiz + sesli + sessiz&amp;nbsp;&lt;/font&gt;ile bitiyorsa &lt;br&gt;en sondaki harf iki kere yazılır ve &lt;font color=&quot;#ff0000&quot;&gt;-est&lt;/font&gt; eklenir. (big -&amp;gt; &lt;font color=&quot;#ff0000&quot;&gt;the &lt;/font&gt;big&lt;font style=&quot;border-color: var(--border-color);&quot; color=&quot;#ff0000&quot;&gt;gest&lt;/font&gt;, hot -&amp;gt; &lt;font color=&quot;#ff0000&quot;&gt;the&lt;/font&gt; hot&lt;font style=&quot;border-color: var(--border-color);&quot; color=&quot;#ff0000&quot;&gt;test&lt;/font&gt;)&lt;/b&gt;&lt;span style=&quot;font-size: 20px;&quot;&gt;&lt;b style=&quot;&quot;&gt;&lt;br&gt;&lt;/b&gt;&lt;/span&gt;&lt;/div&gt;&lt;div style=&quot;text-align: left;&quot;&gt;&lt;br&gt;&lt;/div&gt;&lt;div style=&quot;text-align: left;&quot;&gt;&lt;br&gt;&lt;/div&gt;&lt;div style=&quot;text-align: left;&quot;&gt;&lt;br&gt;&lt;/div&gt;&lt;div style=&quot;text-align: left;&quot;&gt;&lt;b style=&quot;border-color: var(--border-color); font-size: 20px;&quot;&gt;&lt;font style=&quot;border-color: var(--border-color);&quot; color=&quot;#6600cc&quot;&gt;MOST&lt;/font&gt;&lt;/b&gt;&lt;br&gt;&lt;/div&gt;&lt;div style=&quot;text-align: left;&quot;&gt;&lt;b style=&quot;border-color: var(--border-color); font-size: 20px;&quot;&gt;&lt;font style=&quot;border-color: var(--border-color);&quot;&gt;&lt;b style=&quot;border-color: var(--border-color);&quot;&gt;&lt;font color=&quot;#ff0000&quot;&gt;most&amp;nbsp;&lt;/font&gt;&lt;/b&gt;&lt;b style=&quot;color: rgb(0, 0, 0); border-color: var(--border-color);&quot;&gt;en az&amp;nbsp;iki hece üstünde kullanılır sebebi kelime uzun olduğu içindir.&lt;br&gt;Örnek: (expensive -&amp;gt;&amp;nbsp;&lt;/b&gt;&lt;b style=&quot;border-color: var(--border-color);&quot;&gt;&lt;font color=&quot;#ff0000&quot;&gt;the&amp;nbsp;&lt;/font&gt;&lt;/b&gt;&lt;b style=&quot;border-color: var(--border-color);&quot;&gt;&lt;font color=&quot;#ff0000&quot;&gt;most &lt;/font&gt;expensive&lt;br&gt;&lt;/b&gt;&lt;br&gt;&lt;/font&gt;&lt;/b&gt;&lt;/div&gt;&lt;div style=&quot;text-align: left;&quot;&gt;&lt;b style=&quot;border-color: var(--border-color); font-size: 20px;&quot;&gt;&lt;font style=&quot;border-color: var(--border-color);&quot;&gt;&lt;b style=&quot;color: rgb(0, 0, 0); border-color: var(--border-color);&quot;&gt;Sıfat tek heceli olsa bile&amp;nbsp;&lt;font style=&quot;border-color: var(--border-color);&quot; color=&quot;#ff0000&quot;&gt;-ed&amp;nbsp;&lt;/font&gt;veya&lt;font style=&quot;border-color: var(--border-color);&quot; color=&quot;#ff0000&quot;&gt;&amp;nbsp;-ing&lt;/font&gt;&amp;nbsp;ile bitiyorsa&amp;nbsp;&lt;/b&gt;&lt;b style=&quot;border-color: var(--border-color);&quot;&gt;&lt;font color=&quot;#ff0000&quot;&gt;most&amp;nbsp;&lt;/font&gt;kullanılır.&lt;br style=&quot;border-color: var(--border-color);&quot;&gt;(tired -&amp;gt; &lt;font color=&quot;#ff0000&quot;&gt;the most&lt;/font&gt; tir&lt;font style=&quot;color: rgb(0, 0, 0); border-color: var(--border-color);&quot; color=&quot;#ff0000&quot;&gt;ed&lt;/font&gt;, boring -&amp;gt; &lt;font color=&quot;#ff0000&quot;&gt;the&amp;nbsp;&lt;font style=&quot;border-color: var(--border-color);&quot;&gt;most&amp;nbsp;&lt;/font&gt;&lt;/font&gt;bor&lt;font style=&quot;color: rgb(0, 0, 0); border-color: var(--border-color);&quot; color=&quot;#ff0000&quot;&gt;ing&lt;/font&gt;)&lt;/b&gt;&lt;br&gt;&lt;/font&gt;&lt;/b&gt;&lt;/div&gt;&lt;div style=&quot;text-align: left;&quot;&gt;&lt;b style=&quot;border-color: var(--border-color); font-size: 20px;&quot;&gt;&lt;font style=&quot;border-color: var(--border-color);&quot;&gt;&lt;b style=&quot;border-color: var(--border-color);&quot;&gt;&lt;br&gt;&lt;/b&gt;&lt;/font&gt;&lt;/b&gt;&lt;/div&gt;&lt;div style=&quot;text-align: left;&quot;&gt;&lt;b style=&quot;border-color: var(--border-color); font-size: 20px;&quot;&gt;&lt;font style=&quot;border-color: var(--border-color);&quot;&gt;&lt;b style=&quot;border-color: var(--border-color);&quot;&gt;&lt;font style=&quot;border-color: var(--border-color);&quot; color=&quot;#ff0000&quot;&gt;İstisnalar&amp;nbsp;&lt;/font&gt;(Hem -est olarak hemde most olarak kullanılabilmektedir)&lt;/b&gt;&lt;/font&gt;&lt;/b&gt;&lt;/div&gt;&lt;div style=&quot;text-align: left;&quot;&gt;&lt;b style=&quot;border-color: var(--border-color); font-size: 20px;&quot;&gt;&lt;font style=&quot;border-color: var(--border-color);&quot;&gt;&lt;b style=&quot;border-color: var(--border-color);&quot;&gt;&lt;b style=&quot;border-color: var(--border-color);&quot;&gt;common -&amp;gt; the common&lt;font style=&quot;border-color: var(--border-color);&quot; color=&quot;#ff0000&quot;&gt;est&amp;nbsp;&lt;/font&gt;/&amp;nbsp;&lt;font color=&quot;#ff0000&quot;&gt;the most&amp;nbsp;&lt;/font&gt;common&lt;/b&gt;&lt;br&gt;&lt;/b&gt;&lt;/font&gt;&lt;/b&gt;&lt;/div&gt;&lt;div style=&quot;text-align: left;&quot;&gt;&lt;b style=&quot;border-color: var(--border-color); font-size: 20px;&quot;&gt;&lt;font style=&quot;border-color: var(--border-color);&quot;&gt;&lt;b style=&quot;border-color: var(--border-color);&quot;&gt;&lt;b style=&quot;border-color: var(--border-color);&quot;&gt;&lt;b style=&quot;border-color: var(--border-color);&quot;&gt;polite -&amp;gt; the polit&lt;font style=&quot;border-color: var(--border-color);&quot; color=&quot;#ff0000&quot;&gt;est&amp;nbsp;&lt;/font&gt;/&amp;nbsp;the&amp;nbsp;&lt;font color=&quot;#ff0000&quot;&gt;most&amp;nbsp;&lt;/font&gt;polite&lt;/b&gt;&lt;br&gt;&lt;/b&gt;&lt;/b&gt;&lt;/font&gt;&lt;/b&gt;&lt;/div&gt;&lt;div style=&quot;text-align: left;&quot;&gt;&lt;b style=&quot;border-color: var(--border-color); font-size: 20px;&quot;&gt;&lt;font style=&quot;border-color: var(--border-color);&quot;&gt;&lt;b style=&quot;border-color: var(--border-color);&quot;&gt;&lt;b style=&quot;border-color: var(--border-color);&quot;&gt;&lt;b style=&quot;border-color: var(--border-color);&quot;&gt;&lt;br&gt;&lt;/b&gt;&lt;/b&gt;&lt;/b&gt;&lt;/font&gt;&lt;/b&gt;&lt;/div&gt;&lt;div style=&quot;text-align: left;&quot;&gt;&lt;b style=&quot;border-color: var(--border-color); font-size: 20px;&quot;&gt;&lt;font style=&quot;border-color: var(--border-color);&quot;&gt;&lt;b style=&quot;border-color: var(--border-color);&quot;&gt;&lt;b style=&quot;border-color: var(--border-color);&quot;&gt;&lt;b style=&quot;border-color: var(--border-color);&quot;&gt;Başlarında -er veya most yada -est veya most olmaksızın kendisi daha ve en anlamlı olan sıfatlar vardır örnek olarak:&lt;/b&gt;&lt;/b&gt;&lt;/b&gt;&lt;/font&gt;&lt;/b&gt;&lt;/div&gt;&lt;div style=&quot;text-align: left;&quot;&gt;&lt;b style=&quot;border-color: var(--border-color); font-size: 20px;&quot;&gt;&lt;font style=&quot;border-color: var(--border-color);&quot;&gt;&lt;b style=&quot;border-color: var(--border-color);&quot;&gt;&lt;b style=&quot;border-color: var(--border-color);&quot;&gt;&lt;b style=&quot;border-color: var(--border-color);&quot;&gt;good -&amp;gt; better -&amp;gt; the best&lt;/b&gt;&lt;/b&gt;&lt;/b&gt;&lt;/font&gt;&lt;/b&gt;&lt;/div&gt;&lt;div style=&quot;text-align: left;&quot;&gt;&lt;b style=&quot;border-color: var(--border-color); font-size: 20px;&quot;&gt;&lt;font style=&quot;border-color: var(--border-color);&quot;&gt;&lt;b style=&quot;border-color: var(--border-color);&quot;&gt;&lt;b style=&quot;border-color: var(--border-color);&quot;&gt;&lt;b style=&quot;border-color: var(--border-color);&quot;&gt;bad -&amp;gt; worse -&amp;gt; the worst&lt;br&gt;far -&amp;gt; farther -&amp;gt; the farthest&lt;br&gt;little -&amp;gt; less -&amp;gt; the least&lt;/b&gt;&lt;/b&gt;&lt;/b&gt;&lt;/font&gt;&lt;/b&gt;&lt;/div&gt;&lt;font&gt;&lt;font&gt;&lt;div style=&quot;text-align: left&quot;&gt;&lt;span style=&quot;font-size: 20px&quot;&gt;&lt;font color=&quot;#ff0000&quot; style=&quot;text-align: center&quot;&gt;&lt;/font&gt;&lt;/span&gt;&lt;/div&gt;&lt;/font&gt;&lt;/font&gt;" style="text;html=1;strokeColor=none;fillColor=none;align=center;verticalAlign=middle;whiteSpace=wrap;rounded=0;" parent="1" vertex="1">
          <mxGeometry x="3028.1899999999996" y="1630" width="802.81" height="710" as="geometry" />
        </mxCell>
        <mxCell id="6NB27Jp0EbthDrMz32Os-6" value="&lt;div style=&quot;text-align: left;&quot;&gt;&lt;font color=&quot;#ff0000&quot;&gt;&lt;span style=&quot;font-size: 20px;&quot;&gt;&lt;b&gt;Making Comparison (Karşılaştırmalar)&lt;/b&gt;&lt;/span&gt;&lt;/font&gt;&lt;/div&gt;&lt;div style=&quot;text-align: left;&quot;&gt;&lt;span style=&quot;font-size: 20px;&quot;&gt;&lt;b style=&quot;&quot;&gt;Bağlaç olarak gördüğümüz &quot;as&quot; aynı zamanda &quot;as ... as&quot;&lt;br&gt;&lt;/b&gt;&lt;/span&gt;&lt;/div&gt;&lt;div style=&quot;text-align: left;&quot;&gt;&lt;span style=&quot;font-size: 20px;&quot;&gt;&lt;b&gt;olarak kullanıldığında &quot;gibi/kadar&quot; anlamına sahip olur.&lt;br&gt;Türkçede biz &quot;kadar&quot; olarak söyleyebilmekteyiz.&lt;br&gt;&lt;br&gt;&lt;font color=&quot;#ff0000&quot;&gt;as sly as &lt;/font&gt;a fox. (Tilki &lt;font color=&quot;#ff0000&quot;&gt;kadar &lt;/font&gt;kurnaz)&lt;/b&gt;&lt;/span&gt;&lt;/div&gt;&lt;div style=&quot;text-align: left;&quot;&gt;&lt;span style=&quot;font-size: 20px;&quot;&gt;&lt;b&gt;&lt;font color=&quot;#ff0000&quot;&gt;as strong as &lt;/font&gt;an ox. (Öküz &lt;font color=&quot;#ff0000&quot;&gt;kadar &lt;/font&gt;güçlü)&lt;/b&gt;&lt;/span&gt;&lt;/div&gt;&lt;div style=&quot;text-align: left;&quot;&gt;&lt;span style=&quot;font-size: 20px;&quot;&gt;&lt;b&gt;I&#39;m &lt;font color=&quot;#ff0000&quot;&gt;as&lt;/font&gt; &lt;font color=&quot;#ff0000&quot;&gt;hungry as &lt;/font&gt;a wolf (Kurt &lt;font color=&quot;#ff0000&quot;&gt;gibi &lt;/font&gt;açım)&lt;/b&gt;&lt;/span&gt;&lt;/div&gt;&lt;div style=&quot;text-align: left;&quot;&gt;&lt;span style=&quot;font-size: 20px;&quot;&gt;&lt;b&gt;A tangerine is half &lt;font color=&quot;#ff0000&quot;&gt;as big as &lt;/font&gt;an orange.&lt;br&gt;(Mandalina, portakalın&lt;font color=&quot;#ff0000&quot;&gt; yarısı büyüklüğündedir&lt;/font&gt;.)&lt;/b&gt;&lt;/span&gt;&lt;/div&gt;&lt;font&gt;&lt;font&gt;&lt;div style=&quot;text-align: left&quot;&gt;&lt;span style=&quot;font-size: 20px&quot;&gt;&lt;font color=&quot;#ff0000&quot; style=&quot;text-align: center&quot;&gt;&lt;/font&gt;&lt;/span&gt;&lt;/div&gt;&lt;/font&gt;&lt;/font&gt;" style="text;html=1;strokeColor=none;fillColor=none;align=center;verticalAlign=middle;whiteSpace=wrap;rounded=0;" parent="1" vertex="1">
          <mxGeometry x="3610.9999999999995" y="2536" width="550" height="264" as="geometry" />
        </mxCell>
        <mxCell id="D5RUdjm7kq69GMR2Mrq_-4" value="&lt;div style=&quot;text-align: left&quot;&gt;&lt;span style=&quot;font-size: 20px&quot;&gt;&lt;b&gt;&lt;font color=&quot;#ff0000&quot;&gt;Emotion&amp;nbsp;&lt;/font&gt;(Duygu)&lt;font color=&quot;#ff0000&quot;&gt;&amp;nbsp;&lt;/font&gt;&lt;/b&gt;&lt;/span&gt;&lt;/div&gt;&lt;div style=&quot;text-align: left&quot;&gt;&lt;span style=&quot;font-size: 20px&quot;&gt;&lt;b&gt;&lt;font color=&quot;#ff0000&quot;&gt;&lt;br&gt;&lt;/font&gt;&lt;/b&gt;&lt;/span&gt;&lt;/div&gt;&lt;font&gt;&lt;div style=&quot;text-align: left&quot;&gt;&lt;div style=&quot;font-size: 20px&quot;&gt;&lt;font color=&quot;#ff0000&quot;&gt;&lt;b&gt;love:&lt;/b&gt;&lt;/font&gt;&amp;nbsp;sevmek&lt;/div&gt;&lt;/div&gt;&lt;font&gt;&lt;div style=&quot;text-align: left&quot;&gt;&lt;div style=&quot;font-size: 20px&quot;&gt;&lt;font color=&quot;#ff0000&quot;&gt;&lt;b&gt;like:&lt;/b&gt;&lt;/font&gt;&amp;nbsp;hoşlanmak&lt;br&gt;&lt;/div&gt;&lt;div style=&quot;font-size: 20px&quot;&gt;&lt;font color=&quot;#ff0000&quot;&gt;&lt;b&gt;hate:&lt;/b&gt;&lt;/font&gt;&amp;nbsp;nefret etmek&lt;br&gt;&lt;/div&gt;&lt;div&gt;&lt;span style=&quot;font-size: 20px&quot;&gt;&lt;font color=&quot;#ff0000&quot;&gt;&lt;b&gt;admire&lt;/b&gt;&lt;/font&gt;&lt;/span&gt;&lt;font color=&quot;#ff0000&quot; style=&quot;font-size: 20px&quot;&gt;&lt;b&gt;:&lt;/b&gt;&lt;/font&gt;&lt;span style=&quot;font-size: 20px&quot;&gt;&amp;nbsp;hayran olmak&lt;/span&gt;&lt;br&gt;&lt;/div&gt;&lt;div&gt;&lt;span style=&quot;font-size: 20px&quot;&gt;&lt;font color=&quot;#ff0000&quot;&gt;&lt;b&gt;dislike&lt;/b&gt;&lt;/font&gt;&lt;/span&gt;&lt;font color=&quot;#ff0000&quot; style=&quot;font-size: 20px&quot;&gt;&lt;b&gt;:&lt;/b&gt;&lt;/font&gt;&lt;span style=&quot;font-size: 20px&quot;&gt;&amp;nbsp;sevmemek&lt;/span&gt;&lt;/div&gt;&lt;span style=&quot;font-size: 20px&quot;&gt;&lt;font color=&quot;#ff0000&quot; style=&quot;text-align: center&quot;&gt;&lt;/font&gt;&lt;/span&gt;&lt;/div&gt;&lt;/font&gt;&lt;/font&gt;" style="text;html=1;strokeColor=none;fillColor=none;align=center;verticalAlign=middle;whiteSpace=wrap;rounded=0;" parent="1" vertex="1">
          <mxGeometry x="2181" y="210" width="270" height="200" as="geometry" />
        </mxCell>
        <mxCell id="D5RUdjm7kq69GMR2Mrq_-5" value="&lt;div style=&quot;text-align: left&quot;&gt;&lt;span style=&quot;font-size: 20px&quot;&gt;&lt;b&gt;&lt;font color=&quot;#ff0000&quot;&gt;Possesion&amp;nbsp;&lt;/font&gt;(Sahiplik)&lt;font color=&quot;#ff0000&quot;&gt;&amp;nbsp;&lt;/font&gt;&lt;/b&gt;&lt;/span&gt;&lt;/div&gt;&lt;div style=&quot;text-align: left&quot;&gt;&lt;span style=&quot;font-size: 20px&quot;&gt;&lt;b&gt;&lt;font color=&quot;#ff0000&quot;&gt;&lt;br&gt;&lt;/font&gt;&lt;/b&gt;&lt;/span&gt;&lt;/div&gt;&lt;font&gt;&lt;div style=&quot;text-align: left&quot;&gt;&lt;div style=&quot;font-size: 20px&quot;&gt;&lt;font color=&quot;#ff0000&quot;&gt;&lt;b&gt;have:&lt;/b&gt;&lt;/font&gt;&amp;nbsp;sahip olmak&lt;/div&gt;&lt;/div&gt;&lt;font&gt;&lt;div style=&quot;text-align: left&quot;&gt;&lt;div style=&quot;font-size: 20px&quot;&gt;&lt;font color=&quot;#ff0000&quot;&gt;&lt;b&gt;own:&lt;/b&gt;&lt;/font&gt;&amp;nbsp;&lt;span style=&quot;background-color: initial;&quot;&gt;sahip olmak&lt;/span&gt;&lt;br&gt;&lt;/div&gt;&lt;div style=&quot;font-size: 20px&quot;&gt;&lt;font color=&quot;#ff0000&quot;&gt;&lt;b&gt;belong:&lt;/b&gt;&lt;/font&gt;&amp;nbsp;ait olmak&lt;br&gt;&lt;/div&gt;&lt;div&gt;&lt;span style=&quot;font-size: 20px&quot;&gt;&lt;font color=&quot;#ff0000&quot;&gt;&lt;b&gt;possess&lt;/b&gt;&lt;/font&gt;&lt;/span&gt;&lt;font color=&quot;#ff0000&quot; style=&quot;font-size: 20px&quot;&gt;&lt;b&gt;:&lt;/b&gt;&lt;/font&gt;&lt;span style=&quot;font-size: 20px&quot;&gt;&amp;nbsp;&lt;/span&gt;&lt;span style=&quot;font-size: 20px; background-color: initial;&quot;&gt;sahip olmak&lt;/span&gt;&lt;br&gt;&lt;/div&gt;&lt;div&gt;&lt;span style=&quot;font-size: 20px&quot;&gt;&lt;font color=&quot;#ff0000&quot;&gt;&lt;b&gt;hold&lt;/b&gt;&lt;/font&gt;&lt;/span&gt;&lt;font color=&quot;#ff0000&quot; style=&quot;font-size: 20px&quot;&gt;&lt;b&gt;:&lt;/b&gt;&lt;/font&gt;&lt;span style=&quot;font-size: 20px&quot;&gt;&amp;nbsp;&lt;/span&gt;&lt;span style=&quot;font-size: 20px; background-color: initial;&quot;&gt;sahip olmak&lt;/span&gt;&lt;/div&gt;&lt;span style=&quot;font-size: 20px&quot;&gt;&lt;font color=&quot;#ff0000&quot; style=&quot;text-align: center&quot;&gt;&lt;/font&gt;&lt;/span&gt;&lt;/div&gt;&lt;/font&gt;&lt;/font&gt;" style="text;html=1;strokeColor=none;fillColor=none;align=center;verticalAlign=middle;whiteSpace=wrap;rounded=0;" parent="1" vertex="1">
          <mxGeometry x="2413.96" y="215" width="240" height="190" as="geometry" />
        </mxCell>
        <mxCell id="D5RUdjm7kq69GMR2Mrq_-6" value="&lt;div style=&quot;text-align: left&quot;&gt;&lt;span style=&quot;font-size: 20px&quot;&gt;&lt;b&gt;&lt;font color=&quot;#ff0000&quot;&gt;Senses&amp;nbsp;&lt;/font&gt;(Duyular)&lt;font color=&quot;#ff0000&quot;&gt;&amp;nbsp;&lt;/font&gt;&lt;/b&gt;&lt;/span&gt;&lt;/div&gt;&lt;div style=&quot;text-align: left&quot;&gt;&lt;span style=&quot;font-size: 20px&quot;&gt;&lt;b&gt;&lt;font color=&quot;#ff0000&quot;&gt;&lt;br&gt;&lt;/font&gt;&lt;/b&gt;&lt;/span&gt;&lt;/div&gt;&lt;font&gt;&lt;div style=&quot;text-align: left&quot;&gt;&lt;div style=&quot;font-size: 20px&quot;&gt;&lt;font color=&quot;#ff0000&quot;&gt;&lt;b&gt;look:&lt;/b&gt;&lt;/font&gt;&amp;nbsp;görünmek&lt;/div&gt;&lt;/div&gt;&lt;font&gt;&lt;div style=&quot;text-align: left&quot;&gt;&lt;div style=&quot;font-size: 20px&quot;&gt;&lt;font color=&quot;#ff0000&quot;&gt;&lt;b&gt;smell:&lt;/b&gt;&lt;/font&gt;&amp;nbsp;&lt;span style=&quot;background-color: initial;&quot;&gt;kokmak&lt;/span&gt;&lt;br&gt;&lt;/div&gt;&lt;div style=&quot;font-size: 20px&quot;&gt;&lt;font color=&quot;#ff0000&quot;&gt;&lt;b&gt;hear:&lt;/b&gt;&lt;/font&gt;&amp;nbsp;duymak&lt;br&gt;&lt;/div&gt;&lt;div&gt;&lt;span style=&quot;font-size: 20px&quot;&gt;&lt;font color=&quot;#ff0000&quot;&gt;&lt;b&gt;taste&lt;/b&gt;&lt;/font&gt;&lt;/span&gt;&lt;font color=&quot;#ff0000&quot; style=&quot;font-size: 20px&quot;&gt;&lt;b&gt;:&lt;/b&gt;&lt;/font&gt;&lt;span style=&quot;font-size: 20px&quot;&gt;&amp;nbsp;&lt;/span&gt;&lt;span style=&quot;font-size: 20px; background-color: initial;&quot;&gt;tadı olmak&lt;/span&gt;&lt;br&gt;&lt;/div&gt;&lt;div&gt;&lt;span style=&quot;font-size: 20px&quot;&gt;&lt;font color=&quot;#ff0000&quot;&gt;&lt;b&gt;feel&lt;/b&gt;&lt;/font&gt;&lt;/span&gt;&lt;font color=&quot;#ff0000&quot; style=&quot;font-size: 20px&quot;&gt;&lt;b&gt;:&lt;/b&gt;&lt;/font&gt;&lt;span style=&quot;font-size: 20px&quot;&gt;&amp;nbsp;&lt;/span&gt;&lt;span style=&quot;font-size: 20px; background-color: initial;&quot;&gt;hissetmek&lt;/span&gt;&lt;/div&gt;&lt;span style=&quot;font-size: 20px&quot;&gt;&lt;font color=&quot;#ff0000&quot; style=&quot;text-align: center&quot;&gt;&lt;/font&gt;&lt;/span&gt;&lt;/div&gt;&lt;/font&gt;&lt;/font&gt;" style="text;html=1;strokeColor=none;fillColor=none;align=center;verticalAlign=middle;whiteSpace=wrap;rounded=0;" parent="1" vertex="1">
          <mxGeometry x="2648.5" y="215" width="231" height="190" as="geometry" />
        </mxCell>
        <mxCell id="D5RUdjm7kq69GMR2Mrq_-7" value="&lt;div style=&quot;text-align: left&quot;&gt;&lt;span style=&quot;font-size: 20px&quot;&gt;&lt;b&gt;&lt;font color=&quot;#ff0000&quot;&gt;Notion&amp;nbsp;&lt;/font&gt;(Düşünce)&lt;font color=&quot;#ff0000&quot;&gt;&amp;nbsp;&lt;/font&gt;&lt;/b&gt;&lt;/span&gt;&lt;/div&gt;&lt;div style=&quot;text-align: left&quot;&gt;&lt;span style=&quot;font-size: 20px&quot;&gt;&lt;b&gt;&lt;font color=&quot;#ff0000&quot;&gt;&lt;br&gt;&lt;/font&gt;&lt;/b&gt;&lt;/span&gt;&lt;/div&gt;&lt;font&gt;&lt;div style=&quot;text-align: left&quot;&gt;&lt;div style=&quot;font-size: 20px&quot;&gt;&lt;font color=&quot;#ff0000&quot;&gt;&lt;b&gt;think:&lt;/b&gt;&lt;/font&gt;&amp;nbsp;düşünmek&lt;/div&gt;&lt;/div&gt;&lt;font&gt;&lt;div style=&quot;text-align: left&quot;&gt;&lt;div style=&quot;font-size: 20px&quot;&gt;&lt;font color=&quot;#ff0000&quot;&gt;&lt;b&gt;believe:&lt;/b&gt;&lt;/font&gt;&amp;nbsp;inanmak&lt;br&gt;&lt;/div&gt;&lt;div style=&quot;font-size: 20px&quot;&gt;&lt;font color=&quot;#ff0000&quot;&gt;&lt;b&gt;forget:&lt;/b&gt;&lt;/font&gt;&amp;nbsp;unutmak&lt;br&gt;&lt;/div&gt;&lt;div&gt;&lt;span style=&quot;font-size: 20px&quot;&gt;&lt;font color=&quot;#ff0000&quot;&gt;&lt;b&gt;remember&lt;/b&gt;&lt;/font&gt;&lt;/span&gt;&lt;font color=&quot;#ff0000&quot; style=&quot;font-size: 20px&quot;&gt;&lt;b&gt;:&lt;/b&gt;&lt;/font&gt;&lt;span style=&quot;font-size: 20px&quot;&gt;&amp;nbsp;hatırlamak&lt;/span&gt;&lt;br&gt;&lt;/div&gt;&lt;div&gt;&lt;span style=&quot;font-size: 20px&quot;&gt;&lt;font color=&quot;#ff0000&quot;&gt;&lt;b&gt;realize&lt;/b&gt;&lt;/font&gt;&lt;/span&gt;&lt;font color=&quot;#ff0000&quot; style=&quot;font-size: 20px&quot;&gt;&lt;b&gt;:&lt;/b&gt;&lt;/font&gt;&lt;span style=&quot;font-size: 20px&quot;&gt;&amp;nbsp;&lt;/span&gt;&lt;span style=&quot;font-size: 20px; background-color: initial;&quot;&gt;farkına varmak&lt;/span&gt;&lt;/div&gt;&lt;span style=&quot;font-size: 20px&quot;&gt;&lt;font color=&quot;#ff0000&quot; style=&quot;text-align: center&quot;&gt;&lt;/font&gt;&lt;/span&gt;&lt;/div&gt;&lt;/font&gt;&lt;/font&gt;" style="text;html=1;strokeColor=none;fillColor=none;align=center;verticalAlign=middle;whiteSpace=wrap;rounded=0;" parent="1" vertex="1">
          <mxGeometry x="2844.5" y="215" width="255" height="190" as="geometry" />
        </mxCell>
        <mxCell id="D5RUdjm7kq69GMR2Mrq_-8" value="&lt;div style=&quot;text-align: left&quot;&gt;&lt;span style=&quot;font-size: 20px&quot;&gt;&lt;b&gt;&lt;font color=&quot;#ff0000&quot;&gt;Others&amp;nbsp;&lt;/font&gt;(Diğerleri)&lt;font color=&quot;#ff0000&quot;&gt;&amp;nbsp;&lt;/font&gt;&lt;/b&gt;&lt;/span&gt;&lt;/div&gt;&lt;div style=&quot;text-align: left&quot;&gt;&lt;span style=&quot;font-size: 20px&quot;&gt;&lt;b&gt;&lt;font color=&quot;#ff0000&quot;&gt;&lt;br&gt;&lt;/font&gt;&lt;/b&gt;&lt;/span&gt;&lt;/div&gt;&lt;font&gt;&lt;div style=&quot;text-align: left&quot;&gt;&lt;div style=&quot;font-size: 20px&quot;&gt;&lt;font color=&quot;#ff0000&quot;&gt;&lt;b&gt;know:&lt;/b&gt;&lt;/font&gt;&amp;nbsp;look&lt;/div&gt;&lt;/div&gt;&lt;font&gt;&lt;div style=&quot;text-align: left&quot;&gt;&lt;div style=&quot;font-size: 20px&quot;&gt;&lt;font color=&quot;#ff0000&quot;&gt;&lt;b&gt;owe:&lt;/b&gt;&lt;/font&gt;&amp;nbsp;&lt;span style=&quot;background-color: initial;&quot;&gt;borçlu olmak&lt;/span&gt;&lt;br&gt;&lt;/div&gt;&lt;div style=&quot;font-size: 20px&quot;&gt;&lt;font color=&quot;#ff0000&quot;&gt;&lt;b&gt;mean:&lt;/b&gt;&lt;/font&gt;&amp;nbsp;kastetmek&lt;br&gt;&lt;/div&gt;&lt;div&gt;&lt;span style=&quot;font-size: 20px&quot;&gt;&lt;font color=&quot;#ff0000&quot;&gt;&lt;b&gt;imagine&lt;/b&gt;&lt;/font&gt;&lt;/span&gt;&lt;font color=&quot;#ff0000&quot; style=&quot;font-size: 20px&quot;&gt;&lt;b&gt;:&lt;/b&gt;&lt;/font&gt;&lt;span style=&quot;font-size: 20px&quot;&gt;&amp;nbsp;&lt;/span&gt;&lt;span style=&quot;font-size: 20px; background-color: initial;&quot;&gt;hayal etmek&lt;/span&gt;&lt;br&gt;&lt;/div&gt;&lt;div&gt;&lt;span style=&quot;font-size: 20px&quot;&gt;&lt;font color=&quot;#ff0000&quot;&gt;&lt;b&gt;look&lt;/b&gt;&lt;/font&gt;&lt;/span&gt;&lt;font color=&quot;#ff0000&quot; style=&quot;font-size: 20px&quot;&gt;&lt;b&gt;:&lt;/b&gt;&lt;/font&gt;&lt;span style=&quot;font-size: 20px&quot;&gt;&amp;nbsp;görünmek&lt;/span&gt;&lt;/div&gt;&lt;span style=&quot;font-size: 20px&quot;&gt;&lt;font color=&quot;#ff0000&quot; style=&quot;text-align: center&quot;&gt;&lt;/font&gt;&lt;/span&gt;&lt;/div&gt;&lt;/font&gt;&lt;/font&gt;" style="text;html=1;strokeColor=none;fillColor=none;align=center;verticalAlign=middle;whiteSpace=wrap;rounded=0;" parent="1" vertex="1">
          <mxGeometry x="3088.5" y="210" width="210.42" height="200" as="geometry" />
        </mxCell>
        <mxCell id="6NB27Jp0EbthDrMz32Os-22" value="" style="endArrow=none;html=1;strokeWidth=3;" parent="1" edge="1">
          <mxGeometry width="50" height="50" relative="1" as="geometry">
            <mxPoint x="2180.9999999999986" y="470" as="sourcePoint" />
            <mxPoint x="4134.13" y="470" as="targetPoint" />
          </mxGeometry>
        </mxCell>
        <mxCell id="6NB27Jp0EbthDrMz32Os-24" value="&lt;div style=&quot;text-align: left;&quot;&gt;&lt;font color=&quot;#ff0000&quot;&gt;&lt;span style=&quot;font-size: 20px;&quot;&gt;&lt;b&gt;Quantifiers Adjectives (Miktar Belirten Nicelik Sıfatları)&lt;/b&gt;&lt;/span&gt;&lt;/font&gt;&lt;/div&gt;&lt;div style=&quot;text-align: left;&quot;&gt;&lt;br&gt;&lt;/div&gt;&lt;div style=&quot;text-align: left;&quot;&gt;&lt;b style=&quot;border-color: var(--border-color); font-size: 20px;&quot;&gt;&lt;div style=&quot;border-color: var(--border-color); font-size: 12px; font-weight: 400;&quot;&gt;&lt;span style=&quot;border-color: var(--border-color); font-size: 20px;&quot;&gt;&lt;b style=&quot;border-color: var(--border-color);&quot;&gt;much (çok)&lt;/b&gt;&lt;/span&gt;&lt;/div&gt;&lt;div style=&quot;border-color: var(--border-color); font-size: 12px; font-weight: 400;&quot;&gt;&lt;span style=&quot;border-color: var(--border-color); font-size: 20px;&quot;&gt;&lt;b style=&quot;border-color: var(--border-color);&quot;&gt;many (çok)&lt;/b&gt;&lt;/span&gt;&lt;/div&gt;&lt;/b&gt;&lt;/div&gt;&lt;div style=&quot;text-align: left;&quot;&gt;&lt;b style=&quot;border-color: var(--border-color); font-size: 20px;&quot;&gt;a lot of (bir çok / çok)&lt;/b&gt;&lt;/div&gt;&lt;div style=&quot;text-align: left;&quot;&gt;&lt;b style=&quot;border-color: var(--border-color); font-size: 20px;&quot;&gt;lots of (bir sürü / çok)&lt;br&gt;a number of (bir kaç / çok)&lt;br&gt;plenty of (bolca / çok)&lt;br&gt;a few (bir kaç)&lt;br&gt;&lt;b style=&quot;background-color: initial; border-color: var(--border-color);&quot;&gt;a little (biraz)&lt;/b&gt;&lt;br&gt;&lt;/b&gt;&lt;/div&gt;&lt;div style=&quot;text-align: left;&quot;&gt;&lt;b style=&quot;border-color: var(--border-color); font-size: 20px;&quot;&gt;a / an / one (bir)&lt;br&gt;both of (her ikisi)&lt;/b&gt;&lt;/div&gt;&lt;div style=&quot;text-align: left;&quot;&gt;&lt;b style=&quot;border-color: var(--border-color); font-size: 20px;&quot;&gt;all of (hepsinin)&lt;br&gt;eighter (ikisinden biri)&lt;br&gt;neigher (hiç biri)&lt;/b&gt;&lt;/div&gt;&lt;div style=&quot;text-align: left;&quot;&gt;&lt;b style=&quot;border-color: var(--border-color); font-size: 20px;&quot;&gt;some (bazı)&lt;/b&gt;&lt;/div&gt;&lt;div style=&quot;text-align: left;&quot;&gt;&lt;b style=&quot;border-color: var(--border-color); font-size: 20px;&quot;&gt;any (hiç)&lt;/b&gt;&lt;/div&gt;&lt;div style=&quot;text-align: left;&quot;&gt;&lt;b style=&quot;border-color: var(--border-color); font-size: 20px;&quot;&gt;&lt;br&gt;There are &lt;font color=&quot;#ff0000&quot;&gt;a lot of&lt;/font&gt; houses in this city. (Bu şehirde çok ev var.)&lt;/b&gt;&lt;/div&gt;&lt;div style=&quot;text-align: left;&quot;&gt;&lt;b style=&quot;border-color: var(--border-color); font-size: 20px;&quot;&gt;I have &lt;font color=&quot;#ff0000&quot;&gt;a few&lt;/font&gt; books to read. (Bir kaç okuduğum kitap var.)&lt;br&gt;There aren&#39;t &lt;font color=&quot;#ff0000&quot;&gt;many &lt;/font&gt;houses in this city. (Bu şehirde çok ev yok.)&lt;br&gt;&lt;br&gt;&lt;br&gt;&lt;/b&gt;&lt;/div&gt;&lt;font&gt;&lt;font&gt;&lt;div style=&quot;text-align: left&quot;&gt;&lt;span style=&quot;font-size: 20px&quot;&gt;&lt;font color=&quot;#ff0000&quot; style=&quot;text-align: center&quot;&gt;&lt;/font&gt;&lt;/span&gt;&lt;/div&gt;&lt;/font&gt;&lt;/font&gt;" style="text;html=1;strokeColor=none;fillColor=none;align=center;verticalAlign=middle;whiteSpace=wrap;rounded=0;" parent="1" vertex="1">
          <mxGeometry x="2971" y="500" width="880" height="560" as="geometry" />
        </mxCell>
        <mxCell id="6NB27Jp0EbthDrMz32Os-25" value="" style="endArrow=none;html=1;strokeWidth=3;" parent="1" edge="1">
          <mxGeometry width="50" height="50" relative="1" as="geometry">
            <mxPoint x="2180.9999999999986" y="3160" as="sourcePoint" />
            <mxPoint x="4134.13" y="3160" as="targetPoint" />
          </mxGeometry>
        </mxCell>
        <mxCell id="guaiwjkcazCz04kWLijK-1" value="&lt;div style=&quot;text-align: left;&quot;&gt;&lt;font color=&quot;#ff0000&quot;&gt;&lt;span style=&quot;font-size: 20px;&quot;&gt;&lt;b&gt;Benzerlikler (like-alike / the same - the same as / similar - similar to / diffrent - diffrent from)&lt;/b&gt;&lt;/span&gt;&lt;/font&gt;&lt;/div&gt;&lt;div style=&quot;text-align: left;&quot;&gt;&lt;span style=&quot;font-size: 20px;&quot;&gt;&lt;b style=&quot;&quot;&gt;&lt;font color=&quot;#ff0000&quot;&gt;like (gibi - falan)&lt;/font&gt;&lt;br&gt;He is &lt;font color=&quot;#ff0000&quot;&gt;like &lt;/font&gt;his father (O, babası gibi)&lt;br&gt;&lt;font color=&quot;#ff0000&quot;&gt;Like &lt;/font&gt;I said (Dediğim gibi)&lt;br&gt;What is he &lt;font color=&quot;#ff0000&quot;&gt;like &lt;/font&gt;(Onun tipi nasıl ?)&lt;br&gt;He is &lt;font color=&quot;#ff0000&quot;&gt;like &lt;/font&gt;four or five years old. (O dört - beş yaşlarında falan)&lt;br&gt;&lt;br&gt;&lt;font color=&quot;#ff0000&quot;&gt;alike (birbirine benzer)&lt;br&gt;&lt;/font&gt;an orange and a tangerine are &lt;font color=&quot;#ff0000&quot;&gt;alike&lt;/font&gt;. (bir portal ve bir mandaline birbirine benzer)&lt;br&gt;Great minds &lt;font color=&quot;#ff0000&quot;&gt;think alike&lt;/font&gt; (Büyük insanlar benzer düşünür)&lt;br&gt;You all &lt;font color=&quot;#ff0000&quot;&gt;look alike&lt;/font&gt; (Hepiniz birbirinize benziyorsunuz)&lt;br&gt;&lt;br&gt;&lt;font color=&quot;#ff0000&quot;&gt;the same (aynı - birbirinin aynı)&lt;/font&gt;&lt;br&gt;an orange and a tangerine aren&#39;t &lt;font color=&quot;#ff0000&quot;&gt;the same&lt;/font&gt;. (Bir portakal ve bir mandalina aynı değildir)&lt;br&gt;&lt;font color=&quot;#ff0000&quot;&gt;The same thing &lt;/font&gt;happened to me yesterday. (Aynı şey dün başıma geldi)&lt;br&gt;I have &lt;font color=&quot;#ff0000&quot;&gt;the same &lt;/font&gt;problem. (Bende de aynı sorun var)&lt;br&gt;&lt;br&gt;the same as (X, Y ile benzer / X, Y Aynıdır)&lt;br&gt;a pound is &lt;font color=&quot;#ff0000&quot;&gt;the same as&lt;/font&gt; a sterling. (Pound, sterlin ile aynıdır)&lt;br&gt;I have &lt;font color=&quot;#ff0000&quot;&gt;the same&lt;/font&gt; problem &lt;font color=&quot;#ff0000&quot;&gt;as&lt;/font&gt; you. (Seninle aynı sorunum var)&lt;br&gt;&lt;br&gt;&lt;font color=&quot;#ff0000&quot;&gt;similar to (benzer)&lt;/font&gt;&lt;/b&gt;&lt;/span&gt;&lt;/div&gt;&lt;div style=&quot;text-align: left;&quot;&gt;&lt;b style=&quot;border-color: var(--border-color); font-size: 20px;&quot;&gt;an orange is &lt;font color=&quot;#ff0000&quot;&gt;similar to&lt;/font&gt; a tangerine. (Portal, mandalinaya benzer)&lt;br&gt;&lt;/b&gt;&lt;span style=&quot;font-size: 20px;&quot;&gt;&lt;b style=&quot;&quot;&gt;&lt;br&gt;&lt;font color=&quot;#ff0000&quot;&gt;different (farklı veya birbirinden farklı)&lt;br&gt;&lt;/font&gt;an orange and a tangerine are &lt;font color=&quot;#ff0000&quot;&gt;different&lt;/font&gt;. /Portakal ve mandalina birbirinden farklıdır)&lt;br&gt;&lt;font color=&quot;#ff0000&quot;&gt;a different &lt;/font&gt;person met me at the airport. (Havalanında beni farklı biri karşıladı.)&lt;br&gt;&lt;br&gt;&lt;/b&gt;&lt;/span&gt;&lt;/div&gt;&lt;div style=&quot;text-align: left;&quot;&gt;&lt;span style=&quot;font-size: 20px;&quot;&gt;&lt;b style=&quot;&quot;&gt;&lt;font color=&quot;#ff0000&quot;&gt;different from (X, Y den farklıdır)&lt;/font&gt;&lt;/b&gt;&lt;/span&gt;&lt;/div&gt;&lt;div style=&quot;text-align: left;&quot;&gt;&lt;span style=&quot;font-size: 20px;&quot;&gt;&lt;b style=&quot;&quot;&gt;an orange is &lt;font color=&quot;#ff0000&quot;&gt;different from &lt;/font&gt;a tangerine (Portakal, mandalinadan farklıdır)&lt;/b&gt;&lt;/span&gt;&lt;/div&gt;&lt;font&gt;&lt;font&gt;&lt;div style=&quot;text-align: left&quot;&gt;&lt;span style=&quot;font-size: 20px&quot;&gt;&lt;font color=&quot;#ff0000&quot; style=&quot;text-align: center&quot;&gt;&lt;/font&gt;&lt;/span&gt;&lt;/div&gt;&lt;/font&gt;&lt;/font&gt;" style="text;html=1;strokeColor=none;fillColor=none;align=center;verticalAlign=middle;whiteSpace=wrap;rounded=0;" parent="1" vertex="1">
          <mxGeometry x="2181" y="3194" width="880" height="780" as="geometry" />
        </mxCell>
        <mxCell id="guaiwjkcazCz04kWLijK-2" value="" style="endArrow=none;html=1;strokeWidth=3;" parent="1" edge="1">
          <mxGeometry width="50" height="50" relative="1" as="geometry">
            <mxPoint x="2190.999999999998" y="2510" as="sourcePoint" />
            <mxPoint x="4144.13" y="2510" as="targetPoint" />
          </mxGeometry>
        </mxCell>
        <mxCell id="rpV8jjswjcYmfasXrnGt-1" value="&lt;div style=&quot;text-align: left;&quot;&gt;&lt;font color=&quot;#ff0000&quot;&gt;&lt;span style=&quot;font-size: 20px;&quot;&gt;&lt;b&gt;Adverbs of Manner (Durum Zarfları)&lt;/b&gt;&lt;/span&gt;&lt;/font&gt;&lt;/div&gt;&lt;div style=&quot;text-align: left;&quot;&gt;&lt;b style=&quot;font-size: 20px; background-color: initial;&quot;&gt;Zarf Nedir ?&lt;/b&gt;&lt;br&gt;&lt;/div&gt;&lt;div style=&quot;text-align: left;&quot;&gt;&lt;b style=&quot;font-size: 20px; background-color: initial;&quot;&gt;Ne zaman, nasıl, niçin, ne kadar ,nereye gibi sorulara verilen yanıtlardır.&lt;/b&gt;&lt;/div&gt;&lt;div style=&quot;text-align: left;&quot;&gt;&lt;b style=&quot;font-size: 20px; background-color: initial;&quot;&gt;&lt;br&gt;&lt;/b&gt;&lt;/div&gt;&lt;div style=&quot;text-align: left;&quot;&gt;&lt;b style=&quot;font-size: 20px; background-color: initial;&quot;&gt;&lt;font color=&quot;#ff0000&quot;&gt;Yesterday&lt;/font&gt;, he got in his car drove &lt;font color=&quot;#ff0000&quot;&gt;very fast to&lt;/font&gt; the &lt;font color=&quot;#ff0000&quot;&gt;nearest &lt;/font&gt;grocery store to buy &lt;font color=&quot;#ff0000&quot;&gt;some &lt;/font&gt;food.&lt;br&gt;(Dün, onun arabasını çok hızlı sürüp en yakın bakkaldan bazı yicekler aldı.)&lt;br&gt;&lt;br&gt;Yesterday ( Dün )&lt;br&gt;Fast ( Hızlıca )&lt;br&gt;Very ( Çok )&lt;br&gt;&lt;br&gt;&lt;font color=&quot;#ff0000&quot;&gt;Eylemleri niteleyen zarflar&lt;br&gt;&lt;/font&gt;&lt;/b&gt;&lt;b style=&quot;font-size: 20px; background-color: initial;&quot;&gt;Genellikle eylemden sonra -ly eki getirir Türkçede &quot;-ce/-ca&quot; ekini veya &quot;... bir şekilde&quot; anlamı katmaktadır.&lt;br&gt;&lt;br&gt;slow&lt;font color=&quot;#ff0000&quot;&gt;ly&lt;/font&gt; (yavaşça)&lt;br&gt;careful&lt;font color=&quot;#ff0000&quot;&gt;ly&lt;/font&gt; (dikkatlice)&lt;br&gt;happy -&amp;gt; happ&lt;font color=&quot;#ff0000&quot;&gt;ily&lt;/font&gt; (mutlu bir şekilde) sonu &lt;font color=&quot;#ff0000&quot;&gt;&quot;y&quot;&lt;/font&gt; ilen bitenler &lt;font color=&quot;#ff0000&quot;&gt;&quot;ily&quot;&lt;/font&gt; olur.&lt;/b&gt;&lt;/div&gt;&lt;div style=&quot;text-align: left;&quot;&gt;&lt;b style=&quot;font-size: 20px; background-color: initial;&quot;&gt;simple -&amp;gt; simp&lt;font color=&quot;#ff0000&quot;&gt;ly &lt;/font&gt;(basitçe) sonu &lt;font color=&quot;#ff0000&quot;&gt;&quot;le&quot;&lt;/font&gt; ile bitiyorsa &lt;font color=&quot;#ff0000&quot;&gt;&quot;e&quot;&lt;/font&gt; harfi düşer ve &lt;font color=&quot;#ff0000&quot;&gt;&quot;ly&quot;&lt;/font&gt; olur.&lt;br&gt;&lt;br&gt;&lt;font color=&quot;#ff0000&quot;&gt;Her -ly ile bitip zarf olmayan kelimeler&lt;/font&gt;&lt;/b&gt;&lt;/div&gt;&lt;div style=&quot;text-align: left;&quot;&gt;&lt;b style=&quot;font-size: 20px; background-color: initial;&quot;&gt;bare (cıplak / yalın) - barely (nadiren / güç bela)&lt;br&gt;short (kısa) - shortly (özetle)&lt;br&gt;live (yaşamak) - lively (hayat dolu)&lt;br&gt;late (geç) - lately (son zamanlarda)&lt;br&gt;&lt;br&gt;&lt;font color=&quot;#ff0000&quot;&gt;Sıfatları Niteleyen Zarflar&lt;br&gt;&lt;/font&gt;more (daha fazla)&lt;br&gt;most (en fazla)&lt;br&gt;less (az)&lt;br&gt;rather (epey)&lt;br&gt;quite (oldukça)&lt;br&gt;really (çok/gerçekten)&lt;br&gt;too (çok)&lt;br&gt;This car is more comfortable than the other. (Bu araba diğerlerinden daha konforlu)&lt;/b&gt;&lt;/div&gt;&lt;font&gt;&lt;font&gt;&lt;div style=&quot;text-align: left&quot;&gt;&lt;span style=&quot;font-size: 20px&quot;&gt;&lt;font color=&quot;#ff0000&quot; style=&quot;text-align: center&quot;&gt;&lt;/font&gt;&lt;/span&gt;&lt;/div&gt;&lt;/font&gt;&lt;/font&gt;" style="text;html=1;strokeColor=none;fillColor=none;align=center;verticalAlign=middle;whiteSpace=wrap;rounded=0;" parent="1" vertex="1">
          <mxGeometry x="3211" y="3173" width="970" height="930" as="geometry" />
        </mxCell>
        <mxCell id="IlXEvBbhOJ53WzyiI_Hp-1" value="&lt;div&gt;&lt;span style=&quot;font-size: 20px;&quot;&gt;&lt;b&gt;However &lt;font color=&quot;#ff0000&quot;&gt;= &quot;her nasılsa&quot; veya &quot;nasıl olduğu önemli değil&quot;&amp;nbsp;&lt;/font&gt;&lt;/b&gt;&lt;/span&gt;&lt;/div&gt;&lt;div&gt;&lt;span style=&quot;font-size: 20px;&quot;&gt;&lt;b&gt;Whatever&amp;nbsp;&lt;font color=&quot;#ff0000&quot;&gt; = &quot;her neyse&quot; veya &quot;ne olduğu önemli değil&quot;&lt;/font&gt;&lt;/b&gt;&lt;/span&gt;&lt;/div&gt;&lt;div&gt;&lt;span style=&quot;font-size: 20px;&quot;&gt;&lt;b&gt;Whichever &lt;font color=&quot;#ff0000&quot;&gt;= &quot;herhangi&quot; veya &quot;hangisi olduğu önemli değil&quot;&lt;/font&gt;&lt;/b&gt;&lt;/span&gt;&lt;/div&gt;&lt;div&gt;&lt;span style=&quot;font-size: 20px;&quot;&gt;&lt;b&gt;Whenever &lt;font color=&quot;#ff0000&quot;&gt;= &quot;herhangi bir zaman&quot; ya da &quot;hangi zaman olduğu önemli değil&quot;&lt;/font&gt;&lt;/b&gt;&lt;/span&gt;&lt;/div&gt;&lt;div&gt;&lt;span style=&quot;font-size: 20px;&quot;&gt;&lt;b&gt;Wherever &lt;font color=&quot;#ff0000&quot;&gt;= &quot;herhangi bir yer&quot; veya &quot;hangi yer olduğu önemli değil&quot;&lt;/font&gt;&lt;/b&gt;&lt;/span&gt;&lt;/div&gt;&lt;div&gt;&lt;span style=&quot;font-size: 20px;&quot;&gt;&lt;b&gt;Whoever &lt;font color=&quot;#ff0000&quot;&gt;= &quot;herhangi biri&quot; veya &quot;kim olduğu önemli değil&quot; anlamına geliyor.&lt;/font&gt;&lt;/b&gt;&lt;/span&gt;&lt;/div&gt;" style="text;html=1;strokeColor=none;fillColor=none;align=left;verticalAlign=middle;whiteSpace=wrap;rounded=0;" parent="1" vertex="1">
          <mxGeometry x="2224.88" y="2920" width="736.12" height="238" as="geometry" />
        </mxCell>
        <mxCell id="IlXEvBbhOJ53WzyiI_Hp-2" value="" style="endArrow=none;html=1;strokeWidth=3;" parent="1" edge="1">
          <mxGeometry width="50" height="50" relative="1" as="geometry">
            <mxPoint x="2190.659999999998" y="2930" as="sourcePoint" />
            <mxPoint x="4143.79" y="2930" as="targetPoint" />
          </mxGeometry>
        </mxCell>
        <mxCell id="D5RUdjm7kq69GMR2Mrq_-11" value="&lt;div style=&quot;text-align: left;&quot;&gt;&lt;b style=&quot;background-color: initial; border-color: var(--border-color); color: rgb(255, 0, 0); font-size: 20px;&quot;&gt;Stative Verbs (Durum Fiileri)&lt;/b&gt;&lt;/div&gt;&lt;div style=&quot;text-align: left;&quot;&gt;&lt;span style=&quot;font-size: 20px;&quot;&gt;&lt;b style=&quot;&quot;&gt;&lt;font color=&quot;#ff0000&quot;&gt;&amp;nbsp;&lt;/font&gt;Eylem gerçekleştirmeyen eylem gibi görünen fiillerdir. Anlam bütünlüğünde eylem olmadığı bellidir.&lt;/b&gt;&lt;/span&gt;&lt;/div&gt;&lt;div style=&quot;text-align: left;&quot;&gt;&lt;span style=&quot;font-size: 20px;&quot;&gt;&lt;b style=&quot;&quot;&gt;Durum fiilleri &lt;font color=&quot;#ff0000&quot;&gt;-ing &lt;/font&gt;takısı alamazlar.&lt;/b&gt;&lt;/span&gt;&lt;/div&gt;&lt;font&gt;&lt;font&gt;&lt;div style=&quot;text-align: left&quot;&gt;&lt;span style=&quot;font-size: 20px&quot;&gt;&lt;font color=&quot;#ff0000&quot; style=&quot;text-align: center&quot;&gt;&lt;/font&gt;&lt;/span&gt;&lt;/div&gt;&lt;/font&gt;&lt;/font&gt;" style="text;html=1;strokeColor=none;fillColor=none;align=center;verticalAlign=middle;whiteSpace=wrap;rounded=0;" parent="1" vertex="1">
          <mxGeometry x="2215.5" y="80" width="952.5" height="130" as="geometry" />
        </mxCell>
      </root>
    </mxGraphModel>
  </diagram>
</mxfile>
